  0
SECTION
  2
HEADER
  9
$ACADVER
  1
AC1015
  9
$ACADMAINTVER
 70
     6
  9
$DWGCODEPAGE
  3
ANSI_1252
  9
$INSBASE
 10
0.0
 20
0.0
 30
0.0
  9
$EXTMIN
 10
-40.5541538785
 20
-41.052728237
 30
0.0
  9
$EXTMAX
 10
41.5252548406
 20
41.3619256265
 30
0.0
  9
$LIMMIN
 10
0.0
 20
0.0
  9
$LIMMAX
 10
420.0
 20
297.0
  9
$ORTHOMODE
 70
     0
  9
$REGENMODE
 70
     1
  9
$FILLMODE
 70
     1
  9
$QTEXTMODE
 70
     0
  9
$MIRRTEXT
 70
     1
  9
$LTSCALE
 40
1.0
  9
$ATTMODE
 70
     1
  9
$TEXTSIZE
 40
3.5
  9
$TRACEWID
 40
1.0
  9
$TEXTSTYLE
  7
Standard
  9
$CLAYER
  8
0
  9
$CELTYPE
  6
ByLayer
  9
$CECOLOR
 62
   256
  9
$CELTSCALE
 40
1.0
  9
$DISPSILH
 70
     0
  9
$DIMSCALE
 40
1.0
  9
$DIMASZ
 40
3.302
  9
$DIMEXO
 40
1.0
  9
$DIMDLI
 40
3.75
  9
$DIMRND
 40
0.0
  9
$DIMDLE
 40
0.0
  9
$DIMEXE
 40
1.0
  9
$DIMTP
 40
0.0
  9
$DIMTM
 40
0.0
  9
$DIMTXT
 40
3.5
  9
$DIMCEN
 40
2.5
  9
$DIMTSZ
 40
0.0
  9
$DIMTOL
 70
     0
  9
$DIMLIM
 70
     0
  9
$DIMTIH
 70
     1
  9
$DIMTOH
 70
     1
  9
$DIMSE1
 70
     0
  9
$DIMSE2
 70
     0
  9
$DIMTAD
 70
     1
  9
$DIMZIN
 70
     1
  9
$DIMBLK
  1

  9
$DIMASO
 70
     1
  9
$DIMSHO
 70
     1
  9
$DIMPOST
  1

  9
$DIMAPOST
  1

  9
$DIMALT
 70
     0
  9
$DIMALTD
 70
     3
  9
$DIMALTF
 40
0.0393700787
  9
$DIMLFAC
 40
1.0
  9
$DIMTOFL
 70
     1
  9
$DIMTVP
 40
0.0
  9
$DIMTIX
 70
     0
  9
$DIMSOXD
 70
     0
  9
$DIMSAH
 70
     0
  9
$DIMBLK1
  1

  9
$DIMBLK2
  1

  9
$DIMSTYLE
  2
ISO-25
  9
$DIMCLRD
 70
     0
  9
$DIMCLRE
 70
     0
  9
$DIMCLRT
 70
     0
  9
$DIMTFAC
 40
1.0
  9
$DIMGAP
 40
1.524
  9
$DIMJUST
 70
     0
  9
$DIMSD1
 70
     0
  9
$DIMSD2
 70
     0
  9
$DIMTOLJ
 70
     0
  9
$DIMTZIN
 70
     1
  9
$DIMALTZ
 70
     0
  9
$DIMALTTZ
 70
     0
  9
$DIMUPT
 70
     0
  9
$DIMDEC
 70
     2
  9
$DIMTDEC
 70
     2
  9
$DIMALTU
 70
     2
  9
$DIMALTTD
 70
     3
  9
$DIMTXSTY
  7
Standard
  9
$DIMAUNIT
 70
     0
  9
$DIMADEC
 70
     2
  9
$DIMALTRND
 40
0.0
  9
$DIMAZIN
 70
     0
  9
$DIMDSEP
 70
    44
  9
$DIMATFIT
 70
     3
  9
$DIMFRAC
 70
     0
  9
$DIMLDRBLK
  1

  9
$DIMLUNIT
 70
     2
  9
$DIMLWD
 70
    -2
  9
$DIMLWE
 70
    -2
  9
$DIMTMOVE
 70
     0
  9
$LUNITS
 70
     2
  9
$LUPREC
 70
     2
  9
$SKETCHINC
 40
1.0
  9
$FILLETRAD
 40
10.0
  9
$AUNITS
 70
     0
  9
$AUPREC
 70
     2
  9
$MENU
  1
.
  9
$ELEVATION
 40
0.0
  9
$PELEVATION
 40
0.0
  9
$THICKNESS
 40
0.0
  9
$LIMCHECK
 70
     0
  9
$CHAMFERA
 40
0.0
  9
$CHAMFERB
 40
0.0
  9
$CHAMFERC
 40
0.0
  9
$CHAMFERD
 40
0.0
  9
$SKPOLY
 70
     0
  9
$TDCREATE
 40
2459719.497264479
  9
$TDUCREATE
 40
2459719.247264479
  9
$TDUPDATE
 40
2459719.49730419
  9
$TDUUPDATE
 40
2459719.24730419
  9
$TDINDWG
 40
0.0000000116
  9
$TDUSRTIMER
 40
0.0000000116
  9
$USRTIMER
 70
     1
  9
$ANGBASE
 50
0.0
  9
$ANGDIR
 70
     0
  9
$PDMODE
 70
     0
  9
$PDSIZE
 40
-1.0
  9
$PLINEWID
 40
0.0
  9
$SPLFRAME
 70
     0
  9
$SPLINETYPE
 70
     6
  9
$SPLINESEGS
 70
     8
  9
$HANDSEED
  5
75
  9
$SURFTAB1
 70
     6
  9
$SURFTAB2
 70
     6
  9
$SURFTYPE
 70
     6
  9
$SURFU
 70
     6
  9
$SURFV
 70
     6
  9
$UCSBASE
  2

  9
$UCSNAME
  2

  9
$UCSORG
 10
0.0
 20
0.0
 30
0.0
  9
$UCSXDIR
 10
1.0
 20
0.0
 30
0.0
  9
$UCSYDIR
 10
0.0
 20
1.0
 30
0.0
  9
$UCSORTHOREF
  2

  9
$UCSORTHOVIEW
 70
     0
  9
$UCSORGTOP
 10
0.0
 20
0.0
 30
0.0
  9
$UCSORGBOTTOM
 10
0.0
 20
0.0
 30
0.0
  9
$UCSORGLEFT
 10
0.0
 20
0.0
 30
0.0
  9
$UCSORGRIGHT
 10
0.0
 20
0.0
 30
0.0
  9
$UCSORGFRONT
 10
0.0
 20
0.0
 30
0.0
  9
$UCSORGBACK
 10
0.0
 20
0.0
 30
0.0
  9
$PUCSBASE
  2

  9
$PUCSNAME
  2

  9
$PUCSORG
 10
0.0
 20
0.0
 30
0.0
  9
$PUCSXDIR
 10
1.0
 20
0.0
 30
0.0
  9
$PUCSYDIR
 10
0.0
 20
1.0
 30
0.0
  9
$PUCSORTHOREF
  2

  9
$PUCSORTHOVIEW
 70
     0
  9
$PUCSORGTOP
 10
0.0
 20
0.0
 30
0.0
  9
$PUCSORGBOTTOM
 10
0.0
 20
0.0
 30
0.0
  9
$PUCSORGLEFT
 10
0.0
 20
0.0
 30
0.0
  9
$PUCSORGRIGHT
 10
0.0
 20
0.0
 30
0.0
  9
$PUCSORGFRONT
 10
0.0
 20
0.0
 30
0.0
  9
$PUCSORGBACK
 10
0.0
 20
0.0
 30
0.0
  9
$USERI1
 70
     0
  9
$USERI2
 70
     0
  9
$USERI3
 70
     0
  9
$USERI4
 70
     0
  9
$USERI5
 70
     0
  9
$USERR1
 40
0.0
  9
$USERR2
 40
0.0
  9
$USERR3
 40
0.0
  9
$USERR4
 40
0.0
  9
$USERR5
 40
0.0
  9
$WORLDVIEW
 70
     1
  9
$SHADEDGE
 70
     3
  9
$SHADEDIF
 70
    70
  9
$TILEMODE
 70
     1
  9
$MAXACTVP
 70
    64
  9
$PINSBASE
 10
0.0
 20
0.0
 30
0.0
  9
$PLIMCHECK
 70
     0
  9
$PEXTMIN
 10
1.0000000000E+20
 20
1.0000000000E+20
 30
1.0000000000E+20
  9
$PEXTMAX
 10
-1.0000000000E+20
 20
-1.0000000000E+20
 30
-1.0000000000E+20
  9
$PLIMMIN
 10
0.0
 20
0.0
  9
$PLIMMAX
 10
420.0
 20
297.0
  9
$UNITMODE
 70
     0
  9
$VISRETAIN
 70
     1
  9
$PLINEGEN
 70
     0
  9
$PSLTSCALE
 70
     1
  9
$TREEDEPTH
 70
  3020
  9
$CMLSTYLE
  2
Standard
  9
$CMLJUST
 70
     0
  9
$CMLSCALE
 40
20.0
  9
$PROXYGRAPHICS
 70
     1
  9
$MEASUREMENT
 70
     1
  9
$CELWEIGHT
370
    -1
  9
$ENDCAPS
280
     0
  9
$JOINSTYLE
280
     0
  9
$LWDISPLAY
290
     1
  9
$INSUNITS
 70
     4
  9
$HYPERLINKBASE
  1

  9
$STYLESHEET
  1

  9
$XEDIT
290
     1
  9
$CEPSNTYPE
380
     0
  9
$PSTYLEMODE
290
     1
  9
$FINGERPRINTGUID
  2
{f6570eee-2caa-4dc4-a3f2-e4579aa7df31}
  9
$VERSIONGUID
  2
{FAEB1C32-E019-11D5-929B-00C0DF256EC4}
  9
$EXTNAMES
290
     1
  9
$PSVPSCALE
 40
0.0
  9
$OLESTARTUP
290
     0
  0
ENDSEC
  0
SECTION
  2
CLASSES
  0
CLASS
  1
ACDBDICTIONARYWDFLT
  2
AcDbDictionaryWithDefault
  3
ObjectDBX Classes
 90
        0
280
     0
281
     0
  0
CLASS
  1
VISUALSTYLE
  2
AcDbVisualStyle
  3
ObjectDBX Classes
 90
     4095
280
     0
281
     0
  0
CLASS
  1
MATERIAL
  2
AcDbMaterial
  3
ObjectDBX Classes
 90
     1153
280
     0
281
     0
  0
CLASS
  1
SCALE
  2
AcDbScale
  3
ObjectDBX Classes
 90
     1153
280
     0
281
     0
  0
CLASS
  1
TABLESTYLE
  2
AcDbTableStyle
  3
ObjectDBX Classes
 90
     4095
280
     0
281
     0
  0
CLASS
  1
MLEADERSTYLE
  2
AcDbMLeaderStyle
  3
ACDB_MLEADERSTYLE_CLASS
 90
     4095
280
     0
281
     0
  0
CLASS
  1
SUN
  2
AcDbSun
  3
SCENEOE
 90
     1153
280
     0
281
     0
  0
CLASS
  1
ACDBPLACEHOLDER
  2
AcDbPlaceHolder
  3
ObjectDBX Classes
 90
        0
280
     0
281
     0
  0
CLASS
  1
LAYOUT
  2
AcDbLayout
  3
ObjectDBX Classes
 90
        0
280
     0
281
     0
  0
ENDSEC
  0
SECTION
  2
TABLES
  0
TABLE
  2
VPORT
  5
8
330
0
100
AcDbSymbolTable
 70
     1
  0
VPORT
  5
29
330
8
100
AcDbSymbolTableRecord
100
AcDbViewportTableRecord
  2
*Active
 70
     0
 10
0.0
 20
0.0
 11
1.0
 21
1.0
 12
0.485550481
 22
0.1545986948
 13
0.0
 23
0.0
 14
10.0
 24
10.0
 15
10.0
 25
10.0
 16
0.0
 26
0.0
 36
1.0
 17
0.0
 27
0.0
 37
0.0
 40
84.0629469408
 41
0.9959322144
 42
50.0
 43
0.0
 44
0.0
 50
0.0
 51
0.0
 71
     0
 72
   100
 73
     1
 74
     3
 75
     0
 76
     0
 77
     0
 78
     0
281
     0
 65
     1
110
0.0
120
0.0
130
0.0
111
1.0
121
0.0
131
0.0
112
0.0
122
1.0
132
0.0
 79
     0
146
0.0
  0
ENDTAB
  0
TABLE
  2
LTYPE
  5
5
330
0
100
AcDbSymbolTable
 70
     6
  0
LTYPE
  5
14
330
5
100
AcDbSymbolTableRecord
100
AcDbLinetypeTableRecord
  2
ByBlock
 70
     0
  3

 72
    65
 73
     0
 40
0.0
  0
LTYPE
  5
15
330
5
100
AcDbSymbolTableRecord
100
AcDbLinetypeTableRecord
  2
ByLayer
 70
     0
  3

 72
    65
 73
     0
 40
0.0
  0
LTYPE
  5
16
330
5
100
AcDbSymbolTableRecord
100
AcDbLinetypeTableRecord
  2
Continuous
 70
     0
  3
Solid line
 72
    65
 73
     0
 40
0.0
  0
LTYPE
  5
6E
330
5
100
AcDbSymbolTableRecord
100
AcDbLinetypeTableRecord
  2
HIDDEN
 70
     0
  3
Hidden __ __ __ __ __ __ __ __ __ __ __ __ __ __
 72
    65
 73
     2
 40
1.905
 49
1.27
 74
     0
 49
-0.635
 74
     0
  0
LTYPE
  5
6F
330
5
100
AcDbSymbolTableRecord
100
AcDbLinetypeTableRecord
  2
PHANTOM
 70
     0
  3
Phantom ______  __  __  ______  __  __  ______
 72
    65
 73
     6
 40
12.7
 49
6.35
 74
     0
 49
-1.27
 74
     0
 49
1.27
 74
     0
 49
-1.27
 74
     0
 49
1.27
 74
     0
 49
-1.27
 74
     0
  0
LTYPE
  5
70
330
5
100
AcDbSymbolTableRecord
100
AcDbLinetypeTableRecord
  2
CENTER
 70
     0
  3
Center ____ _ ____ _ ____ _ ____ _ ____ _ ____
 72
    65
 73
     4
 40
10.16
 49
6.35
 74
     0
 49
-1.27
 74
     0
 49
1.27
 74
     0
 49
-1.27
 74
     0
  0
LTYPE
  5
71
330
5
100
AcDbSymbolTableRecord
100
AcDbLinetypeTableRecord
  2
CENTERX2
 70
     0
  3
Center (2x) ________  __  ________  __  _____
 72
    65
 73
     4
 40
20.32
 49
12.7
 74
     0
 49
-2.54
 74
     0
 49
2.54
 74
     0
 49
-2.54
 74
     0
  0
LTYPE
  5
72
330
5
100
AcDbSymbolTableRecord
100
AcDbLinetypeTableRecord
  2
DOT2
 70
     0
  3
Dot (.5x) ........................................
 72
    65
 73
     2
 40
0.635
 49
0.0
 74
     0
 49
-0.635
 74
     0
  0
ENDTAB
  0
TABLE
  2
LAYER
  5
2
330
0
100
AcDbSymbolTable
 70
     1
  0
LAYER
  5
10
330
2
100
AcDbSymbolTableRecord
100
AcDbLayerTableRecord
  2
0
 70
     0
 62
     7
  6
Continuous
370
    -3
390
F
  0
ENDTAB
  0
TABLE
  2
STYLE
  5
3
330
0
100
AcDbSymbolTable
 70
     1
  0
STYLE
  5
11
330
3
100
AcDbSymbolTableRecord
100
AcDbTextStyleTableRecord
  2
Standard
 70
     0
 40
0.0
 41
1.0
 50
0.0
 71
     0
 42
3.5
  3
txt
  4

  0
ENDTAB
  0
TABLE
  2
VIEW
  5
6
330
0
100
AcDbSymbolTable
 70
     0
  0
ENDTAB
  0
TABLE
  2
UCS
  5
7
330
0
100
AcDbSymbolTable
 70
     0
  0
ENDTAB
  0
TABLE
  2
APPID
  5
9
330
0
100
AcDbSymbolTable
 70
     1
  0
APPID
  5
12
330
9
100
AcDbSymbolTableRecord
100
AcDbRegAppTableRecord
  2
ACAD
 70
     0
  0
ENDTAB
  0
TABLE
  2
DIMSTYLE
  5
A
330
0
100
AcDbSymbolTable
 70
     1
100
AcDbDimStyleTable
  0
DIMSTYLE
105
27
330
A
100
AcDbSymbolTableRecord
100
AcDbDimStyleTableRecord
  2
ISO-25
 70
     0
 41
2.5
 42
0.625
 43
3.75
 44
1.25
 73
     0
 74
     0
 77
     1
 78
     8
140
2.5
141
2.5
143
0.0393700787
147
0.625
171
     3
172
     1
178
     0
271
     2
272
     2
274
     3
278
    44
283
     0
284
     8
340
11
  0
ENDTAB
  0
TABLE
  2
BLOCK_RECORD
  5
1
330
0
100
AcDbSymbolTable
 70
     1
  0
BLOCK_RECORD
  5
1F
330
1
100
AcDbSymbolTableRecord
100
AcDbBlockTableRecord
  2
*Model_Space
340
22
  0
BLOCK_RECORD
  5
1B
330
1
100
AcDbSymbolTableRecord
100
AcDbBlockTableRecord
  2
*Paper_Space
340
1E
  0
BLOCK_RECORD
  5
23
330
1
100
AcDbSymbolTableRecord
100
AcDbBlockTableRecord
  2
*Paper_Space0
340
26
  0
ENDTAB
  0
ENDSEC
  0
SECTION
  2
BLOCKS
  0
BLOCK
  5
20
330
1F
100
AcDbEntity
  8
0
100
AcDbBlockBegin
  2
*Model_Space
 70
     0
 10
0.0
 20
0.0
 30
0.0
  3
*Model_Space
  1

  0
ENDBLK
  5
21
330
1F
100
AcDbEntity
  8
0
100
AcDbBlockEnd
  0
BLOCK
  5
1C
330
1B
100
AcDbEntity
 67
     1
  8
0
100
AcDbBlockBegin
  2
*Paper_Space
 70
     0
 10
0.0
 20
0.0
 30
0.0
  3
*Paper_Space
  1

  0
ENDBLK
  5
1D
330
1B
100
AcDbEntity
 67
     1
  8
0
100
AcDbBlockEnd
  0
BLOCK
  5
24
330
23
100
AcDbEntity
  8
0
100
AcDbBlockBegin
  2
*Paper_Space0
 70
     0
 10
0.0
 20
0.0
 30
0.0
  3
*Paper_Space0
  1

  0
ENDBLK
  5
25
330
23
100
AcDbEntity
  8
0
100
AcDbBlockEnd
  0
ENDSEC
  0
SECTION
  2
ENTITIES
  0
SPLINE
  5
73
330
1F
100
AcDbEntity
  8
0
  6
Continuous
 62
     7
370
    25
100
AcDbSpline
210
0.0
220
0.0
230
1.0
 70
     8
 71
     3
 72
   972
 73
   968
 74
     0
 42
0.000000001
 43
0.00000001
 40
0.0
 40
0.0
 40
0.0
 40
0.0
 40
0.00390625
 40
0.00390625
 40
0.0078125
 40
0.0078125
 40
0.01171875
 40
0.01171875
 40
0.015625
 40
0.015625
 40
0.01953125
 40
0.01953125
 40
0.0234375
 40
0.0234375
 40
0.02734375
 40
0.02734375
 40
0.03125
 40
0.03125
 40
0.03515625
 40
0.03515625
 40
0.0390625
 40
0.0390625
 40
0.04296875
 40
0.04296875
 40
0.046875
 40
0.046875
 40
0.05078125
 40
0.05078125
 40
0.0546875
 40
0.0546875
 40
0.05859375
 40
0.05859375
 40
0.0625
 40
0.0625
 40
0.06640625
 40
0.06640625
 40
0.0703125
 40
0.0703125
 40
0.07421875
 40
0.07421875
 40
0.078125
 40
0.078125
 40
0.08203125
 40
0.08203125
 40
0.0859375
 40
0.0859375
 40
0.08984375
 40
0.08984375
 40
0.09375
 40
0.09375
 40
0.09765625
 40
0.09765625
 40
0.1015625
 40
0.1015625
 40
0.1054687500000001
 40
0.1054687500000001
 40
0.1093750000000001
 40
0.1093750000000001
 40
0.1132812500000001
 40
0.1132812500000001
 40
0.1152343750000001
 40
0.1152343750000001
 40
0.1171875000000001
 40
0.1171875000000001
 40
0.1191406250000001
 40
0.1191406250000001
 40
0.1210937500000001
 40
0.1210937500000001
 40
0.1230468750000001
 40
0.1230468750000001
 40
0.1250000000000001
 40
0.1250000000000001
 40
0.1269531250000001
 40
0.1269531250000001
 40
0.1289062500000001
 40
0.1289062500000001
 40
0.1308593750000001
 40
0.1308593750000001
 40
0.1328125000000001
 40
0.1328125000000001
 40
0.1347656250000001
 40
0.1347656250000001
 40
0.1367187500000001
 40
0.1367187500000001
 40
0.1386718750000001
 40
0.1386718750000001
 40
0.1406250000000001
 40
0.1406250000000001
 40
0.1425781250000001
 40
0.1425781250000001
 40
0.1445312500000001
 40
0.1445312500000001
 40
0.1464843750000001
 40
0.1464843750000001
 40
0.1484375000000001
 40
0.1484375000000001
 40
0.1503906250000001
 40
0.1503906250000001
 40
0.1523437500000001
 40
0.1523437500000001
 40
0.1542968750000001
 40
0.1542968750000001
 40
0.1562500000000001
 40
0.1562500000000001
 40
0.1582031250000001
 40
0.1582031250000001
 40
0.1601562500000001
 40
0.1601562500000001
 40
0.1621093750000001
 40
0.1621093750000001
 40
0.1640625000000001
 40
0.1640625000000001
 40
0.1660156250000001
 40
0.1660156250000001
 40
0.1679687500000001
 40
0.1679687500000001
 40
0.1699218750000001
 40
0.1699218750000001
 40
0.1718750000000001
 40
0.1718750000000001
 40
0.1738281250000001
 40
0.1738281250000001
 40
0.1757812500000001
 40
0.1757812500000001
 40
0.1777343750000001
 40
0.1777343750000001
 40
0.1796875000000001
 40
0.1796875000000001
 40
0.1816406250000001
 40
0.1816406250000001
 40
0.1835937500000001
 40
0.1835937500000001
 40
0.1855468750000001
 40
0.1855468750000001
 40
0.1875000000000001
 40
0.1875000000000001
 40
0.1894531250000001
 40
0.1894531250000001
 40
0.1914062500000001
 40
0.1914062500000001
 40
0.1933593750000001
 40
0.1933593750000001
 40
0.1953125000000001
 40
0.1953125000000001
 40
0.1972656250000001
 40
0.1972656250000001
 40
0.1992187500000001
 40
0.1992187500000001
 40
0.2011718750000001
 40
0.2011718750000001
 40
0.2031250000000001
 40
0.2031250000000001
 40
0.2050781250000001
 40
0.2050781250000001
 40
0.2070312500000001
 40
0.2070312500000001
 40
0.2089843750000001
 40
0.2089843750000001
 40
0.2109375000000001
 40
0.2109375000000001
 40
0.2128906250000001
 40
0.2128906250000001
 40
0.2148437500000001
 40
0.2148437500000001
 40
0.2167968750000001
 40
0.2167968750000001
 40
0.2187500000000001
 40
0.2187500000000001
 40
0.2207031250000001
 40
0.2207031250000001
 40
0.2226562500000001
 40
0.2226562500000001
 40
0.2246093750000001
 40
0.2246093750000001
 40
0.2265625000000001
 40
0.2265625000000001
 40
0.2285156250000001
 40
0.2285156250000001
 40
0.2304687500000001
 40
0.2304687500000001
 40
0.2324218750000001
 40
0.2324218750000001
 40
0.2343750000000001
 40
0.2343750000000001
 40
0.2363281250000001
 40
0.2363281250000001
 40
0.2382812500000001
 40
0.2382812500000001
 40
0.2402343750000001
 40
0.2402343750000001
 40
0.2421875000000001
 40
0.2421875000000001
 40
0.2441406250000001
 40
0.2441406250000001
 40
0.2460937500000001
 40
0.2460937500000001
 40
0.2480468750000001
 40
0.2480468750000001
 40
0.2500000000000001
 40
0.2500000000000001
 40
0.2519531250000001
 40
0.2519531250000001
 40
0.2539062500000001
 40
0.2539062500000001
 40
0.2558593750000001
 40
0.2558593750000001
 40
0.2578125000000001
 40
0.2578125000000001
 40
0.2597656250000001
 40
0.2597656250000001
 40
0.2617187500000001
 40
0.2617187500000001
 40
0.2636718750000001
 40
0.2636718750000001
 40
0.2656250000000001
 40
0.2656250000000001
 40
0.2675781250000001
 40
0.2675781250000001
 40
0.2695312500000001
 40
0.2695312500000001
 40
0.2714843750000001
 40
0.2714843750000001
 40
0.2734375000000001
 40
0.2734375000000001
 40
0.2753906250000001
 40
0.2753906250000001
 40
0.2773437500000001
 40
0.2773437500000001
 40
0.2792968750000001
 40
0.2792968750000001
 40
0.2812500000000001
 40
0.2812500000000001
 40
0.2832031250000001
 40
0.2832031250000001
 40
0.2851562500000001
 40
0.2851562500000001
 40
0.2871093750000001
 40
0.2871093750000001
 40
0.2890625000000001
 40
0.2890625000000001
 40
0.2910156250000001
 40
0.2910156250000001
 40
0.2929687500000001
 40
0.2929687500000001
 40
0.2949218750000001
 40
0.2949218750000001
 40
0.2968750000000001
 40
0.2968750000000001
 40
0.2988281250000001
 40
0.2988281250000001
 40
0.3007812500000001
 40
0.3007812500000001
 40
0.3027343750000001
 40
0.3027343750000001
 40
0.3046875000000001
 40
0.3046875000000001
 40
0.3066406250000001
 40
0.3066406250000001
 40
0.3085937500000001
 40
0.3085937500000001
 40
0.3105468750000001
 40
0.3105468750000001
 40
0.3125000000000001
 40
0.3125000000000001
 40
0.3144531250000001
 40
0.3144531250000001
 40
0.3164062500000001
 40
0.3164062500000001
 40
0.3183593750000001
 40
0.3183593750000001
 40
0.3203125000000001
 40
0.3203125000000001
 40
0.3222656250000001
 40
0.3222656250000001
 40
0.3242187500000001
 40
0.3242187500000001
 40
0.3261718750000001
 40
0.3261718750000001
 40
0.3281250000000001
 40
0.3281250000000001
 40
0.3300781250000001
 40
0.3300781250000001
 40
0.3320312500000001
 40
0.3320312500000001
 40
0.3339843750000001
 40
0.3339843750000001
 40
0.3359375000000001
 40
0.3359375000000001
 40
0.3378906250000001
 40
0.3378906250000001
 40
0.3398437500000001
 40
0.3398437500000001
 40
0.3417968750000001
 40
0.3417968750000001
 40
0.3437500000000001
 40
0.3437500000000001
 40
0.3457031250000001
 40
0.3457031250000001
 40
0.3476562500000001
 40
0.3476562500000001
 40
0.3496093750000001
 40
0.3496093750000001
 40
0.3515625000000001
 40
0.3515625000000001
 40
0.3535156250000001
 40
0.3535156250000001
 40
0.3554687500000001
 40
0.3554687500000001
 40
0.3574218750000001
 40
0.3574218750000001
 40
0.3593750000000001
 40
0.3593750000000001
 40
0.3613281250000001
 40
0.3613281250000001
 40
0.3632812500000001
 40
0.3632812500000001
 40
0.3652343750000001
 40
0.3652343750000001
 40
0.3671875000000001
 40
0.3671875000000001
 40
0.3691406250000001
 40
0.3691406250000001
 40
0.3710937500000001
 40
0.3710937500000001
 40
0.3730468750000001
 40
0.3730468750000001
 40
0.3750000000000001
 40
0.3750000000000001
 40
0.3769531250000001
 40
0.3769531250000001
 40
0.3789062500000001
 40
0.3789062500000001
 40
0.3808593750000001
 40
0.3808593750000001
 40
0.3828125000000001
 40
0.3828125000000001
 40
0.3847656250000001
 40
0.3847656250000001
 40
0.3867187500000001
 40
0.3867187500000001
 40
0.3886718750000001
 40
0.3886718750000001
 40
0.3906250000000001
 40
0.3906250000000001
 40
0.3925781250000001
 40
0.3925781250000001
 40
0.3945312500000001
 40
0.3945312500000001
 40
0.3964843750000001
 40
0.3964843750000001
 40
0.3984375000000001
 40
0.3984375000000001
 40
0.4003906250000001
 40
0.4003906250000001
 40
0.4023437500000001
 40
0.4023437500000001
 40
0.4042968750000001
 40
0.4042968750000001
 40
0.4062500000000001
 40
0.4062500000000001
 40
0.4082031250000001
 40
0.4082031250000001
 40
0.4101562500000001
 40
0.4101562500000001
 40
0.4121093750000001
 40
0.4121093750000001
 40
0.4140625000000001
 40
0.4140625000000001
 40
0.4160156250000001
 40
0.4160156250000001
 40
0.4179687500000001
 40
0.4179687500000001
 40
0.4199218750000001
 40
0.4199218750000001
 40
0.4218750000000001
 40
0.4218750000000001
 40
0.4238281250000001
 40
0.4238281250000001
 40
0.4257812500000001
 40
0.4257812500000001
 40
0.4277343750000001
 40
0.4277343750000001
 40
0.4296875000000001
 40
0.4296875000000001
 40
0.4316406250000001
 40
0.4316406250000001
 40
0.4335937500000001
 40
0.4335937500000001
 40
0.4355468750000001
 40
0.4355468750000001
 40
0.4375000000000001
 40
0.4375000000000001
 40
0.4394531250000001
 40
0.4394531250000001
 40
0.4414062500000001
 40
0.4414062500000001
 40
0.4433593750000001
 40
0.4433593750000001
 40
0.4453125000000001
 40
0.4453125000000001
 40
0.4472656250000001
 40
0.4472656250000001
 40
0.4492187500000001
 40
0.4492187500000001
 40
0.4511718750000001
 40
0.4511718750000001
 40
0.4531250000000001
 40
0.4531250000000001
 40
0.4550781250000001
 40
0.4550781250000001
 40
0.4570312500000001
 40
0.4570312500000001
 40
0.4589843750000001
 40
0.4589843750000001
 40
0.4609375000000001
 40
0.4609375000000001
 40
0.4628906250000001
 40
0.4628906250000001
 40
0.4648437500000001
 40
0.4648437500000001
 40
0.4667968750000001
 40
0.4667968750000001
 40
0.4687500000000001
 40
0.4687500000000001
 40
0.4707031250000001
 40
0.4707031250000001
 40
0.4726562500000001
 40
0.4726562500000001
 40
0.4746093750000001
 40
0.4746093750000001
 40
0.4765625000000001
 40
0.4765625000000001
 40
0.4785156250000001
 40
0.4785156250000001
 40
0.4804687500000001
 40
0.4804687500000001
 40
0.4824218750000001
 40
0.4824218750000001
 40
0.4843750000000001
 40
0.4843750000000001
 40
0.4863281250000001
 40
0.4863281250000001
 40
0.4882812500000001
 40
0.4882812500000001
 40
0.4902343750000001
 40
0.4902343750000001
 40
0.4921875000000001
 40
0.4921875000000001
 40
0.4941406250000001
 40
0.4941406250000001
 40
0.4960937500000001
 40
0.4960937500000001
 40
0.4980468750000001
 40
0.4980468750000001
 40
0.5
 40
0.5
 40
0.501953125
 40
0.501953125
 40
0.50390625
 40
0.50390625
 40
0.505859375
 40
0.505859375
 40
0.5078125
 40
0.5078125
 40
0.509765625
 40
0.509765625
 40
0.51171875
 40
0.51171875
 40
0.513671875
 40
0.513671875
 40
0.515625
 40
0.515625
 40
0.517578125
 40
0.517578125
 40
0.51953125
 40
0.51953125
 40
0.521484375
 40
0.521484375
 40
0.5234375
 40
0.5234375
 40
0.525390625
 40
0.525390625
 40
0.52734375
 40
0.52734375
 40
0.529296875
 40
0.529296875
 40
0.53125
 40
0.53125
 40
0.533203125
 40
0.533203125
 40
0.53515625
 40
0.53515625
 40
0.537109375
 40
0.537109375
 40
0.5390625
 40
0.5390625
 40
0.541015625
 40
0.541015625
 40
0.54296875
 40
0.54296875
 40
0.544921875
 40
0.544921875
 40
0.546875
 40
0.546875
 40
0.548828125
 40
0.548828125
 40
0.55078125
 40
0.55078125
 40
0.552734375
 40
0.552734375
 40
0.5546875
 40
0.5546875
 40
0.556640625
 40
0.556640625
 40
0.55859375
 40
0.55859375
 40
0.560546875
 40
0.560546875
 40
0.5625
 40
0.5625
 40
0.564453125
 40
0.564453125
 40
0.56640625
 40
0.56640625
 40
0.568359375
 40
0.568359375
 40
0.5703125
 40
0.5703125
 40
0.572265625
 40
0.572265625
 40
0.57421875
 40
0.57421875
 40
0.576171875
 40
0.576171875
 40
0.578125
 40
0.578125
 40
0.580078125
 40
0.580078125
 40
0.58203125
 40
0.58203125
 40
0.583984375
 40
0.583984375
 40
0.5859375
 40
0.5859375
 40
0.587890625
 40
0.587890625
 40
0.58984375
 40
0.58984375
 40
0.591796875
 40
0.591796875
 40
0.59375
 40
0.59375
 40
0.595703125
 40
0.595703125
 40
0.59765625
 40
0.59765625
 40
0.599609375
 40
0.599609375
 40
0.6015625
 40
0.6015625
 40
0.603515625
 40
0.603515625
 40
0.60546875
 40
0.60546875
 40
0.607421875
 40
0.607421875
 40
0.609375
 40
0.609375
 40
0.611328125
 40
0.611328125
 40
0.61328125
 40
0.61328125
 40
0.615234375
 40
0.615234375
 40
0.6171875
 40
0.6171875
 40
0.619140625
 40
0.619140625
 40
0.62109375
 40
0.62109375
 40
0.623046875
 40
0.623046875
 40
0.625
 40
0.625
 40
0.626953125
 40
0.626953125
 40
0.62890625
 40
0.62890625
 40
0.630859375
 40
0.630859375
 40
0.6328125
 40
0.6328125
 40
0.634765625
 40
0.634765625
 40
0.63671875
 40
0.63671875
 40
0.638671875
 40
0.638671875
 40
0.640625
 40
0.640625
 40
0.642578125
 40
0.642578125
 40
0.64453125
 40
0.64453125
 40
0.646484375
 40
0.646484375
 40
0.6484375
 40
0.6484375
 40
0.650390625
 40
0.650390625
 40
0.65234375
 40
0.65234375
 40
0.654296875
 40
0.654296875
 40
0.65625
 40
0.65625
 40
0.658203125
 40
0.658203125
 40
0.66015625
 40
0.66015625
 40
0.662109375
 40
0.662109375
 40
0.6640625
 40
0.6640625
 40
0.666015625
 40
0.666015625
 40
0.66796875
 40
0.66796875
 40
0.669921875
 40
0.669921875
 40
0.671875
 40
0.671875
 40
0.673828125
 40
0.673828125
 40
0.67578125
 40
0.67578125
 40
0.677734375
 40
0.677734375
 40
0.6796875
 40
0.6796875
 40
0.681640625
 40
0.681640625
 40
0.68359375
 40
0.68359375
 40
0.685546875
 40
0.685546875
 40
0.6875
 40
0.6875
 40
0.689453125
 40
0.689453125
 40
0.69140625
 40
0.69140625
 40
0.693359375
 40
0.693359375
 40
0.6953125
 40
0.6953125
 40
0.697265625
 40
0.697265625
 40
0.69921875
 40
0.69921875
 40
0.701171875
 40
0.701171875
 40
0.703125
 40
0.703125
 40
0.705078125
 40
0.705078125
 40
0.70703125
 40
0.70703125
 40
0.708984375
 40
0.708984375
 40
0.7109375
 40
0.7109375
 40
0.712890625
 40
0.712890625
 40
0.71484375
 40
0.71484375
 40
0.716796875
 40
0.716796875
 40
0.71875
 40
0.71875
 40
0.720703125
 40
0.720703125
 40
0.72265625
 40
0.72265625
 40
0.724609375
 40
0.724609375
 40
0.7265625
 40
0.7265625
 40
0.728515625
 40
0.728515625
 40
0.73046875
 40
0.73046875
 40
0.732421875
 40
0.732421875
 40
0.734375
 40
0.734375
 40
0.736328125
 40
0.736328125
 40
0.73828125
 40
0.73828125
 40
0.740234375
 40
0.740234375
 40
0.7421875
 40
0.7421875
 40
0.744140625
 40
0.744140625
 40
0.74609375
 40
0.74609375
 40
0.748046875
 40
0.748046875
 40
0.7499999999999999
 40
0.7499999999999999
 40
0.7519531249999999
 40
0.7519531249999999
 40
0.7539062499999999
 40
0.7539062499999999
 40
0.7558593749999999
 40
0.7558593749999999
 40
0.7578124999999999
 40
0.7578124999999999
 40
0.7597656249999999
 40
0.7597656249999999
 40
0.7617187499999999
 40
0.7617187499999999
 40
0.7636718749999999
 40
0.7636718749999999
 40
0.7656249999999999
 40
0.7656249999999999
 40
0.7675781249999999
 40
0.7675781249999999
 40
0.7695312499999999
 40
0.7695312499999999
 40
0.7714843749999999
 40
0.7714843749999999
 40
0.7734374999999999
 40
0.7734374999999999
 40
0.7753906249999999
 40
0.7753906249999999
 40
0.7773437499999999
 40
0.7773437499999999
 40
0.7792968749999999
 40
0.7792968749999999
 40
0.7812499999999999
 40
0.7812499999999999
 40
0.7832031249999999
 40
0.7832031249999999
 40
0.7851562499999999
 40
0.7851562499999999
 40
0.7871093749999999
 40
0.7871093749999999
 40
0.7890624999999999
 40
0.7890624999999999
 40
0.7910156249999999
 40
0.7910156249999999
 40
0.7929687499999999
 40
0.7929687499999999
 40
0.7949218749999999
 40
0.7949218749999999
 40
0.7968749999999999
 40
0.7968749999999999
 40
0.7988281249999999
 40
0.7988281249999999
 40
0.8007812499999999
 40
0.8007812499999999
 40
0.8027343749999999
 40
0.8027343749999999
 40
0.8046874999999999
 40
0.8046874999999999
 40
0.8066406249999999
 40
0.8066406249999999
 40
0.8085937499999999
 40
0.8085937499999999
 40
0.8105468749999999
 40
0.8105468749999999
 40
0.8124999999999999
 40
0.8124999999999999
 40
0.8144531249999999
 40
0.8144531249999999
 40
0.8164062499999999
 40
0.8164062499999999
 40
0.8183593749999999
 40
0.8183593749999999
 40
0.8203124999999999
 40
0.8203124999999999
 40
0.8222656249999999
 40
0.8222656249999999
 40
0.8242187499999999
 40
0.8242187499999999
 40
0.8261718749999999
 40
0.8261718749999999
 40
0.8281249999999999
 40
0.8281249999999999
 40
0.8300781249999999
 40
0.8300781249999999
 40
0.8320312499999999
 40
0.8320312499999999
 40
0.8339843749999999
 40
0.8339843749999999
 40
0.8359374999999999
 40
0.8359374999999999
 40
0.8378906249999999
 40
0.8378906249999999
 40
0.8398437499999999
 40
0.8398437499999999
 40
0.8417968749999999
 40
0.8417968749999999
 40
0.8437499999999999
 40
0.8437499999999999
 40
0.8457031249999999
 40
0.8457031249999999
 40
0.8476562499999999
 40
0.8476562499999999
 40
0.8496093749999999
 40
0.8496093749999999
 40
0.8515624999999999
 40
0.8515624999999999
 40
0.8535156249999999
 40
0.8535156249999999
 40
0.8554687499999999
 40
0.8554687499999999
 40
0.8574218749999999
 40
0.8574218749999999
 40
0.8593749999999999
 40
0.8593749999999999
 40
0.8613281249999999
 40
0.8613281249999999
 40
0.8632812499999999
 40
0.8632812499999999
 40
0.8652343749999999
 40
0.8652343749999999
 40
0.8671874999999999
 40
0.8671874999999999
 40
0.8691406249999999
 40
0.8691406249999999
 40
0.8710937499999999
 40
0.8710937499999999
 40
0.8730468749999999
 40
0.8730468749999999
 40
0.8749999999999999
 40
0.8749999999999999
 40
0.8769531249999999
 40
0.8769531249999999
 40
0.8789062499999999
 40
0.8789062499999999
 40
0.8808593749999999
 40
0.8808593749999999
 40
0.8828124999999999
 40
0.8828124999999999
 40
0.8847656249999999
 40
0.8847656249999999
 40
0.8867187499999999
 40
0.8867187499999999
 40
0.8886718749999999
 40
0.8886718749999999
 40
0.8906249999999999
 40
0.8906249999999999
 40
0.8925781249999999
 40
0.8925781249999999
 40
0.8945312499999999
 40
0.8945312499999999
 40
0.8964843749999999
 40
0.8964843749999999
 40
0.8984374999999999
 40
0.8984374999999999
 40
0.9003906249999999
 40
0.9003906249999999
 40
0.9023437499999999
 40
0.9023437499999999
 40
0.9042968749999999
 40
0.9042968749999999
 40
0.9062499999999999
 40
0.9062499999999999
 40
0.9082031249999999
 40
0.9082031249999999
 40
0.9101562499999999
 40
0.9101562499999999
 40
0.9121093749999999
 40
0.9121093749999999
 40
0.9140624999999999
 40
0.9140624999999999
 40
0.9160156249999999
 40
0.9160156249999999
 40
0.9179687499999999
 40
0.9179687499999999
 40
0.9199218749999999
 40
0.9199218749999999
 40
0.9218749999999999
 40
0.9218749999999999
 40
0.9238281249999999
 40
0.9238281249999999
 40
0.9257812499999999
 40
0.9257812499999999
 40
0.9277343749999999
 40
0.9277343749999999
 40
0.9296874999999999
 40
0.9296874999999999
 40
0.9316406249999999
 40
0.9316406249999999
 40
0.9335937499999999
 40
0.9335937499999999
 40
0.9355468749999999
 40
0.9355468749999999
 40
0.9374999999999999
 40
0.9374999999999999
 40
0.9394531249999999
 40
0.9394531249999999
 40
0.9414062499999999
 40
0.9414062499999999
 40
0.9433593749999999
 40
0.9433593749999999
 40
0.9453124999999999
 40
0.9453124999999999
 40
0.9472656249999999
 40
0.9472656249999999
 40
0.9492187499999999
 40
0.9492187499999999
 40
0.9511718749999999
 40
0.9511718749999999
 40
0.9531249999999999
 40
0.9531249999999999
 40
0.9550781249999999
 40
0.9550781249999999
 40
0.9570312499999999
 40
0.9570312499999999
 40
0.9589843749999999
 40
0.9589843749999999
 40
0.9609374999999999
 40
0.9609374999999999
 40
0.9628906249999999
 40
0.9628906249999999
 40
0.9648437499999999
 40
0.9648437499999999
 40
0.9667968749999999
 40
0.9667968749999999
 40
0.9687499999999999
 40
0.9687499999999999
 40
0.9707031249999999
 40
0.9707031249999999
 40
0.9726562499999999
 40
0.9726562499999999
 40
0.9746093749999999
 40
0.9746093749999999
 40
0.9765624999999999
 40
0.9765624999999999
 40
0.9785156249999999
 40
0.9785156249999999
 40
0.9804687499999999
 40
0.9804687499999999
 40
0.9824218749999999
 40
0.9824218749999999
 40
0.9843749999999999
 40
0.9843749999999999
 40
0.9863281249999999
 40
0.9863281249999999
 40
0.9882812499999999
 40
0.9882812499999999
 40
0.9902343749999999
 40
0.9902343749999999
 40
0.9921874999999999
 40
0.9921874999999999
 40
0.9941406249999999
 40
0.9941406249999999
 40
0.9960937499999999
 40
0.9960937499999999
 40
0.9980468749999999
 40
0.9980468749999999
 40
1.0
 40
1.0
 40
1.0
 40
1.0
 10
0.3472963553338614
 20
1.969615506024416
 30
0.0
 10
0.0340629477059491
 20
2.077733809750853
 30
0.0
 10
-0.3192787073537166
 20
2.109515892921598
 30
0.0
 10
-1.022301837221611
 20
1.988998214949322
 30
0.0
 10
-1.371187496177522
 20
1.836437104957458
 30
0.0
 10
-1.969745828348845
 20
1.361810778035539
 30
0.0
 10
-2.218559630425045
 20
1.039925551282085
 30
0.0
 10
-2.536475732069531
 20
0.2899409651119711
 30
0.0
 10
-2.604892246984157
 20
-0.1375476809290393
 30
0.0
 10
-2.520661790395494
 20
-0.9987602922459985
 30
0.0
 10
-2.367708486215974
 20
-1.431574624438825
 30
0.0
 10
-1.854158265721365
 20
-2.190199440696389
 30
0.0
 10
-1.493751834864353
 20
-2.515026170068211
 30
0.0
 10
-0.6355716400523979
 20
-2.960520061968229
 30
0.0
 10
-0.1384751970030214
 20
-3.080391695953451
 30
0.0
 10
0.8791415642024729
 20
-3.062618118665078
 30
0.0
 10
1.398640966004806
 20
-2.924596455997931
 30
0.0
 10
2.32960587027699
 20
-2.399891831880518
 30
0.0
 10
2.73995347828934
 20
-2.013386182955045
 30
0.0
 10
3.336761482225362
 20
-1.066174100373861
 30
0.0
 10
3.522297456084285
 20
-0.5061946459525706
 30
0.0
 10
3.601006986860067
 20
0.6616257018238163
 30
0.0
 10
3.49370903901035
 20
1.268340784030105
 30
0.0
 10
2.98753615578222
 20
2.379928254154745
 30
0.0
 10
2.588800087887426
 20
2.883542873751272
 30
0.0
 10
1.575271876800465
 20
3.652740831298588
 30
0.0
 10
0.9612363660005492
 20
3.917254096397095
 30
0.0
 10
-0.3461968215624258
 20
4.121752845307666
 30
0.0
 10
-1.038374007011128
 20
4.061147551742317
 30
0.0
 10
-2.334629520555789
 20
3.604586085883057
 30
0.0
 10
-2.937308208603868
 20
3.208703930353747
 30
0.0
 10
-3.896850184973487
 20
2.154777709541756
 30
0.0
 10
-4.252483793257187
 20
1.497497186564183
 30
0.0
 10
-4.610785983852686
 20
0.065336412438196
 30
0.0
 10
-4.612721522576144
 20
-0.7082426156847811
 30
0.0
 10
-4.237693000217583
 20
-2.188793632745998
 30
0.0
 10
-3.860711061655964
 20
-2.894226003422351
 30
0.0
 10
-2.795102100248383
 20
-4.058527131402791
 30
0.0
 10
-2.107220416185527
 20
-4.515995814015165
 30
0.0
 10
-0.5693463699746611
 20
-5.054265232018227
 30
0.0
 10
0.2792815642512453
 20
-5.13416938732224
 30
0.0
 10
1.939224478614306
 20
-4.872864685657079
 30
0.0
 10
2.748865740503311
 20
-4.531518889614563
 30
0.0
 10
4.12843557419165
 20
-3.485284268558583
 30
0.0
 10
4.696786379934895
 20
-2.781095508077087
 30
0.0
 10
5.438799198515535
 20
-1.160418158258168
 30
0.0
 10
5.611382025470084
 20
-0.2453363134656913
 30
0.0
 10
5.495676124193715
 20
1.584520957189955
 30
0.0
 10
5.20710462905279
 20
2.497498457336665
 30
0.0
 10
4.213143880270624
 20
4.098630560700351
 30
0.0
 10
3.508380841170403
 20
4.785026170940121
 30
0.0
 10
1.831407173042114
 20
5.751663072521141
 30
0.0
 10
0.8606216312323617
 20
6.030626154326174
 30
0.0
 10
-1.125127112276397
 20
6.091488424017721
 30
0.0
 10
-2.138182052291206
 20
5.872933180269071
 30
0.0
 10
-3.96270482669017
 20
4.96545164127481
 30
0.0
 10
-4.772232881205478
 20
4.277048115299574
 30
0.0
 10
-5.981008052908802
 20
2.573521891122443
 30
0.0
 10
-6.378764586808226
 20
1.559815894479705
 30
0.0
 10
-6.578945909016206
 20
-0.0325633845214287
 30
0.0
 10
-6.580447024425583
 20
-0.5747884417504853
 30
0.0
 10
-6.449806301309245
 20
-1.649587837046883
 30
0.0
 10
-6.317659974359832
 20
-2.182095246857411
 30
0.0
 10
-5.924631058862781
 20
-3.204641730003185
 30
0.0
 10
-5.663760689123306
 20
-3.694614084621144
 30
0.0
 10
-5.026214728763708
 20
-4.601116873375951
 30
0.0
 10
-4.64956767472149
 20
-5.017584948168474
 30
0.0
 10
-3.800809873027547
 20
-5.749902017251959
 30
0.0
 10
-3.32874256527771
 20
-6.06569697891195
 30
0.0
 10
-2.315810106805006
 20
-6.575048220425939
 30
0.0
 10
-1.775000926917557
 20
-6.768562327650923
 30
0.0
 10
-0.6560735604194823
 20
-7.018746214519987
 30
0.0
 10
-0.0780206735749775
 20
-7.075388551333248
 30
0.0
 10
1.080914621597603
 20
-7.045291948965579
 30
0.0
 10
1.661726250079467
 20
-6.95854231054448
 30
0.0
 10
2.790765702206737
 20
-6.643772627172061
 30
0.0
 10
3.338921534832902
 20
-6.415759641544959
 30
0.0
 10
4.368460814880381
 20
-5.829279512244143
 30
0.0
 10
4.849775491614568
 20
-5.47083711938116
 30
0.0
 10
5.714797453509346
 20
-4.64254132143454
 30
0.0
 10
6.098443509819499
 20
-4.172729192198975
 30
0.0
 10
6.742613496908241
 20
-3.1479679407569
 30
0.0
 10
7.003087681195686
 20
-2.593074404526079
 30
0.0
 10
7.382399048376509
 20
-1.430192651400271
 30
0.0
 10
7.501201274273431
 20
-0.8222711844668962
 30
0.0
 10
7.586936501313615
 20
0.4107040242085165
 30
0.0
 10
7.553851790974908
 20
1.035683751925739
 30
0.0
 10
7.334662317604077
 20
2.26502036063032
 30
0.0
 10
7.148558524676416
 20
2.869300389529607
 30
0.0
 10
6.631517155031553
 20
4.01997049526081
 30
0.0
 10
6.300599537608825
 20
4.56628556934756
 30
0.0
 10
5.511140026800154
 20
5.56654299490712
 30
0.0
 10
5.052636220674775
 20
6.020416855978689
 30
0.0
 10
4.033361876461039
 20
6.806263936079103
 30
0.0
 10
3.472645555083353
 20
7.138179526116897
 30
0.0
 10
2.281058302670417
 20
7.657445398747524
 30
0.0
 10
1.65025468473137
 20
7.844752673598665
 30
0.0
 10
0.3555237705054072
 20
8.060524103339485
 30
0.0
 10
-0.3083270150980749
 20
8.08896279867063
 30
0.0
 10
-1.629375905150972
 20
7.982143686038449
 30
0.0
 10
-2.286492840315918
 20
7.846879864367441
 30
0.0
 10
-3.553935733860345
 20
7.417705230958448
 30
0.0
 10
-4.164180774282333
 20
7.123808583745912
 30
0.0
 10
-5.299830425509924
 20
6.392200147022454
 30
0.0
 10
-5.825159353578095
 20
5.954522201176896
 30
0.0
 10
-6.75738464572442
 20
4.959242070059507
 30
0.0
 10
-7.164215313397412
 20
4.40169168596691
 30
0.0
 10
-7.832448213010416
 20
3.198324059129218
 30
0.0
 10
-8.093798955559768
 20
2.552573715714805
 30
0.0
 10
-8.45244608244633
 20
1.210437273474372
 30
0.0
 10
-8.549708604719894
 20
0.5141293317018499
 30
0.0
 10
-8.571216109023547
 20
-0.8877092379187081
 30
0.0
 10
-8.495447251225725
 20
-1.593155052450016
 30
0.0
 10
-8.172315389896454
 20
-2.970537542555881
 30
0.0
 10
-7.924959772837694
 20
-3.642387840220635
 30
0.0
 10
-7.270564675457503
 20
-4.911116879557272
 30
0.0
 10
-6.863553726512692
 20
-5.507912954935158
 30
0.0
 10
-5.911704784159442
 20
-6.588896915770387
 30
0.0
 10
-5.366915083394884
 20
-7.07301098512453
 30
0.0
 10
-4.170152964761237
 20
-7.89718717805419
 30
0.0
 10
-3.518245978291002
 20
-8.237189017650795
 30
0.0
 10
-2.144963838010816
 20
-8.749919142334605
 30
0.0
 10
-1.423667533848844
 20
-8.922604604797035
 30
0.0
 10
0.0457882443711776
 20
-9.087263659952388
 30
0.0
 10
0.7938600580983746
 20
-9.079214813454874
 30
0.0
 10
2.271887862797283
 20
-8.879739533834503
 30
0.0
 10
3.001752608317539
 20
-8.68831276344216
 30
0.0
 10
4.398717817836762
 20
-8.130535665377682
 30
0.0
 10
5.065728983327817
 20
-7.764207491859375
 30
0.0
 10
6.295399095407194
 20
-6.875874316009009
 30
0.0
 10
6.85797619364068
 20
-6.353912974292227
 30
0.0
 10
7.842839343622836
 20
-5.183360481310343
 30
0.0
 10
8.265056132632598
 20
-4.534832176179314
 30
0.0
 10
8.941195233509037
 20
-3.148385117874599
 30
0.0
 10
9.195065314395782
 20
-2.410544860802434
 30
0.0
 10
9.516281992836163
 20
-0.8887705148692896
 30
0.0
 10
9.583596863837444
 20
-0.1049260199664387
 30
0.0
 10
9.524520457758983
 20
1.46204299598822
 30
0.0
 10
9.398120229102453
 20
2.245072130208869
 30
0.0
 10
8.956095123536892
 20
3.7628755259328
 30
0.0
 10
8.640484980249816
 20
4.497554351519947
 30
0.0
 10
7.836101181328164
 20
5.873286261593194
 30
0.0
 10
7.347365417458266
 20
6.514249697811663
 30
0.0
 10
6.223578302268813
 20
7.662143057611
 30
0.0
 10
5.588586046771621
 20
8.168994693427202
 30
0.0
 10
4.208456839404039
 20
9.015760243694682
 30
0.0
 10
3.463396904419324
 20
9.355612193875448
 30
0.0
 10
1.906570421273141
 20
9.845100219235562
 30
0.0
 10
1.094894380403979
 20
9.99469469307699
 30
0.0
 10
-0.5469902726480296
 20
10.09158396055132
 30
0.0
 10
-1.377100211009448
 20
10.03886037004387
 30
0.0
 10
-3.005801971237082
 20
9.731133774134793
 30
0.0
 10
-3.804292856799154
 20
9.476137078179775
 30
0.0
 10
-5.320846874982032
 20
8.776174116240735
 30
0.0
 10
-6.038812939769747
 20
8.331238840867067
 30
0.0
 10
-7.349542874044691
 20
7.275437129777709
 30
0.0
 10
-7.942219529696919
 20
6.664624843422798
 30
0.0
 10
-8.964518770768942
 20
5.311551574869514
 30
0.0
 10
-9.394069467653729
 20
4.569364939544367
 30
0.0
 10
-10.06159480362467
 20
2.996529109627955
 30
0.0
 10
-10.29951749399634
 20
2.165970219806252
 30
0.0
 10
-10.56646938880946
 20
0.4653921590911627
 30
0.0
 10
-10.59547004719027
 20
-0.4045260259979537
 30
0.0
 10
-10.43968477256409
 20
-2.131695170775926
 30
0.0
 10
-10.25489577881518
 20
-2.988840469589343
 30
0.0
 10
-9.679543265367563
 20
-4.638334895921949
 30
0.0
 10
-9.289002725634594
 20
-5.430580065387052
 30
0.0
 10
-8.322766226578759
 20
-6.901313316160397
 30
0.0
 10
-7.747118260460646
 20
-7.579705507094717
 30
0.0
 10
-6.442822902704113
 20
-8.779962394437465
 30
0.0
 10
-5.714245947795477
 20
-9.301745230459456
 30
0.0
 10
-4.145997528184232
 20
-10.15489257889496
 30
0.0
 10
-3.306414967405899
 20
-10.48619445042018
 30
0.0
 10
-1.565402206443117
 20
-10.93555557116045
 30
0.0
 10
-0.6640742180485624
 20
-11.05357548769073
 30
0.0
 10
1.146728549438179
 20
-11.06615936145226
 30
0.0
 10
2.056093852115112
 20
-10.96071001700633
 30
0.0
 10
3.828016130234296
 20
-10.52955176078772
 30
0.0
 10
4.690462934550336
 20
-10.20385675015488
 30
0.0
 10
6.315659626024131
 20
-9.34880732489162
 30
0.0
 10
7.078305349659292
 20
-8.819493542348598
 30
0.0
 10
8.456319049133054
 20
-7.58638905661405
 30
0.0
 10
9.071595296117732
 20
-6.882663607534504
 30
0.0
 10
10.11556009612539
 20
-5.340902482355778
 30
0.0
 10
10.54417511054205
 20
-4.502953043252938
 30
0.0
 10
11.18627913251084
 20
-2.741606809014452
 30
0.0
 10
11.39971751538319
 20
-1.818312266218346
 30
0.0
 10
11.59558141088857
 20
0.0590131042209435
 30
0.0
 10
11.57798260248416
 20
1.012931674446244
 30
0.0
 10
11.30967276635977
 20
2.89418788854766
 30
0.0
 10
11.0589655525245
 20
3.821409969777637
 30
0.0
 10
10.3364402718926
 20
5.592793905670304
 30
0.0
 10
9.864654294595427
 20
6.436843882034521
 30
0.0
 10
8.72553390325429
 20
7.989681317438468
 30
0.0
 10
8.058258273862952
 20
8.698367439112895
 30
0.0
 10
6.565911089593119
 20
9.93577666999372
 30
0.0
 10
5.740921787080938
 20
10.46441528635324
 30
0.0
 10
3.980960128944195
 20
11.30734224659213
 30
0.0
 10
3.046088794687301
 20
11.62156830114065
 30
0.0
 10
1.121467469319064
 20
12.01381777115234
 30
0.0
 10
0.1318313663578796
 20
12.09180517634164
 30
0.0
 10
-1.843171370378856
 20
12.00374896655238
 30
0.0
 10
-2.82841801033824
 20
11.83769814766043
 30
0.0
 10
-4.734985349658833
 20
11.26841761990173
 30
0.0
 10
-5.656187168206968
 20
10.86521031895469
 30
0.0
 10
-7.378111708305979
 20
9.842922850412208
 30
0.0
 10
-8.178723904008747
 20
9.223893715535374
 30
0.0
 10
-9.609488661712648
 20
7.804615283103097
 30
0.0
 10
-10.23954587703492
 20
7.004442901344236
 30
0.0
 10
-11.28890699048113
 20
5.268945738051148
 30
0.0
 10
-11.70813670655521
 20
4.333719404312603
 30
0.0
 10
-12.30780139009461
 20
2.382948191146046
 30
0.0
 10
-12.48818811188054
 20
1.367517576341054
 30
0.0
 10
-12.59623141978902
 20
-0.6832765210875494
 30
0.0
 10
-12.52386894911282
 20
-1.718516670093192
 30
0.0
 10
-12.1276052306655
 20
-3.746583581843876
 30
0.0
 10
-11.80371563168314
 20
-4.739285324068691
 30
0.0
 10
-10.92083107744993
 20
-6.621723254703244
 30
0.0
 10
-10.3618781441253
 20
-7.51134031019194
 30
0.0
 10
-9.039734232755258
 20
-9.132542753182273
 30
0.0
 10
-8.27661346617085
 20
-9.86402220341512
 30
0.0
 10
-6.589741273278023
 20
-11.12277360545876
 30
0.0
 10
-5.666084324005391
 20
-11.64995940919056
 30
0.0
 10
-3.711999916585502
 20
-12.46574420850181
 30
0.0
 10
-2.681685754881098
 20
-12.75428231439402
 30
0.0
 10
-0.5752605476768826
 20
-13.07241467427943
 30
0.0
 10
0.5007250368977929
 20
-13.10197729570991
 30
0.0
 10
2.63401443640084
 20
-12.89722585908973
 30
0.0
 10
3.691188098862774
 20
-12.66291169326292
 30
0.0
 10
5.722734057983556
 20
-11.94138129977668
 30
0.0
 10
6.696979356491805
 20
-11.45419686752325
 30
0.0
 10
8.502796206810899
 20
-10.25333230613504
 30
0.0
 10
9.334251660611308
 20
-9.539714319744425
 30
0.0
 10
10.80254014315049
 20
-7.926403735348751
 30
0.0
 10
11.4392751475215
 20
-7.026800209624035
 30
0.0
 10
12.4773369447795
 20
-5.093670997239238
 30
0.0
 10
12.8785899452806
 20
-4.060256219096956
 30
0.0
 10
13.41866505987458
 20
-1.920367139411826
 30
0.0
 10
13.55744237066156
 20
-0.8140191043952846
 30
0.0
 10
13.56110261388098
 20
1.405747860957639
 30
0.0
 10
13.42597278278693
 20
2.519032651780214
 30
0.0
 10
12.88678813167899
 20
4.685494717912719
 30
0.0
 10
12.48275372747207
 20
5.738538028879999
 30
0.0
 10
11.42704997432575
 20
7.720202372490955
 30
0.0
 10
10.77543335818451
 20
8.648697744383421
 30
0.0
 10
9.261073329068669
 20
10.32374118249571
 30
0.0
 10
8.398412131674093
 20
11.07017960711095
 30
0.0
 10
6.51165199995028
 20
12.33393301419662
 30
0.0
 10
5.487660108214914
 20
12.85116120343328
 30
0.0
 10
3.338249780018129
 20
13.62263912268707
 30
0.0
 10
2.21295699858784
 20
13.87683042596935
 30
0.0
 10
-0.0722379640707168
 20
14.10389916182475
 30
0.0
 10
-1.232003290794152
 20
14.07675039151345
 30
0.0
 10
-3.516487914298076
 20
13.73960599888502
 30
0.0
 10
-4.641067331237724
 20
13.42961834160684
 30
0.0
 10
-6.786869993503842
 20
12.54234487840752
 30
0.0
 10
-7.807958780741229
 20
11.96510109733148
 30
0.0
 10
-9.683963539469746
 20
10.57519349049956
 30
0.0
 10
-10.53875868458508
 20
9.762603573433706
 30
0.0
 10
-12.02871399636459
 20
7.948461697875937
 30
0.0
 10
-12.66377444007387
 20
6.947011397982573
 30
0.0
 10
-13.67348925967522
 20
4.813535140013812
 30
0.0
 10
-14.04807128788551
 20
3.681632728572151
 30
0.0
 10
-14.51135354946852
 20
1.354164423768833
 30
0.0
 10
-14.60001348884584
 20
0.1587367127493648
 30
0.0
 10
-14.48297747534579
 20
-2.224299744769448
 30
0.0
 10
-14.27727606621842
 20
-3.411763890467599
 30
0.0
 10
-13.58074011626658
 20
-5.707095173384854
 30
0.0
 10
-13.08993565765954
 20
-6.814819984894021
 30
0.0
 10
-11.84974451949622
 20
-8.882937155018796
 30
0.0
 10
-11.10042201361246
 20
-9.843198110205867
 30
0.0
 10
-9.38565226393735
 20
-11.55683426581432
 30
0.0
 10
-8.420299755916849
 20
-12.31009706064265
 30
0.0
 10
-6.329434636698248
 20
-13.56205373726759
 30
0.0
 10
-5.204041904205844
 20
-14.06066121923497
 30
0.0
 10
-2.859325961018909
 20
-14.77050256095366
 30
0.0
 10
-1.640140772278229
 20
-14.98168153068409
 30
0.0
 10
0.8195627695269696
 20
-15.10087887902673
 30
0.0
 10
2.059933129176943
 20
-15.00887752818178
 30
0.0
 10
4.487365192450677
 20
-14.5240766871962
 30
0.0
 10
5.674277791338268
 20
-14.13129418518649
 30
0.0
 10
7.922599634424489
 20
-13.06548803865909
 30
0.0
 10
8.983867680614047
 20
-12.3925174473836
 30
0.0
 10
10.91554263231978
 20
-10.80403133573289
 30
0.0
 10
11.78582487713335
 20
-9.888602088918866
 30
0.0
 10
13.28102844014859
 20
-7.867930971686491
 30
0.0
 10
13.9058493507274
 20
-6.762803708466374
 30
0.0
 10
14.86989361337896
 20
-4.427470723543006
 30
0.0
 10
15.2090471347917
 20
-3.197401289955937
 30
0.0
 10
15.57835995974939
 20
-0.6851289362625949
 30
0.0
 10
15.60848454422954
 20
0.5969240477976777
 30
0.0
 10
15.35476694561537
 20
3.136333702025799
 30
0.0
 10
15.0709276077107
 20
4.393535728136106
 30
0.0
 10
14.20321933418584
 20
6.807133220045069
 30
0.0
 10
13.61939100941191
 20
7.963378647596564
 30
0.0
 10
12.18389838569132
 20
10.1042790974614
 30
0.0
 10
11.33231037902816
 20
11.08879781412793
 30
0.0
 10
9.409984567993346
 20
12.82511789186354
 30
0.0
 10
8.339354471452681
 20
13.57680506458349
 30
0.0
 10
6.041344466294343
 20
14.799781310664
 30
0.0
 10
4.814097470788006
 20
15.27098544014103
 30
0.0
 10
2.275332072380526
 20
15.9017745485887
 30
0.0
 10
0.9639639907419599
 20
16.06130925363239
 30
0.0
 10
-1.664767172477146
 20
16.05604586630969
 30
0.0
 10
-2.981971451445211
 20
15.89123554856755
 30
0.0
 10
-5.542973305591039
 20
15.24402450257029
 30
0.0
 10
-6.786613123209706
 20
14.76165070478925
 30
0.0
 10
-9.12474511895782
 20
13.50529262375987
 30
0.0
 10
-10.21909013910758
 20
12.7313731740204
 30
0.0
 10
-12.19116331585841
 20
10.93575760152326
 30
0.0
 10
-13.06876391810418
 20
9.914160655813673
 30
0.0
 10
-14.55230593226784
 20
7.682401517544777
 30
0.0
 10
-15.15814729632454
 20
6.472367173176843
 30
0.0
 10
-16.0589991128633
 20
3.934892751021759
 30
0.0
 10
-16.35394333655548
 20
2.607601730957445
 30
0.0
 10
-16.61221691276094
 20
-0.0854628239203788
 30
0.0
 10
-16.57551818054273
 20
-1.451074907142069
 30
0.0
 10
-16.16953923141028
 20
-4.138787940048499
 30
0.0
 10
-15.80027113068916
 20
-5.46072469269786
 30
0.0
 10
-14.74824948492242
 20
-7.980946081337421
 30
0.0
 10
-14.06554790006759
 20
-9.179073679447844
 30
0.0
 10
-12.42485307774491
 20
-11.37824576150093
 30
0.0
 10
-11.46694887300443
 20
-12.3791499300573
 30
0.0
 10
-9.33101230615871
 20
-14.12165132273547
 30
0.0
 10
-8.153101008884166
 20
-14.86313359379453
 30
0.0
 10
-5.646110151083419
 20
-16.03963627275831
 30
0.0
 10
-4.317176662457072
 20
-16.47457427463037
 30
0.0
 10
-1.586861378218714
 20
-17.00888932778468
 30
0.0
 10
-0.1856420591408002
 20
-17.10822180135003
 30
0.0
 10
2.605428119160089
 20
-16.96220598413919
 30
0.0
 10
3.995109770597006
 20
-16.71685398477639
 30
0.0
 10
6.67920499711092
 20
-15.89306261263141
 30
0.0
 10
7.973452801581078
 20
-15.31466099636439
 30
0.0
 10
10.38776260173162
 20
-13.85656618858023
 30
0.0
 10
11.50767231640299
 20
-12.97695031168954
 30
0.0
 10
13.504179869916
 20
-10.96668924477159
 30
0.0
 10
14.3806482442503
 20
-9.836156610489553
 30
0.0
 10
15.835200484054
 20
-7.389923535345455
 30
0.0
 10
16.41318573191474
 20
-6.074364404099073
 30
0.0
 10
17.23320373181271
 20
-3.335703730891763
 30
0.0
 10
17.47517494948765
 20
-1.912763968215308
 30
0.0
 10
17.60552633826443
 20
0.955849017966487
 30
0.0
 10
17.49388610725074
 20
2.401349588260576
 30
0.0
 10
16.92054814372694
 20
5.228146803057363
 30
0.0
 10
16.45887273868984
 20
6.609270258607853
 30
0.0
 10
15.21014499986825
 20
9.22347601414575
 30
0.0
 10
14.42315675064184
 20
10.45639505103624
 30
0.0
 10
12.56832843871043
 20
12.69854251145735
 30
0.0
 10
11.50059071166688
 20
13.70762755085159
 30
0.0
 10
9.146120670094954
 20
15.43928327483844
 30
0.0
 10
7.859523092927349
 20
16.16173929226425
 30
0.0
 10
5.142941530500502
 20
17.27404301825612
 30
0.0
 10
3.713116825030895
 20
17.66381195518936
 30
0.0
 10
0.7949973248484284
 20
18.08430524521937
 30
0.0
 10
-0.6931230586975714
 20
18.11499179274918
 30
0.0
 10
-3.63865296765077
 20
17.812308032141
 30
0.0
 10
-5.095883357409533
 20
17.47894352215843
 30
0.0
 10
-7.891532382106672
 20
16.46505736859495
 30
0.0
 10
-9.229777938701218
 20
15.78458515130064
 30
0.0
 10
-11.70576198811182
 20
14.11446446524767
 30
0.0
 10
-12.84334396764456
 20
13.1249064383119
 30
0.0
 10
-14.84769564057659
 20
10.89356540063794
 30
0.0
 10
-15.71433498164554
 20
9.651908733281244
 30
0.0
 10
-17.12222567654853
 20
6.989017935349354
 30
0.0
 10
-17.66338093500142
 20
5.567938722479175
 30
0.0
 10
-18.3848840373028
 20
2.630297005349349
 30
0.0
 10
-18.56517613660323
 20
1.113908877088628
 30
0.0
 10
-18.55098911873841
 20
-1.923786483996661
 30
0.0
 10
-18.35649831434817
 20
-3.444910251110311
 30
0.0
 10
-17.60126087346155
 20
-6.400451893269457
 30
0.0
 10
-17.04054768210642
 20
-7.83468821753942
 30
0.0
 10
-15.58353527319397
 20
-10.52928786542469
 30
0.0
 10
-14.68731298985627
 20
-11.78948253383175
 30
0.0
 10
-12.61044187397783
 20
-14.0585854492211
 30
0.0
 10
-11.42990917995336
 20
-15.06734822909733
 30
0.0
 10
-8.853151035139394
 20
-16.77067885033901
 30
0.0
 10
-7.457074238138769
 20
-17.4651333892158
 30
0.0
 10
-4.531535722025382
 20
-18.49535910303955
 30
0.0
 10
-3.002246463326941
 20
-18.83105624714163
 30
0.0
 10
0.0986876837701494
 20
-19.12053466369712
 30
0.0
 10
1.670146523489857
 20
-19.07428596957203
 30
0.0
 10
4.761087965798795
 20
-18.59947246393555
 30
0.0
 10
6.280382054157999
 20
-18.17092391977149
 30
0.0
 10
9.175022169171008
 20
-16.95415409143732
 30
0.0
 10
10.55018857815455
 20
-16.16599470280364
 30
0.0
 10
13.07252798353221
 20
-14.27451266499019
 30
0.0
 10
14.21954117552952
 20
-13.17129417257514
 30
0.0
 10
16.21458864910637
 20
-10.71356291444148
 30
0.0
 10
17.06249274751519
 20
-9.359190619785743
 30
0.0
 10
18.40578328584143
 20
-6.478685162152942
 30
0.0
 10
18.90107726137522
 20
-4.952720596341964
 30
0.0
 10
19.50642510610086
 20
-1.819558332668486
 30
0.0
 10
19.61643011385423
 20
-0.2125474055322279
 30
0.0
 10
19.44143449293259
 20
2.98655649355074
 30
0.0
 10
19.15643190333436
 20
4.57845565072642
 30
0.0
 10
18.20538510899624
 20
7.651314820836996
 30
0.0
 10
17.5393863350693
 20
9.132085618268016
 30
0.0
 10
15.86338785766433
 20
11.89258804844434
 30
0.0
 10
14.85347860976661
 20
13.17214652260012
 30
0.0
 10
12.54772622560584
 20
15.45152547401769
 30
0.0
 10
11.25201346506217
 20
16.45119942785803
 30
0.0
 10
8.45041243399256
 20
18.10834723084046
 30
0.0
 10
6.944686903992433
 20
18.76571024459447
 30
0.0
 10
3.812081500764753
 20
19.69590490267175
 30
0.0
 10
2.185387164152378
 20
19.9686683682912
 30
0.0
 10
-1.09213526640601
 20
20.11017379750212
 30
0.0
 10
-2.742766047344324
 20
19.97889468631969
 30
0.0
 10
-5.968928413664163
 20
19.31701960025764
 30
0.0
 10
-7.544262725877444
 20
18.78645129219318
 30
0.0
 10
-10.52435239386701
 20
17.35480196107741
 30
0.0
 10
-11.92892242145844
 20
16.45379605390007
 30
0.0
 10
-14.48154239059494
 20
14.33262554168798
 30
0.0
 10
-15.62943022456973
 20
13.112579334415
 30
0.0
 10
-17.59753810952821
 20
10.42431036850353
 30
0.0
 10
-18.41762923380111
 20
8.95624247738832
 30
0.0
 10
-19.67819242313328
 20
5.85841233745799
 30
0.0
 10
-20.11857677558704
 20
4.228832360105736
 30
0.0
 10
-20.59025053068934
 20
0.9048657134341431
 30
0.0
 10
-20.62149904126883
 20
-0.7893220695973238
 30
0.0
 10
-20.26984911866666
 20
-4.140972233275599
 30
0.0
 10
-19.88695943660617
 20
-5.798230986682966
 30
0.0
 10
-18.72689540300406
 20
-8.975931544168285
 30
0.0
 10
-17.94977929318929
 20
-10.49617722980597
 30
0.0
 10
-16.04503054480395
 20
-13.30724487876232
 30
0.0
 10
-14.91750249759574
 20
-14.5978901211611
 30
0.0
 10
-12.37714623328265
 20
-16.87027338928957
 30
0.0
 10
-10.9644629951098
 20
-17.85186489870759
 30
0.0
 10
-7.936691404404358
 20
-19.44467004243308
 30
0.0
 10
-6.321779974170229
 20
-20.05577642986184
 30
0.0
 10
-2.985261938318055
 20
-20.86799352601694
 30
0.0
 10
-1.263853763435288
 20
-21.06904301957406
 30
0.0
 10
2.182805795516182
 20
-21.0459323711671
 30
0.0
 10
3.907849050775418
 20
-20.82176108012877
 30
0.0
 10
7.257930480947885
 20
-19.95849724435282
 30
0.0
 10
8.882763311869006
 20
-19.31944465942367
 30
0.0
 10
11.93383061189144
 20
-17.66177792262816
 30
0.0
 10
13.35987492855592
 20
-16.64325280569215
 30
0.0
 10
15.9260075825838
 20
-14.2851261464324
 30
0.0
 10
17.06593254009055
 20
-12.94565770409294
 30
0.0
 10
18.98905176841023
 20
-10.02390055273389
 30
0.0
 10
19.772119482107
 20
-8.44178130310083
 30
0.0
 10
20.93171909321575
 20
-5.128178693029148
 30
0.0
 10
21.30816915772779
 20
-3.39689119569643
 30
0.0
 10
21.6288524146333
 20
0.1119125436199273
 30
0.0
 10
21.57305375860131
 20
1.889218139837769
 30
0.0
 10
21.02940569646081
 20
5.383387991549214
 30
0.0
 10
20.5415767088538
 20
7.100039415618149
 30
0.0
 10
19.16005869795219
 20
10.3690982570046
 30
0.0
 10
18.26644150553969
 20
11.92130347686127
 30
0.0
 10
16.12417225223546
 20
14.76681020556349
 30
0.0
 10
14.87563947214597
 20
16.05993242100165
 30
0.0
 10
12.09611352272437
 20
18.30752597547718
 30
0.0
 10
10.56528023068732
 20
19.26185190123585
 30
0.0
 10
7.311260173222545
 20
20.77193029892453
 30
0.0
 10
5.588264530226759
 20
21.3275802481201
 30
0.0
 10
2.052255287118248
 20
22.00396088441703
 30
0.0
 10
0.2394527519238049
 20
22.12463842635843
 30
0.0
 10
-3.36768486794124
 20
21.92066300172601
 30
0.0
 10
-5.161801530855846
 20
21.59600982189232
 30
0.0
 10
-8.623424644563082
 20
20.51770760536106
 30
0.0
 10
-10.29071843495508
 20
19.76411167377415
 30
0.0
 10
-13.39741349515717
 20
17.87020952674834
 30
0.0
 10
-14.83662072879713
 20
16.73000690784378
 30
0.0
 10
-17.39887107811927
 20
14.12876320644019
 30
0.0
 10
-18.52175061146575
 20
12.66787031963477
 30
0.0
 10
-20.38149397762692
 20
9.510901332639655
 30
0.0
 10
-21.11823475727424
 20
7.815009403885672
 30
0.0
 10
-22.15860607353079
 20
4.288459270637613
 30
0.0
 10
-22.46216178709475
 20
2.458010360089602
 30
0.0
 10
-22.61482125673984
 20
-1.228421514845381
 30
0.0
 10
-22.46390326538868
 20
-3.084182506427918
 30
0.0
 10
-21.71349105678839
 20
-6.709710024270811
 30
0.0
 10
-21.11402984569652
 20
-8.47925519314704
 30
0.0
 10
-19.49945892228657
 20
-11.82522877358828
 30
0.0
 10
-18.48443535715831
 20
-13.40144979188064
 30
0.0
 10
-16.09692264466553
 20
-16.26454226973253
 30
0.0
 10
-14.72456795716302
 20
-17.55123289828797
 30
0.0
 10
-11.702500066912
 20
-19.75579294421805
 30
0.0
 10
-10.05296186184943
 20
-20.67351917533789
 30
0.0
 10
-6.57388314441563
 20
-22.08234182801039
 30
0.0
 10
-4.744547895180731
 20
-22.57334159598469
 30
0.0
 10
-1.014734102020016
 20
-23.09619581615929
 30
0.0
 10
0.8855210804973768
 20
-23.12800628978845
 30
0.0
 10
4.643291498900724
 20
-22.72739020519226
 30
0.0
 10
6.500578615956412
 20
-22.29497535105391
 30
0.0
 10
10.0603307062299
 20
-20.98873343741317
 30
0.0
 10
11.76257652091074
 20
-20.11497343507795
 30
0.0
 10
14.90872776941283
 20
-17.97559662436023
 30
0.0
 10
16.35243627467772
 20
-16.71009855687948
 30
0.0
 10
18.89285113800262
 20
-13.86072706592724
 30
0.0
 10
19.98939481576956
 20
-12.27701725693849
 30
0.0
 10
21.76711440831756
 20
-8.88436487345951
 30
0.0
 10
22.44817192472223
 20
-7.075621225861437
 30
0.0
 10
23.35110301473103
 20
-3.340226871286917
 30
0.0
 10
23.5729099025449
 20
-1.413798649781943
 30
0.0
 10
23.54087562359581
 20
2.441825107035712
 30
0.0
 10
23.28702384590936
 20
4.37078785044053
 30
0.0
 10
22.31573361524407
 20
8.115409068626317
 30
0.0
 10
21.59834163674084
 20
9.930838406198717
 30
0.0
 10
19.74002057206228
 20
13.33837335835831
 30
0.0
 10
18.59919262152812
 20
14.93026732327997
 30
0.0
 10
15.95981041888709
 20
17.7934297159464
 30
0.0
 10
14.46140622823266
 20
19.06451685108368
 30
0.0
 10
11.19465007032854
 20
21.20742468648139
 30
0.0
 10
9.426488368062595
 20
22.07910557499832
 30
0.0
 10
5.724821664032604
 20
23.36807908339203
 30
0.0
 10
3.791535928065914
 20
23.78528206831394
 30
0.0
 10
-0.1251374034697113
 20
24.13717016556949
 30
0.0
 10
-2.108289756185691
 20
24.07182154763061
 30
0.0
 10
-6.005688017299642
 20
23.45933892898605
 30
0.0
 10
-7.91969677707814
 20
22.91222949793618
 30
0.0
 10
-11.56317434483804
 20
21.36596330446718
 30
0.0
 10
-13.29241837556783
 20
20.36688830827582
 30
0.0
 10
-16.46109242759465
 20
17.97383183948084
 30
0.0
 10
-17.90032366647398
 20
16.57998477171655
 30
0.0
 10
-20.40046330184816
 20
13.47866413100699
 30
0.0
 10
-21.46121105495652
 20
11.77136984158889
 30
0.0
 10
-23.13807731200766
 20
8.143835184292048
 30
0.0
 10
-23.75408323486496
 20
6.223808464111648
 30
0.0
 10
-24.50149666273322
 20
2.284952241568005
 30
0.0
 10
-24.63284673886263
 20
0.2663580983152359
 30
0.0
 10
-24.39989151051941
 20
-3.748813242331887
 30
0.0
 10
-24.03558774045032
 20
-5.745147410985103
 30
0.0
 10
-22.83003010172594
 20
-9.595534468289006
 30
0.0
 10
-21.98883701247908
 20
-11.44935125164199
 30
0.0
 10
-19.87703119583247
 20
-14.90223894186985
 30
0.0
 10
-18.60653520592074
 20
-16.50109493499439
 30
0.0
 10
-15.7098001872743
 20
-19.34621668222107
 30
0.0
 10
-14.08372717420738
 20
-20.59230179507349
 30
0.0
 10
-10.57139023128675
 20
-22.65464072441338
 30
0.0
 10
-8.685331903778897
 20
-23.470759269954
 30
0.0
 10
-4.764837040510464
 20
-24.62130724438985
 30
0.0
 10
-2.730633556026677
 20
-24.95565520589831
 30
0.0
 10
1.364707763284901
 20
-25.11946871597755
 30
0.0
 10
3.425598965511663
 20
-24.94891184445764
 30
0.0
 10
7.450491634877608
 20
-24.1099625133191
 30
0.0
 10
9.414247660416649
 20
-23.44160839919986
 30
0.0
 10
13.12610515330956
 20
-21.64411588349571
 30
0.0
 10
14.87397716230285
 20
-20.51507466041653
 30
0.0
 10
18.04754214887011
 20
-17.86121974764306
 30
0.0
 10
19.47303557200621
 20
-16.33655657991103
 30
0.0
 10
21.91404777890789
 20
-12.98068976532046
 30
0.0
 10
22.92940911687475
 20
-11.14968124631041
 30
0.0
 10
24.48649123288755
 20
-7.289353951373125
 30
0.0
 10
25.02810641638237
 20
-5.260263430255578
 30
0.0
 10
25.60214110162927
 20
-1.124602490605734
 30
0.0
 10
25.6345135383081
 20
0.981720091396928
 30
0.0
 10
25.18493129171796
 20
5.145610764525353
 30
0.0
 10
24.70299126550165
 20
7.20292624522986
 30
0.0
 10
23.25057147182227
 20
11.14472986829153
 30
0.0
 10
22.2801675769666
 20
13.0289758120155
 30
0.0
 10
19.9061627039165
 20
16.51021066006334
 30
0.0
 10
18.50269461616323
 20
18.10698242819436
 30
0.0
 10
15.34430789857183
 20
20.91542888671568
 30
0.0
 10
13.58957151876705
 20
22.1269247328316
 30
0.0
 10
9.83203834251451
 20
24.08955877420209
 30
0.0
 10
7.829462477552493
 20
24.84056741958265
 30
0.0
 10
3.695191804255624
 20
25.83421250344516
 30
0.0
 10
1.563743536128589
 20
26.07677678551574
 30
0.0
 10
-2.700844418555249
 20
26.03581887602452
 30
0.0
 10
-4.833726650105652
 20
25.75228661168996
 30
0.0
 10
-8.972887656304755
 20
24.67296998613534
 30
0.0
 10
-10.97891350052843
 20
23.87723861405801
 30
0.0
 10
-14.74291610482518
 20
21.81826322149638
 30
0.0
 10
-16.50065971800414
 20
20.55513243736399
 30
0.0
 10
-19.66085184930909
 20
17.63449469134166
 30
0.0
 10
-21.06310116207691
 20
15.97715475237225
 30
0.0
 10
-23.4257976045526
 20
12.36539958792304
 30
0.0
 10
-24.38609166788944
 20
10.41119543302485
 30
0.0
 10
-25.80443907356818
 20
6.321464635036574
 30
0.0
 10
-26.2623949789001
 20
4.18618066043539
 30
0.0
 10
-26.64548791650567
 20
-0.1383622633195049
 30
0.0
 10
-26.57058933665988
 20
-2.327361372533618
 30
0.0
 10
-25.8892721615113
 20
-6.627988043050076
 30
0.0
 10
-25.2828822870185
 20
-8.739354138538287
 30
0.0
 10
-23.57186791098207
 20
-12.75725043267164
 30
0.0
 10
-22.46733511101186
 20
-14.66353327427455
 30
0.0
 10
-19.82349142672611
 20
-18.15537464962593
 30
0.0
 10
-18.28433007128753
 20
-19.74071491194597
 30
0.0
 10
-14.86121473929006
 20
-22.49340062821886
 30
0.0
 10
-12.97745945249046
 20
-23.66057020867719
 30
0.0
 10
-8.976410195361588
 20
-25.50422432509077
 30
0.0
 10
-6.859352397996481
 20
-26.18058622160984
 30
0.0
 10
-2.517649196017754
 20
-26.99903244104941
 30
0.0
 10
-0.2932634447066598
 20
-27.14105505136682
 30
0.0
 10
4.129941616722539
 20
-26.8791200193128
 30
0.0
 10
6.328493291114525
 20
-26.47516565900829
 30
0.0
 10
10.56764429201509
 20
-25.14235259809076
 30
0.0
 10
12.60798406832904
 20
-24.21356235118392
 30
0.0
 10
16.40706438858266
 20
-21.88385286491647
 30
0.0
 10
18.16556914119124
 20
-20.48306350399806
 30
0.0
 10
21.29356228632252
 20
-17.29083716810882
 30
0.0
 10
22.66285297868123
 20
-15.49958402877997
 30
0.0
 10
24.92778747119984
 20
-11.63187912993383
 30
0.0
 10
25.82328378263378
 20
-9.555654403672122
 30
0.0
 10
27.08400841524891
 20
-5.24121481038331
 30
0.0
 10
27.44914862470186
 20
-3.003256751963742
 30
0.0
 10
27.62411617521524
 20
1.500994011724431
 30
0.0
 10
27.4339204235266
 20
3.767015424595416
 30
0.0
 10
26.50643396984981
 20
8.19127324548441
 30
0.0
 10
25.76918695270334
 20
10.34924012768589
 30
0.0
 10
23.78877284470507
 20
14.4269815330305
 30
0.0
 10
22.54571396367475
 20
16.34650453272506
 30
0.0
 10
19.62551685062059
 20
19.83054202800771
 30
0.0
 10
17.94854520265903
 20
21.39483824572445
 30
0.0
 10
14.25887946372891
 20
24.07230261359774
 30
0.0
 10
12.24640063077137
 20
25.1852990584116
 30
0.0
 10
8.00482475833061
 20
26.89064063776471
 30
0.0
 10
5.775978965330415
 20
27.48287123678006
 30
0.0
 10
1.234470879191445
 20
28.10808638709925
 30
0.0
 10
-1.077919102296813
 20
28.14102078682774
 30
0.0
 10
-5.647930030150313
 20
27.64247237824359
 30
0.0
 10
-7.905273874503314
 20
27.11100717994939
 30
0.0
 10
-12.22912903035316
 20
25.51240950623137
 30
0.0
 10
-14.29537510312028
 20
24.44536171885525
 30
0.0
 10
-18.11169355071386
 20
21.83672878347275
 30
0.0
 10
-19.861528581711
 20
20.29529067544695
 30
0.0
 10
-22.93800663542875
 20
16.82788873121642
 30
0.0
 10
-24.26445464989366
 20
14.9021257805956
 30
0.0
 10
-26.41200314008664
 20
10.77971181156951
 30
0.0
 10
-27.23296291444307
 20
8.583303729243541
 30
0.0
 10
-28.31732199215929
 20
4.050156737224323
 30
0.0
 10
-28.58064366848654
 20
1.713688422475633
 30
0.0
 10
-28.53076212845327
 20
-2.959863730074387
 30
0.0
 10
-28.21754937747057
 20
-5.296665449770781
 30
0.0
 10
-27.03020635702659
 20
-9.830366243983201
 30
0.0
 10
-26.15613559137518
 20
-12.02698859485816
 30
0.0
 10
-23.89650587093048
 20
-16.14745885129206
 30
0.0
 10
-22.51107225319986
 20
-18.07105211272832
 30
0.0
 10
-19.30917896379623
 20
-21.52827398267179
 30
0.0
 10
-17.49290327651183
 20
-23.06168547307013
 30
0.0
 10
-13.53614910551753
 20
-25.64417052262384
 30
0.0
 10
-11.39590249798678
 20
-26.6930777607807
 30
0.0
 10
-6.918107606040205
 20
-28.24079906374442
 30
0.0
 10
-4.580825392804857
 20
-28.73950788948625
 30
0.0
 10
0.1515871231693028
 20
-29.15380566744185
 30
0.0
 10
2.546432988881554
 20
-29.06935712568918
 30
0.0
 10
7.250288068800517
 20
-28.31920539403655
 30
0.0
 10
9.559011499998437
 20
-27.65353507610081
 30
0.0
 10
13.95132652050522
 20
-25.77777251749696
 30
0.0
 10
16.03464817298126
 20
-24.56778191374791
 30
0.0
 10
19.84965687165721
 20
-21.67315101397139
 30
0.0
 10
21.58110615741819
 20
-19.98867537085825
 30
0.0
 10
24.58633795458976
 20
-16.24376534757284
 30
0.0
 10
25.85992936239766
 20
-14.18354906339239
 30
0.0
 10
27.87037133817375
 20
-9.80898520643152
 30
0.0
 10
28.60708920835472
 20
-7.494896331881302
 30
0.0
 10
29.49656821936557
 20
-2.750346150467496
 30
0.0
 10
29.64926336387102
 20
-0.3201687910980759
 30
0.0
 10
29.3583485281062
 20
4.511069991113201
 30
0.0
 10
28.91474357756627
 20
6.911839171243953
 30
0.0
 10
27.4546750944556
 20
11.53975411574118
 30
0.0
 10
26.43828768988877
 20
13.76661688501611
 30
0.0
 10
23.89067453400048
 20
17.91188983529549
 30
0.0
 10
22.35959180207513
 20
19.83004334738837
 30
0.0
 10
18.87187414894306
 20
23.24090789042419
 30
0.0
 10
16.91544088335256
 20
24.73340416228896
 30
0.0
 10
12.69236802858091
 20
27.20093421798632
 30
0.0
 10
10.42597690356533
 20
28.17580829531355
 30
0.0
 10
5.717592580256145
 20
29.54670958610798
 30
0.0
 10
3.275879947900803
 20
29.94264204350541
 30
0.0
 10
-1.637280260163966
 20
30.12876363445295
 30
0.0
 10
-4.108431883679174
 20
29.91892900259555
 30
0.0
 10
-8.932054856091217
 20
28.9029054263805
 30
0.0
 10
-11.28423259495548
 20
28.09676550620669
 30
0.0
 10
-15.72785791275175
 20
25.93342980591422
 30
0.0
 10
-17.81903190314693
 20
24.57635326693322
 30
0.0
 10
-21.61354190714501
 20
21.38981395359843
 30
0.0
 10
-23.3166409194427
 20
19.56053382540703
 30
0.0
 10
-26.2305574482876
 20
15.53706916213737
 30
0.0
 10
-27.44118899994845
 20
13.34312001523233
 30
0.0
 10
-29.29479004264186
 20
8.720295565288088
 30
0.0
 10
-29.93763605717774
 20
6.291694500405247
 30
0.0
 10
-30.61403167256921
 20
1.344339267777148
 30
0.0
 10
-30.64752803534738
 20
-1.174118113196707
 30
0.0
 10
-30.10001346476923
 20
-6.150249295775283
 30
0.0
 10
-29.51902309439723
 20
-8.607621503776361
 30
0.0
 10
-27.77424754064066
 20
-13.3135281924144
 30
0.0
 10
-26.61055586074389
 20
-15.56177439422506
 30
0.0
 10
-23.76729486302903
 20
-19.71317644136439
 30
0.0
 10
-22.08788673473067
 20
-21.61607473522764
 30
0.0
 10
-18.31146956386099
 20
-24.96058438414181
 30
0.0
 10
-16.21468004242414
 20
-26.40198456695571
 30
0.0
 10
-11.7273852806245
 20
-28.73444750597119
 30
0.0
 10
-9.337144980934584
 20
-29.62535840930351
 30
0.0
 10
-4.405121670193016
 20
-30.80043148087341
 30
0.0
 10
-1.863633308822299
 20
-31.08451055145738
 30
0.0
 10
3.218883041593903
 20
-31.02570538088199
 30
0.0
 10
5.75960424943548
 20
-30.68281214325123
 30
0.0
 10
10.68784483166123
 20
-29.38744272791799
 30
0.0
 10
13.07506368918789
 20
-28.43503256869235
 30
0.0
 10
17.55200159775895
 20
-25.97474852036458
 30
0.0
 10
19.64144450745251
 20
-24.46701206903573
 30
0.0
 10
23.39569611603451
 20
-20.9838632362508
 30
0.0
 10
25.06026978406337
 20
-19.00865180065141
 30
0.0
 10
27.86254344069506
 20
-14.70689862311203
 30
0.0
 10
29.00006385367195
 20
-12.3806095629487
 30
0.0
 10
30.67715905392067
 20
-7.514750577043825
 30
0.0
 10
31.21662080007235
 20
-4.97547012517476
 30
0.0
 10
31.66212341837805
 20
0.1648119830186618
 30
0.0
 10
31.56812491471845
 20
2.765504605229496
 30
0.0
 10
30.7491386265618
 20
7.872588094550966
 30
0.0
 10
30.02418786518314
 20
10.3786688614586
 30
0.0
 10
27.98367712401184
 20
15.14540260833883
 30
0.0
 10
26.66822871648396
 20
17.40576307168798
 30
0.0
 10
23.52281060121665
 20
21.5439390936885
 30
0.0
 10
21.69302067042897
 20
23.42149740289042
 30
0.0
 10
17.6263159558556
 20
26.67927528096066
 30
0.0
 10
15.38963867429397
 20
28.05928851611833
 30
0.0
 10
10.64156021750122
 20
30.23651835125682
 30
0.0
 10
8.130440265766417
 20
31.03359219509951
 30
0.0
 10
2.983043104917684
 20
31.99410399768173
 30
0.0
 10
0.3470741374894835
 20
32.15747167637522
 30
0.0
 10
-4.892198365503868
 20
31.83757703689959
 30
0.0
 10
-7.495185051373383
 20
31.35432149612423
 30
0.0
 10
-12.51186393946726
 20
29.7669975908204
 30
0.0
 10
-14.92524970170317
 20
28.66301302859362
 30
0.0
 10
-19.41671528200832
 20
25.8974962030845
 30
0.0
 10
-21.4945175535855
 20
24.2361201001522
 30
0.0
 10
-25.18825349452587
 20
20.45291112977729
 30
0.0
 10
-26.80395534589644
 20
18.33129773792552
 30
0.0
 10
-29.47408096477258
 20
13.75285692722839
 30
0.0
 10
-30.52833280799334
 20
11.29629940345854
 30
0.0
 10
-32.00941075696701
 20
6.193970350128972
 30
0.0
 10
-32.43613546230898
 20
3.548503143837855
 30
0.0
 10
-32.63341109369064
 20
-1.773566508603509
 30
0.0
 10
-32.40393758166449
 20
-4.449848342762944
 30
0.0
 10
-31.29937688291121
 20
-9.67283646669803
 30
0.0
 10
-30.42434405971003
 20
-12.21922506222507
 30
0.0
 10
-28.07808676712338
 20
-17.02873429247301
 30
0.0
 10
-26.60699257019145
 20
-19.29155927356913
 30
0.0
 10
-23.15411105657597
 20
-23.39654178628258
 30
0.0
 10
-21.17252244815502
 20
-25.23844359316096
 30
0.0
 10
-16.8152588605458
 20
-28.38881228297745
 30
0.0
 10
-14.43983939969328
 20
-29.69707894148532
 30
0.0
 10
-9.43576637224556
 20
-31.69893944751902
 30
0.0
 10
-6.80741003548007
 20
-32.39240087757543
 30
0.0
 10
-1.454207656362846
 20
-33.11997695803917
 30
0.0
 10
1.270317124096608
 20
-33.15403528386701
 30
0.0
 10
6.652568561400255
 20
-32.55755455129484
 30
0.0
 10
9.309969133049794
 20
-31.92703900884499
 30
0.0
 10
14.39792735447601
 20
-30.03608557504977
 30
0.0
 10
16.82817368532944
 20
-28.77575000263277
 30
0.0
 10
21.31465933201455
 20
-25.69786094258557
 30
0.0
 10
23.37062088874429
 20
-23.8804827940144
 30
0.0
 10
26.98316213285488
 20
-19.79505039650556
 30
0.0
 10
28.53951448401777
 20
-17.52723430425269
 30
0.0
 10
31.05689187185574
 20
-12.67505874967949
 30
0.0
 10
32.01775390416394
 20
-10.09098623262562
 30
0.0
 10
33.28354096958752
 20
-4.760086603161699
 30
0.0
 10
33.5883774344282
 20
-2.013578195168958
 30
0.0
 10
33.52064863331069
 20
3.477902353113424
 30
0.0
 10
33.14807490903184
 20
6.222543049100588
 30
0.0
 10
31.74467909880924
 20
11.54532341933966
 30
0.0
 10
30.71392954600951
 20
14.12313878351763
 30
0.0
 10
28.05299116979866
 20
18.95654434422583
 30
0.0
 10
26.42295188487159
 20
21.2118369021767
 30
0.0
 10
22.65854750870535
 20
25.2631182493972
 30
0.0
 10
20.52440032479097
 20
27.0588540950566
 30
0.0
 10
15.8776481407065
 20
30.08091635876629
 30
0.0
 10
13.36531662791061
 20
31.30704994656321
 30
0.0
 10
8.11139354804744
 20
33.11351904409689
 30
0.0
 10
5.37011485754425
 20
33.69373371065851
 30
0.0
 10
-0.1780368428684403
 20
34.17044116931422
 30
0.0
 10
-2.98457622157696
 20
34.06689270374779
 30
0.0
 10
-8.494888120300947
 20
33.17907185908716
 30
0.0
 10
-11.19832622291877
 20
32.39484065426545
 30
0.0
 10
-16.33947869617243
 20
30.18958173052672
 30
0.0
 10
-18.77687797039471
 20
28.76867551921999
 30
0.0
 10
-23.23822131571978
 20
25.37247018846189
 30
0.0
 10
-25.26188864836265
 20
23.39736596999968
 30
0.0
 10
-28.77221260733154
 20
19.00886656413836
 30
0.0
 10
-30.258647669839
 20
16.59572828519554
 30
0.0
 10
-32.60266536433996
 20
11.47413522857063
 30
0.0
 10
-33.46009518184434
 20
8.765984199651406
 30
0.0
 10
-34.49163977599789
 20
3.215740059367447
 30
0.0
 10
-34.66567998887941
 20
0.3739794838808849
 30
0.0
 10
-34.31680554569298
 20
-5.273326739894543
 30
0.0
 10
-33.7938994146822
 20
-8.07853093150283
 30
0.0
 10
-32.0793200871852
 20
-13.48397376319336
 30
0.0
 10
-30.88773836729847
 20
-16.08388251839025
 30
0.0
 10
-27.9043178721685
 20
-20.92154072872117
 30
0.0
 10
-26.11264839822927
 20
-23.15899175978263
 30
0.0
 10
-22.03394811061152
 20
-27.13559909862756
 30
0.0
 10
-19.74715459249813
 20
-28.87450652950417
 30
0.0
 10
-14.81334582587549
 20
-31.74722771155903
 30
0.0
 10
-12.16662190335221
 20
-32.88085732067294
 30
0.0
 10
-6.670348120002285
 20
-34.47211192782598
 30
0.0
 10
-3.821126339774901
 20
-34.92962888111255
 30
0.0
 10
1.909852757043059
 20
-35.13805855292835
 30
0.0
 10
4.791264801846715
 20
-34.88894616073345
 30
0.0
 10
10.41361807730486
 20
-33.69584833944189
 30
0.0
 10
13.15421752949467
 20
-32.75192261321337
 30
0.0
 10
18.32961067219428
 20
-30.22274372833253
 30
0.0
 10
20.76408664399133
 20
-28.63763187344969
 30
0.0
 10
25.17954166542017
 20
-24.91840815955351
 30
0.0
 10
27.16024626687889
 20
-22.7845110709034
 30
0.0
 10
30.54706711766705
 20
-18.09344855895467
 30
0.0
 10
31.95296888302219
 20
-15.53655878415423
 30
0.0
 10
34.1030888523962
 20
-10.15123717920302
 30
0.0
 10
34.84716569797312
 20
-7.323125570554884
 30
0.0
 10
35.62592224350915
 20
-1.564076044948534
 30
0.0
 10
35.66054253238664
 20
1.366516134996516
 30
0.0
 10
35.01509563782049
 20
7.154887827025239
 30
0.0
 10
34.33505492329272
 20
10.01231676232324
 30
0.0
 10
32.29792360945888
 20
15.48232651653763
 30
0.0
 10
30.94094414452143
 20
18.09457297643421
 30
0.0
 10
27.62842702214185
 20
22.91614222266506
 30
0.0
 10
25.67307885329847
 20
25.12516704226059
 30
0.0
 10
21.27863122915054
 20
29.00573988156764
 30
0.0
 10
18.83978856608121
 20
30.67704440107983
 30
0.0
 10
13.62273221873446
 20
33.37933623774028
 30
0.0
 10
10.84482748431665
 20
34.41014939902438
 30
0.0
 10
5.115051536130379
 20
35.76665045830165
 30
0.0
 10
2.163523081515613
 20
36.09224431739906
 30
0.0
 10
-3.736921664632955
 20
36.0155918857394
 30
0.0
 10
-6.685481848765705
 20
35.61333767481244
 30
0.0
 10
-12.40280200701809
 20
34.10191546970051
 30
0.0
 10
-15.1712138778469
 20
32.99282652332688
 30
0.0
 10
-20.3610870906923
 20
30.13123381923302
 30
0.0
 10
-22.78222929690089
 20
28.37889170070744
 30
0.0
 10
-27.13054038275992
 20
24.3332317811599
 30
0.0
 10
-29.05743840604985
 20
22.04014884893054
 30
0.0
 10
-32.29928927683753
 20
17.04839765830098
 30
0.0
 10
-33.61403603945448
 20
14.35002369287253
 30
0.0
 10
-35.54987903427315
 20
8.708036519051044
 30
0.0
 10
-36.17084662124464
 20
5.764759589913733
 30
0.0
 10
-36.67875892025039
 20
-0.1912617027182269
 30
0.0
 10
-36.56566049277707
 20
-3.203647837924883
 30
0.0
 10
-35.6090050916124
 20
-9.117188146051372
 30
0.0
 10
-34.76549344334777
 20
-12.01798358437894
 30
0.0
 10
-32.39548633704161
 20
-17.53355478400606
 30
0.0
 10
-30.86912232195602
 20
-20.14799286910144
 30
0.0
 10
-27.22212977570715
 20
-24.93250353775109
 30
0.0
 10
-25.10171126957038
 20
-27.10227989383488
 30
0.0
 10
-20.39141717242111
 20
-30.86514993370243
 30
0.0
 10
-17.80181789609711
 20
-32.45800682355966
 30
0.0
 10
-12.30671023964018
 20
-34.96881237742308
 30
0.0
 10
-9.401528133536244
 20
-35.88659816858922
 30
0.0
 10
-3.448437013817202
 20
-36.98917555431407
 30
0.0
 10
-0.4008848302728074
 20
-37.17388830138362
 30
0.0
 10
5.654455114284702
 20
-36.79603405448646
 30
0.0
 10
8.661876811632274
 20
-36.23347733324015
 30
0.0
 10
14.45608358691947
 20
-34.39164258355002
 30
0.0
 10
17.24251533507733
 20
-33.1124637060033
 30
0.0
 10
22.42636617543402
 20
-29.91113954125249
 30
0.0
 10
24.82346596597976
 20
-27.98917669630634
 30
0.0
 10
29.08294470272925
 20
-23.61498509144576
 30
0.0
 10
30.9450577131119
 20
-21.16301144707073
 30
0.0
 10
34.0203744583455
 20
-15.87383472452257
 30
0.0
 10
35.23338183335272
 20
-13.03694440324544
 30
0.0
 10
36.93481309868503
 20
-7.146725889875138
 30
0.0
 10
37.4231222999161
 20
-4.093749535711938
 30
0.0
 10
37.64270601216604
 20
2.046139005482617
 30
0.0
 10
37.37395473980242
 20
5.132681260930498
 30
0.0
 10
36.09231979597259
 20
11.15439968791169
 30
0.0
 10
35.07950116671672
 20
14.08920999676427
 30
0.0
 10
32.36740068954167
 20
19.63048705191556
 30
0.0
 10
30.66827117670791
 20
22.23661401441354
 30
0.0
 10
26.68270526253104
 20
26.96254154455776
 30
0.0
 10
24.3964996936514
 20
29.08204894059713
 30
0.0
 10
19.37163825736312
 20
32.70532195235688
 30
0.0
 10
16.63327816861565
 20
34.20885882455882
 30
0.0
 10
10.866707986161
 20
36.50723825727321
 30
0.0
 10
7.838841105629695
 20
37.30193051837081
 30
0.0
 10
1.673944433534215
 20
38.13186752897913
 30
0.0
 10
-1.462715145896431
 20
38.16704978090628
 30
0.0
 10
-7.657207092650227
 20
37.47263672434611
 30
0.0
 10
-10.71466439159669
 20
36.74307083774045
 30
0.0
 10
-16.56672567859927
 20
34.55976164386797
 30
0.0
 10
-19.36097226753897
 20
33.10613828641008
 30
0.0
 10
-24.51762511331558
 20
29.55899310169811
 30
0.0
 10
-26.87971319577721
 20
27.46567491258221
 30
0.0
 10
-31.0283176302807
 20
22.76221206179513
 30
0.0
 10
-32.8145743181419
 20
20.15234282790975
 30
0.0
 10
-35.70178060362485
 20
14.57040568778943
 30
0.0
 10
-36.80254489388481
 20
11.59866873600767
 30
0.0
 10
-38.24975994701578
 20
5.470016469099048
 30
0.0
 10
-38.59611120036989
 20
2.313467967862258
 30
0.0
 10
-38.5105351381681
 20
-3.995940976152493
 30
0.0
 10
-38.07860044059305
 20
-7.148420648430827
 30
0.0
 10
-36.45915184059175
 20
-13.26028059469654
 30
0.0
 10
-35.27172350064407
 20
-16.21928897217662
 30
0.0
 10
-32.20947646866714
 20
-21.76562983715918
 30
0.0
 10
-30.33483151654364
 20
-24.35262169162466
 30
0.0
 10
-26.00791605361486
 20
-28.99796251612228
 30
0.0
 10
-23.5558973730701
 20
-31.05602271704308
 30
0.0
 10
-18.21914717589546
 20
-34.51766219490877
 30
0.0
 10
-15.33473075783442
 20
-35.92102213234575
 30
0.0
 10
-9.30467949005464
 20
-37.98623902444938
 30
0.0
 10
-6.159404322283206
 20
-38.64795953183081
 30
0.0
 10
0.2044865625680188
 20
-39.18707667118657
 30
0.0
 10
3.422719454272814
 20
-39.06442828180636
 30
0.0
 10
9.739488171801812
 20
-38.03893832413765
 30
0.0
 10
12.83764094583859
 20
-37.13614623243025
 30
0.0
 10
18.72763087183918
 20
-34.60139094355674
 30
0.0
 10
21.51910776780819
 20
-32.96956912469206
 30
0.0
 10
26.62678575978239
 20
-29.0717893629524
 30
0.0
 10
28.94267113930713
 20
-26.80605656914108
 30
0.0
 10
32.95808726007334
 20
-21.77396778070386
 30
0.0
 10
34.65736597728034
 20
-19.00790750699867
 30
0.0
 10
37.33495939050619
 20
-13.13928525070972
 30
0.0
 10
38.31310115533408
 20
-10.03707206742108
 30
0.0
 10
39.48671133263024
 20
-3.68113396826695
 30
0.0
 10
39.68209661388781
 20
-0.4277901766642296
 30
0.0
 10
39.27526256327985
 20
6.035583488675359
 30
0.0
 10
38.67305525179825
 20
9.245222691761185
 30
0.0
 10
36.70396507991505
 20
15.42819341064506
 30
0.0
 10
35.33718904470814
 20
18.40114815176441
 30
0.0
 10
31.91796121033649
 20
23.93119162214685
 30
0.0
 10
29.86570499438339
 20
26.48794017217691
 30
0.0
 10
25.19602207227997
 20
31.03029030683095
 30
0.0
 10
22.57886830164332
 20
33.01560889671965
 30
0.0
 10
16.93432362316966
 20
36.29352120513197
 30
0.0
 10
13.90726690313866
 20
37.58590634603249
 30
0.0
 10
7.623103659747981
 20
39.3975142695441
 30
0.0
 10
4.366372731649535
 20
39.9166157187196
 30
0.0
 10
-2.182425253921612
 20
40.14735347140377
 30
0.0
 10
-5.474097720014284
 20
39.85896331887136
 30
0.0
 10
-11.89518129851852
 20
38.48879125250327
 30
0.0
 10
-15.02420246403389
 20
37.40707972022005
 30
0.0
 10
-20.93136343163684
 20
34.51205765075082
 30
0.0
 10
-23.70914138483576
 20
32.69891047996614
 30
0.0
 10
-28.74554142369537
 20
28.44700236550858
 30
0.0
 10
-31.00385161431537
 20
26.0084883163994
 30
0.0
 10
-34.86357678704673
 20
20.64982795577157
 30
0.0
 10
-36.46474876609567
 20
17.72999755307662
 30
0.0
 10
-38.91138766215036
 20
11.58217879311848
 30
0.0
 10
-39.75669533876849
 20
8.354556640704496
 30
0.0
 10
-40.63781281444908
 20
1.783812822119889
 30
0.0
 10
-40.67355702942592
 20
-1.558914156796355
 30
0.0
 10
-39.93017781087174
 20
-8.159526358275224
 30
0.0
 10
-39.15108675218817
 20
-11.41701202087015
 30
0.0
 10
-36.82159967827707
 20
-17.65112484066089
 30
0.0
 10
-35.27133242829872
 20
-20.62737155864375
 30
0.0
 10
-31.48955918125439
 20
-26.1191080039661
 30
0.0
 10
-29.25827097186593
 20
-28.63425934929386
 30
0.0
 10
-24.2457928944397
 20
-33.05089537899376
 30
0.0
 10
-21.46489708973877
 20
-34.95210423520368
 30
0.0
 10
-15.51807915684494
 20
-38.02422496950918
 30
0.0
 10
-12.35250998769868
 20
-39.19494038874524
 30
0.0
 10
-5.824981402067712
 20
-40.73286943572992
 30
0.0
 10
-2.463412854208894
 20
-41.09997808334072
 30
0.0
 10
4.254960287672037
 20
-41.00547839059681
 30
0.0
 10
7.611359448095958
 20
-40.54386320637365
 30
0.0
 10
14.11775918237498
 20
-38.816388211483
 30
0.0
 10
17.26736406650635
 20
-37.55062047796123
 30
0.0
 10
23.17017258362606
 20
-34.28771911810123
 30
0.0
 10
25.92301408634884
 20
-32.29077133237951
 30
0.0
 10
30.86538464948499
 20
-27.68260032606942
 30
0.0
 10
33.05460702803633
 20
-25.07164589720965
 30
0.0
 10
36.73603511298001
 20
-19.38989669348992
 30
0.0
 10
38.22800822523701
 20
-16.31943782279633
 30
0.0
 10
40.42259901462564
 20
-9.901322461058239
 30
0.0
 10
41.12507244241699
 20
-6.554049054652674
 30
0.0
 10
41.69539442212275
 20
0.2177114224178198
 30
0.0
 10
41.56319607083564
 20
3.641791070620747
 30
0.0
 10
40.4688715566629
 20
10.36178819755225
 30
0.0
 10
39.50679902151257
 20
13.65729830729875
 30
0.0
 10
36.80729555007163
 20
19.92170695967278
 30
0.0
 10
35.0700159274284
 20
22.89022266651443
 30
0.0
 10
30.92144895019805
 20
28.32106798181326
 30
0.0
 10
28.51040186871177
 20
30.78306238477936
 30
0.0
 10
23.15651838898661
 20
35.05102458644428
 30
0.0
 10
20.21399711790023
 20
36.85672513100101
 30
0.0
 10
13.97186026177907
 20
39.70110640358939
 30
0.0
 10
10.67261600130608
 20
40.7396041420789
 30
0.0
 10
7.293223462010718
 20
41.3619256265128
 30
0.0
  0
SPLINE
  5
74
330
1F
100
AcDbEntity
  8
0
  6
Continuous
 62
     7
370
    25
100
AcDbSpline
210
0.0
220
0.0
230
1.0
 70
     8
 71
     3
 72
   960
 73
   956
 74
     0
 42
0.000000001
 43
0.00000001
 40
0.0
 40
0.0
 40
0.0
 40
0.0
 40
0.00390625
 40
0.00390625
 40
0.0078125
 40
0.0078125
 40
0.01171875
 40
0.01171875
 40
0.015625
 40
0.015625
 40
0.01953125
 40
0.01953125
 40
0.0234375
 40
0.0234375
 40
0.02734375
 40
0.02734375
 40
0.03125
 40
0.03125
 40
0.03515625
 40
0.03515625
 40
0.0390625
 40
0.0390625
 40
0.04296875
 40
0.04296875
 40
0.046875
 40
0.046875
 40
0.05078125
 40
0.05078125
 40
0.0546875
 40
0.0546875
 40
0.05859375
 40
0.05859375
 40
0.0625
 40
0.0625
 40
0.06640625
 40
0.06640625
 40
0.0703125
 40
0.0703125
 40
0.07421875
 40
0.07421875
 40
0.078125
 40
0.078125
 40
0.08203125
 40
0.08203125
 40
0.0859375
 40
0.0859375
 40
0.08984375
 40
0.08984375
 40
0.09375
 40
0.09375
 40
0.09765625
 40
0.09765625
 40
0.1015625
 40
0.1015625
 40
0.10546875
 40
0.10546875
 40
0.109375
 40
0.109375
 40
0.11328125
 40
0.11328125
 40
0.1171875
 40
0.1171875
 40
0.12109375
 40
0.12109375
 40
0.125
 40
0.125
 40
0.12890625
 40
0.12890625
 40
0.1328125
 40
0.1328125
 40
0.13671875
 40
0.13671875
 40
0.138671875
 40
0.138671875
 40
0.140625
 40
0.140625
 40
0.142578125
 40
0.142578125
 40
0.14453125
 40
0.14453125
 40
0.146484375
 40
0.146484375
 40
0.1484375
 40
0.1484375
 40
0.150390625
 40
0.150390625
 40
0.15234375
 40
0.15234375
 40
0.154296875
 40
0.154296875
 40
0.15625
 40
0.15625
 40
0.158203125
 40
0.158203125
 40
0.16015625
 40
0.16015625
 40
0.162109375
 40
0.162109375
 40
0.1640625
 40
0.1640625
 40
0.166015625
 40
0.166015625
 40
0.16796875
 40
0.16796875
 40
0.169921875
 40
0.169921875
 40
0.171875
 40
0.171875
 40
0.173828125
 40
0.173828125
 40
0.17578125
 40
0.17578125
 40
0.177734375
 40
0.177734375
 40
0.1796875
 40
0.1796875
 40
0.181640625
 40
0.181640625
 40
0.18359375
 40
0.18359375
 40
0.185546875
 40
0.185546875
 40
0.1875
 40
0.1875
 40
0.189453125
 40
0.189453125
 40
0.19140625
 40
0.19140625
 40
0.193359375
 40
0.193359375
 40
0.1953125
 40
0.1953125
 40
0.197265625
 40
0.197265625
 40
0.19921875
 40
0.19921875
 40
0.201171875
 40
0.201171875
 40
0.203125
 40
0.203125
 40
0.205078125
 40
0.205078125
 40
0.20703125
 40
0.20703125
 40
0.208984375
 40
0.208984375
 40
0.2109375
 40
0.2109375
 40
0.212890625
 40
0.212890625
 40
0.21484375
 40
0.21484375
 40
0.216796875
 40
0.216796875
 40
0.21875
 40
0.21875
 40
0.220703125
 40
0.220703125
 40
0.22265625
 40
0.22265625
 40
0.224609375
 40
0.224609375
 40
0.2265625
 40
0.2265625
 40
0.228515625
 40
0.228515625
 40
0.23046875
 40
0.23046875
 40
0.232421875
 40
0.232421875
 40
0.234375
 40
0.234375
 40
0.236328125
 40
0.236328125
 40
0.23828125
 40
0.23828125
 40
0.240234375
 40
0.240234375
 40
0.2421875
 40
0.2421875
 40
0.244140625
 40
0.244140625
 40
0.24609375
 40
0.24609375
 40
0.248046875
 40
0.248046875
 40
0.25
 40
0.25
 40
0.251953125
 40
0.251953125
 40
0.25390625
 40
0.25390625
 40
0.255859375
 40
0.255859375
 40
0.2578125
 40
0.2578125
 40
0.259765625
 40
0.259765625
 40
0.26171875
 40
0.26171875
 40
0.263671875
 40
0.263671875
 40
0.265625
 40
0.265625
 40
0.267578125
 40
0.267578125
 40
0.26953125
 40
0.26953125
 40
0.271484375
 40
0.271484375
 40
0.2734375
 40
0.2734375
 40
0.275390625
 40
0.275390625
 40
0.27734375
 40
0.27734375
 40
0.279296875
 40
0.279296875
 40
0.28125
 40
0.28125
 40
0.283203125
 40
0.283203125
 40
0.28515625
 40
0.28515625
 40
0.287109375
 40
0.287109375
 40
0.2890625
 40
0.2890625
 40
0.291015625
 40
0.291015625
 40
0.29296875
 40
0.29296875
 40
0.294921875
 40
0.294921875
 40
0.296875
 40
0.296875
 40
0.298828125
 40
0.298828125
 40
0.30078125
 40
0.30078125
 40
0.302734375
 40
0.302734375
 40
0.3046875
 40
0.3046875
 40
0.306640625
 40
0.306640625
 40
0.30859375
 40
0.30859375
 40
0.310546875
 40
0.310546875
 40
0.3125
 40
0.3125
 40
0.314453125
 40
0.314453125
 40
0.31640625
 40
0.31640625
 40
0.318359375
 40
0.318359375
 40
0.3203125
 40
0.3203125
 40
0.322265625
 40
0.322265625
 40
0.32421875
 40
0.32421875
 40
0.326171875
 40
0.326171875
 40
0.328125
 40
0.328125
 40
0.330078125
 40
0.330078125
 40
0.33203125
 40
0.33203125
 40
0.333984375
 40
0.333984375
 40
0.3359375
 40
0.3359375
 40
0.337890625
 40
0.337890625
 40
0.33984375
 40
0.33984375
 40
0.341796875
 40
0.341796875
 40
0.34375
 40
0.34375
 40
0.345703125
 40
0.345703125
 40
0.34765625
 40
0.34765625
 40
0.349609375
 40
0.349609375
 40
0.3515625
 40
0.3515625
 40
0.353515625
 40
0.353515625
 40
0.35546875
 40
0.35546875
 40
0.357421875
 40
0.357421875
 40
0.359375
 40
0.359375
 40
0.361328125
 40
0.361328125
 40
0.36328125
 40
0.36328125
 40
0.365234375
 40
0.365234375
 40
0.3671875
 40
0.3671875
 40
0.369140625
 40
0.369140625
 40
0.37109375
 40
0.37109375
 40
0.373046875
 40
0.373046875
 40
0.375
 40
0.375
 40
0.376953125
 40
0.376953125
 40
0.37890625
 40
0.37890625
 40
0.380859375
 40
0.380859375
 40
0.3828125
 40
0.3828125
 40
0.384765625
 40
0.384765625
 40
0.38671875
 40
0.38671875
 40
0.388671875
 40
0.388671875
 40
0.390625
 40
0.390625
 40
0.392578125
 40
0.392578125
 40
0.39453125
 40
0.39453125
 40
0.396484375
 40
0.396484375
 40
0.3984375
 40
0.3984375
 40
0.400390625
 40
0.400390625
 40
0.40234375
 40
0.40234375
 40
0.404296875
 40
0.404296875
 40
0.40625
 40
0.40625
 40
0.408203125
 40
0.408203125
 40
0.41015625
 40
0.41015625
 40
0.412109375
 40
0.412109375
 40
0.4140625
 40
0.4140625
 40
0.416015625
 40
0.416015625
 40
0.41796875
 40
0.41796875
 40
0.419921875
 40
0.419921875
 40
0.421875
 40
0.421875
 40
0.423828125
 40
0.423828125
 40
0.42578125
 40
0.42578125
 40
0.427734375
 40
0.427734375
 40
0.4296875
 40
0.4296875
 40
0.431640625
 40
0.431640625
 40
0.43359375
 40
0.43359375
 40
0.435546875
 40
0.435546875
 40
0.4375
 40
0.4375
 40
0.439453125
 40
0.439453125
 40
0.44140625
 40
0.44140625
 40
0.443359375
 40
0.443359375
 40
0.4453125
 40
0.4453125
 40
0.447265625
 40
0.447265625
 40
0.44921875
 40
0.44921875
 40
0.451171875
 40
0.451171875
 40
0.453125
 40
0.453125
 40
0.455078125
 40
0.455078125
 40
0.45703125
 40
0.45703125
 40
0.458984375
 40
0.458984375
 40
0.4609375
 40
0.4609375
 40
0.462890625
 40
0.462890625
 40
0.46484375
 40
0.46484375
 40
0.466796875
 40
0.466796875
 40
0.46875
 40
0.46875
 40
0.470703125
 40
0.470703125
 40
0.47265625
 40
0.47265625
 40
0.474609375
 40
0.474609375
 40
0.4765625
 40
0.4765625
 40
0.478515625
 40
0.478515625
 40
0.48046875
 40
0.48046875
 40
0.482421875
 40
0.482421875
 40
0.484375
 40
0.484375
 40
0.486328125
 40
0.486328125
 40
0.48828125
 40
0.48828125
 40
0.490234375
 40
0.490234375
 40
0.4921875
 40
0.4921875
 40
0.494140625
 40
0.494140625
 40
0.49609375
 40
0.49609375
 40
0.498046875
 40
0.498046875
 40
0.5
 40
0.5
 40
0.501953125
 40
0.501953125
 40
0.50390625
 40
0.50390625
 40
0.505859375
 40
0.505859375
 40
0.5078125
 40
0.5078125
 40
0.509765625
 40
0.509765625
 40
0.51171875
 40
0.51171875
 40
0.513671875
 40
0.513671875
 40
0.515625
 40
0.515625
 40
0.517578125
 40
0.517578125
 40
0.51953125
 40
0.51953125
 40
0.521484375
 40
0.521484375
 40
0.5234375
 40
0.5234375
 40
0.525390625
 40
0.525390625
 40
0.52734375
 40
0.52734375
 40
0.529296875
 40
0.529296875
 40
0.53125
 40
0.53125
 40
0.533203125
 40
0.533203125
 40
0.53515625
 40
0.53515625
 40
0.537109375
 40
0.537109375
 40
0.5390625
 40
0.5390625
 40
0.541015625
 40
0.541015625
 40
0.54296875
 40
0.54296875
 40
0.544921875
 40
0.544921875
 40
0.546875
 40
0.546875
 40
0.548828125
 40
0.548828125
 40
0.55078125
 40
0.55078125
 40
0.552734375
 40
0.552734375
 40
0.5546875
 40
0.5546875
 40
0.556640625
 40
0.556640625
 40
0.55859375
 40
0.55859375
 40
0.560546875
 40
0.560546875
 40
0.5625
 40
0.5625
 40
0.564453125
 40
0.564453125
 40
0.56640625
 40
0.56640625
 40
0.568359375
 40
0.568359375
 40
0.5703125
 40
0.5703125
 40
0.572265625
 40
0.572265625
 40
0.57421875
 40
0.57421875
 40
0.576171875
 40
0.576171875
 40
0.578125
 40
0.578125
 40
0.580078125
 40
0.580078125
 40
0.58203125
 40
0.58203125
 40
0.583984375
 40
0.583984375
 40
0.5859375
 40
0.5859375
 40
0.587890625
 40
0.587890625
 40
0.58984375
 40
0.58984375
 40
0.591796875
 40
0.591796875
 40
0.59375
 40
0.59375
 40
0.595703125
 40
0.595703125
 40
0.59765625
 40
0.59765625
 40
0.599609375
 40
0.599609375
 40
0.6015625
 40
0.6015625
 40
0.603515625
 40
0.603515625
 40
0.60546875
 40
0.60546875
 40
0.607421875
 40
0.607421875
 40
0.609375
 40
0.609375
 40
0.611328125
 40
0.611328125
 40
0.61328125
 40
0.61328125
 40
0.615234375
 40
0.615234375
 40
0.6171875
 40
0.6171875
 40
0.619140625
 40
0.619140625
 40
0.62109375
 40
0.62109375
 40
0.623046875
 40
0.623046875
 40
0.625
 40
0.625
 40
0.626953125
 40
0.626953125
 40
0.62890625
 40
0.62890625
 40
0.630859375
 40
0.630859375
 40
0.6328125
 40
0.6328125
 40
0.634765625
 40
0.634765625
 40
0.63671875
 40
0.63671875
 40
0.638671875
 40
0.638671875
 40
0.640625
 40
0.640625
 40
0.642578125
 40
0.642578125
 40
0.64453125
 40
0.64453125
 40
0.646484375
 40
0.646484375
 40
0.6484375
 40
0.6484375
 40
0.650390625
 40
0.650390625
 40
0.65234375
 40
0.65234375
 40
0.654296875
 40
0.654296875
 40
0.65625
 40
0.65625
 40
0.658203125
 40
0.658203125
 40
0.66015625
 40
0.66015625
 40
0.662109375
 40
0.662109375
 40
0.6640625
 40
0.6640625
 40
0.666015625
 40
0.666015625
 40
0.66796875
 40
0.66796875
 40
0.669921875
 40
0.669921875
 40
0.671875
 40
0.671875
 40
0.673828125
 40
0.673828125
 40
0.67578125
 40
0.67578125
 40
0.677734375
 40
0.677734375
 40
0.6796875
 40
0.6796875
 40
0.681640625
 40
0.681640625
 40
0.68359375
 40
0.68359375
 40
0.685546875
 40
0.685546875
 40
0.6875
 40
0.6875
 40
0.689453125
 40
0.689453125
 40
0.69140625
 40
0.69140625
 40
0.693359375
 40
0.693359375
 40
0.6953125
 40
0.6953125
 40
0.697265625
 40
0.697265625
 40
0.69921875
 40
0.69921875
 40
0.701171875
 40
0.701171875
 40
0.703125
 40
0.703125
 40
0.705078125
 40
0.705078125
 40
0.70703125
 40
0.70703125
 40
0.708984375
 40
0.708984375
 40
0.7109375
 40
0.7109375
 40
0.712890625
 40
0.712890625
 40
0.71484375
 40
0.71484375
 40
0.716796875
 40
0.716796875
 40
0.71875
 40
0.71875
 40
0.720703125
 40
0.720703125
 40
0.72265625
 40
0.72265625
 40
0.724609375
 40
0.724609375
 40
0.7265625
 40
0.7265625
 40
0.728515625
 40
0.728515625
 40
0.73046875
 40
0.73046875
 40
0.732421875
 40
0.732421875
 40
0.734375
 40
0.734375
 40
0.736328125
 40
0.736328125
 40
0.73828125
 40
0.73828125
 40
0.740234375
 40
0.740234375
 40
0.7421875
 40
0.7421875
 40
0.744140625
 40
0.744140625
 40
0.74609375
 40
0.74609375
 40
0.748046875
 40
0.748046875
 40
0.75
 40
0.75
 40
0.751953125
 40
0.751953125
 40
0.75390625
 40
0.75390625
 40
0.755859375
 40
0.755859375
 40
0.7578125
 40
0.7578125
 40
0.759765625
 40
0.759765625
 40
0.76171875
 40
0.76171875
 40
0.763671875
 40
0.763671875
 40
0.765625
 40
0.765625
 40
0.767578125
 40
0.767578125
 40
0.76953125
 40
0.76953125
 40
0.771484375
 40
0.771484375
 40
0.7734375
 40
0.7734375
 40
0.775390625
 40
0.775390625
 40
0.77734375
 40
0.77734375
 40
0.779296875
 40
0.779296875
 40
0.78125
 40
0.78125
 40
0.783203125
 40
0.783203125
 40
0.78515625
 40
0.78515625
 40
0.787109375
 40
0.787109375
 40
0.7890625
 40
0.7890625
 40
0.791015625
 40
0.791015625
 40
0.79296875
 40
0.79296875
 40
0.794921875
 40
0.794921875
 40
0.796875
 40
0.796875
 40
0.798828125
 40
0.798828125
 40
0.80078125
 40
0.80078125
 40
0.802734375
 40
0.802734375
 40
0.8046875
 40
0.8046875
 40
0.806640625
 40
0.806640625
 40
0.80859375
 40
0.80859375
 40
0.810546875
 40
0.810546875
 40
0.8125
 40
0.8125
 40
0.814453125
 40
0.814453125
 40
0.81640625
 40
0.81640625
 40
0.818359375
 40
0.818359375
 40
0.8203125
 40
0.8203125
 40
0.822265625
 40
0.822265625
 40
0.82421875
 40
0.82421875
 40
0.826171875
 40
0.826171875
 40
0.828125
 40
0.828125
 40
0.830078125
 40
0.830078125
 40
0.83203125
 40
0.83203125
 40
0.833984375
 40
0.833984375
 40
0.8359375
 40
0.8359375
 40
0.837890625
 40
0.837890625
 40
0.83984375
 40
0.83984375
 40
0.841796875
 40
0.841796875
 40
0.84375
 40
0.84375
 40
0.845703125
 40
0.845703125
 40
0.84765625
 40
0.84765625
 40
0.849609375
 40
0.849609375
 40
0.8515625
 40
0.8515625
 40
0.853515625
 40
0.853515625
 40
0.85546875
 40
0.85546875
 40
0.857421875
 40
0.857421875
 40
0.859375
 40
0.859375
 40
0.861328125
 40
0.861328125
 40
0.86328125
 40
0.86328125
 40
0.865234375
 40
0.865234375
 40
0.8671875
 40
0.8671875
 40
0.869140625
 40
0.869140625
 40
0.87109375
 40
0.87109375
 40
0.873046875
 40
0.873046875
 40
0.875
 40
0.875
 40
0.876953125
 40
0.876953125
 40
0.87890625
 40
0.87890625
 40
0.880859375
 40
0.880859375
 40
0.8828125
 40
0.8828125
 40
0.884765625
 40
0.884765625
 40
0.88671875
 40
0.88671875
 40
0.888671875
 40
0.888671875
 40
0.890625
 40
0.890625
 40
0.892578125
 40
0.892578125
 40
0.89453125
 40
0.89453125
 40
0.896484375
 40
0.896484375
 40
0.8984375
 40
0.8984375
 40
0.900390625
 40
0.900390625
 40
0.90234375
 40
0.90234375
 40
0.904296875
 40
0.904296875
 40
0.90625
 40
0.90625
 40
0.908203125
 40
0.908203125
 40
0.91015625
 40
0.91015625
 40
0.912109375
 40
0.912109375
 40
0.9140625
 40
0.9140625
 40
0.916015625
 40
0.916015625
 40
0.91796875
 40
0.91796875
 40
0.919921875
 40
0.919921875
 40
0.921875
 40
0.921875
 40
0.923828125
 40
0.923828125
 40
0.92578125
 40
0.92578125
 40
0.927734375
 40
0.927734375
 40
0.9296875
 40
0.9296875
 40
0.931640625
 40
0.931640625
 40
0.93359375
 40
0.93359375
 40
0.935546875
 40
0.935546875
 40
0.9375
 40
0.9375
 40
0.939453125
 40
0.939453125
 40
0.94140625
 40
0.94140625
 40
0.943359375
 40
0.943359375
 40
0.9453125
 40
0.9453125
 40
0.947265625
 40
0.947265625
 40
0.94921875
 40
0.94921875
 40
0.951171875
 40
0.951171875
 40
0.953125
 40
0.953125
 40
0.955078125
 40
0.955078125
 40
0.95703125
 40
0.95703125
 40
0.958984375
 40
0.958984375
 40
0.9609375
 40
0.9609375
 40
0.962890625
 40
0.962890625
 40
0.96484375
 40
0.96484375
 40
0.966796875
 40
0.966796875
 40
0.96875
 40
0.96875
 40
0.970703125
 40
0.970703125
 40
0.97265625
 40
0.97265625
 40
0.974609375
 40
0.974609375
 40
0.9765625
 40
0.9765625
 40
0.978515625
 40
0.978515625
 40
0.98046875
 40
0.98046875
 40
0.982421875
 40
0.982421875
 40
0.984375
 40
0.984375
 40
0.986328125
 40
0.986328125
 40
0.98828125
 40
0.98828125
 40
0.990234375
 40
0.990234375
 40
0.9921875
 40
0.9921875
 40
0.994140625
 40
0.994140625
 40
0.99609375
 40
0.99609375
 40
0.998046875
 40
0.998046875
 40
1.0
 40
1.0
 40
1.0
 40
1.0
 10
0.1736481776669308
 20
0.9848077530122082
 30
0.0
 10
0.0215535618130508
 20
1.064512940110119
 30
0.0
 10
-0.1636931440212901
 20
1.108233641059781
 30
0.0
 10
-0.5557051190118568
 20
1.089520300842017
 30
0.0
 10
-0.7619720932795903
 20
1.026727522278056
 30
0.0
 10
-1.134233307127268
 20
0.7884942491504027
 30
0.0
 10
-1.299585156988998
 20
0.6130076053207084
 30
0.0
 10
-1.529359932090054
 20
0.1781788031668947
 30
0.0
 10
-1.593181390848924
 20
-0.0808541276001572
 30
0.0
 10
-1.579780632290859
 20
-0.6225746176986757
 30
0.0
 10
-1.502184324856539
 20
-0.9046581780130316
 30
0.0
 10
-1.201707864586477
 20
-1.414904987298286
 30
0.0
 10
-0.9788143655792597
 20
-1.642322086121536
 30
0.0
 10
-0.4256330327700868
 20
-1.969208407349307
 30
0.0
 10
-0.0957307504179532
 20
-2.067995564146795
 30
0.0
 10
0.5969898070074814
 20
-2.089394916453623
 30
0.0
 10
0.9590979694720606
 20
-2.011593186775988
 30
0.0
 10
1.621995994107645
 20
-1.674591012524478
 30
0.0
 10
1.921924401229025
 20
-1.415388319668905
 30
0.0
 10
2.37080084610705
 20
-0.760080871306561
 30
0.0
 10
2.518965976787528
 20
-0.3644238518406587
 30
0.0
 10
2.604814411997006
 20
0.4762251376427827
 30
0.0
 10
2.542019382506863
 20
0.920404276725661
 30
0.0
 10
2.196369961585184
 20
1.746817625140575
 30
0.0
 10
1.913500876922569
 20
2.128066870769588
 30
0.0
 10
1.175971871071673
 20
2.721433942654501
 30
0.0
 10
0.721804554608889
 20
2.932649900232642
 30
0.0
 10
-0.2593329591786722
 20
3.112184776863186
 30
0.0
 10
-0.7853948077017698
 20
3.079936799595901
 30
0.0
 10
-1.782115340147675
 20
2.755173879790579
 30
0.0
 10
-2.251660926594722
 20
2.462606872267865
 30
0.0
 10
-3.009166038245402
 20
1.66611640448623
 30
0.0
 10
-3.296089156873504
 20
1.162710217123219
 30
0.0
 10
-3.597565114211952
 20
0.0528270265452975
 30
0.0
 10
-3.611439270714325
 20
-0.5526570523523551
 30
0.0
 10
-3.33821508611028
 20
-1.722196914536243
 30
0.0
 10
-3.05100147897656
 20
-2.28501060052442
 30
0.0
 10
-2.221785571363246
 20
-3.223014610181214
 30
0.0
 10
-1.68030247022415
 20
-3.597021340579116
 30
0.0
 10
-0.457584208029585
 20
-4.047149432038748
 30
0.0
 10
0.2225880109223628
 20
-4.122458531187006
 30
0.0
 10
1.563038804066983
 20
-3.931983527552446
 30
0.0
 10
2.221949294077517
 20
-3.665994728255128
 30
0.0
 10
3.353141120793546
 20
-2.832833867423696
 30
0.0
 10
3.824082295988224
 20
-2.266158038791992
 30
0.0
 10
4.447487543896615
 20
-0.9504795509758616
 30
0.0
 10
4.598985893663431
 20
-0.2025918668806206
 30
0.0
 10
4.522452921982262
 20
1.302369199994964
 30
0.0
 10
4.294101359830846
 20
2.057955460803919
 30
0.0
 10
3.487843060914584
 20
3.391020684531003
 30
0.0
 10
2.91038297788426
 20
3.966997093879809
 30
0.0
 10
1.525313943974816
 20
4.785702436402826
 30
0.0
 10
0.7188508371204453
 20
5.02729467502942
 30
0.0
 10
-0.9397265480953612
 20
5.09529584915466
 30
0.0
 10
-1.790245544986767
 20
4.921243523765584
 30
0.0
 10
-3.329594197675999
 20
4.174285447077779
 30
0.0
 10
-4.016756878223799
 20
3.601748904334715
 30
0.0
 10
-5.049701164264716
 20
2.174221885393655
 30
0.0
 10
-5.394160390643775
 20
1.320384083088041
 30
0.0
 10
-5.636104947974385
 20
-0.4764926151380543
 30
0.0
 10
-5.532963679961941
 20
-1.417842805975164
 30
0.0
 10
-4.878704395021774
 20
-3.16340079116796
 30
0.0
 10
-4.327849517482573
 20
-3.965779131617588
 30
0.0
 10
-2.88776966712505
 20
-5.228376405065616
 30
0.0
 10
-1.99967764072563
 20
-5.687075747832709
 30
0.0
 10
-0.0841004912775457
 20
-6.130617288313785
 30
0.0
 10
0.9416209606834073
 20
-6.114644900368871
 30
0.0
 10
2.88868871006062
 20
-5.586909871378547
 30
0.0
 10
3.808049107769247
 20
-5.075275435675066
 30
0.0
 10
5.311795913235158
 20
-3.655076893576091
 30
0.0
 10
5.894457524169228
 20
-2.747597335127603
 30
0.0
 10
6.39731858003289
 20
-1.239641543451118
 30
0.0
 10
6.503803906752008
 20
-0.7132219060920572
 30
0.0
 10
6.58507751761853
 20
0.3561895248327178
 30
0.0
 10
6.559848359347325
 20
0.8991171682922467
 30
0.0
 10
6.376073734991793
 20
1.968707716387609
 30
0.0
 10
6.217527103275074
 20
2.495303402621782
 30
0.0
 10
5.773654370547886
 20
3.499619943372315
 30
0.0
 10
5.488343816305525
 20
3.977274621178691
 30
0.0
 10
4.805421185609127
 20
4.853343043252093
 30
0.0
 10
4.407840771575562
 20
5.251695786491402
 30
0.0
 10
3.522085997097644
 20
5.942962002203174
 30
0.0
 10
3.033957801298954
 20
6.235823549502159
 30
0.0
 10
1.994869979887411
 20
6.695785636796666
 30
0.0
 10
1.443968470701427
 20
6.862846745439591
 30
0.0
 10
0.3115764150711138
 20
7.058145989151498
 30
0.0
 10
-0.2698474107381295
 20
7.086359899262776
 30
0.0
 10
-1.428448198900996
 20
6.999127251428193
 30
0.0
 10
-2.005553788606554
 20
6.883673498588342
 30
0.0
 10
-3.120176069035712
 20
6.512970017194799
 30
0.0
 10
-3.657621057840437
 20
6.257730926990446
 30
0.0
 10
-4.659237269249727
 20
5.619973715199936
 30
0.0
 10
-5.123340892171449
 20
5.237483777463392
 30
0.0
 10
-5.948353546239206
 20
4.36580973700166
 30
0.0
 10
-6.309203346572598
 20
3.876669981235479
 30
0.0
 10
-6.903470466656604
 20
2.819254671507206
 30
0.0
 10
-7.136840757615598
 20
2.251037215038376
 30
0.0
 10
-7.459202286960686
 20
1.068451300286883
 30
0.0
 10
-7.548161851531563
 20
0.4541513771631746
 30
0.0
 10
-7.573238808052062
 20
-0.7841015133109103
 30
0.0
 10
-7.509342144913482
 20
-1.407979532583984
 30
0.0
 10
-7.229420841539948
 20
-2.627546107484522
 30
0.0
 10
-7.013400981910819
 20
-3.223157802488759
 30
0.0
 10
-6.439267615683853
 20
-4.349299780970534
 30
0.0
 10
-6.081177800178336
 20
-4.879755997045496
 30
0.0
 10
-5.241831075177605
 20
-5.841928062425315
 30
0.0
 10
-4.760615673739044
 20
-6.273577260727245
 30
0.0
 10
-3.70185315772343
 20
-7.009838010825703
 30
0.0
 10
-3.124363152306221
 20
-7.314394580494297
 30
0.0
 10
-1.906306649609355
 20
-7.775375146264116
 30
0.0
 10
-1.265809640901037
 20
-7.931759440562576
 30
0.0
 10
0.0404983004312777
 20
-8.083936559577914
 30
0.0
 10
0.7062314115592172
 20
-8.079707697843155
 30
0.0
 10
2.022967852497123
 20
-7.907766240824397
 30
0.0
 10
2.67388966373349
 20
-7.740051647809226
 30
0.0
 10
3.921087382703333
 20
-7.248173822771715
 30
0.0
 10
4.517283023845144
 20
-6.92402877076495
 30
0.0
 10
5.617686206594692
 20
-6.136010481110891
 30
0.0
 10
6.121819695451797
 20
-5.672174854463931
 30
0.0
 10
7.005664413074485
 20
-4.630340237997225
 30
0.0
 10
7.385312471144339
 20
-4.052396331818675
 30
0.0
 10
7.994736428275798
 20
-2.815355113446757
 30
0.0
 10
8.224464119697833
 20
-2.156327287248495
 30
0.0
 10
8.51726768150969
 20
-0.7956917330893728
 30
0.0
 10
8.580313538835771
 20
-0.0941638814098551
 30
0.0
 10
8.532829054241624
 20
1.309591646231972
 30
0.0
 10
8.422289061679262
 20
2.011733778157113
 30
0.0
 10
8.031166124990959
 20
3.374031596442379
 30
0.0
 10
7.750594844767871
 20
4.034101224845134
 30
0.0
 10
7.033372513694555
 20
5.271356082908071
 30
0.0
 10
6.596754098227424
 20
5.84846001533282
 30
0.0
 10
5.59116350993511
 20
6.883204815970334
 30
0.0
 10
5.022243304942568
 20
7.340774219984118
 30
0.0
 10
3.784261279945189
 20
8.106501544980103
 30
0.0
 10
3.115267904462022
 20
8.414602388803544
 30
0.0
 10
1.716019313323989
 20
8.86001975089194
 30
0.0
 10
0.9858451020291413
 20
8.997297325555564
 30
0.0
 10
-0.4924757732722289
 20
9.089724976856237
 30
0.0
 10
-1.240533627375959
 20
9.044856938416284
 30
0.0
 10
-2.709489326994372
 20
8.772545191522509
 30
0.0
 10
-3.430295869891331
 20
8.545105656778432
 30
0.0
 10
-4.800496323093538
 20
7.918311331757067
 30
0.0
 10
-5.449801991600877
 20
7.518983119563766
 30
0.0
 10
-6.636342922389667
 20
6.569718288586684
 30
0.0
 10
-7.173498460209631
 20
6.019829394323586
 30
0.0
 10
-8.101216836893007
 20
4.800275695506119
 30
0.0
 10
-8.491713491038993
 20
4.130677185759968
 30
0.0
 10
-9.099935041673808
 20
2.710340786844946
 30
0.0
 10
-9.317611565837266
 20
1.959684005776306
 30
0.0
 10
-9.564091274621466
 20
0.4214448036568674
 30
0.0
 10
-9.592867147782414
 20
-0.3660464216380069
 30
0.0
 10
-9.45666833795383
 20
-1.93076746452595
 30
0.0
 10
-9.291689413036083
 20
-2.707901417879978
 30
0.0
 10
-8.774808051603918
 20
-4.204575231097311
 30
0.0
 10
-8.422925068879126
 20
-4.924020348945159
 30
0.0
 10
-7.550539794756239
 20
-6.260720159900202
 30
0.0
 10
-7.030079836747142
 20
-6.877887045688071
 30
0.0
 10
-5.849390569646265
 20
-7.970931294952254
 30
0.0
 10
-5.189224243064045
 20
-8.446733263634641
 30
0.0
 10
-3.766928140562221
 20
-9.225914832541141
 30
0.0
 10
-3.004878466729468
 20
-9.529236252476013
 30
0.0
 10
-1.423416233255627
 20
-9.942311775674805
 30
0.0
 10
-0.6040962635098848
 20
-10.05202873450239
 30
0.0
 10
1.043120824830383
 20
-10.06818206048077
 30
0.0
 10
1.870918332249078
 20
-9.974604910694088
 30
0.0
 10
3.485024695162934
 20
-9.586657212431211
 30
0.0
 10
4.27123289681846
 20
-9.292297959227998
 30
0.0
 10
5.753842527437392
 20
-8.517510265117966
 30
0.0
 10
6.450148391769633
 20
-8.03711761601424
 30
0.0
 10
7.709350195787982
 20
-6.916515347632212
 30
0.0
 10
8.272161571720444
 20
-6.276364197878662
 30
0.0
 10
9.228210928896912
 20
-4.872602675317967
 30
0.0
 10
9.621380673385547
 20
-4.109070217268159
 30
0.0
 10
10.21173513644035
 20
-2.502949620612993
 30
0.0
 10
10.40887235114873
 20
-1.66045437327054
 30
0.0
 10
10.59225431051409
 20
0.0537231602810424
 30
0.0
 10
10.57847548687245
 20
0.9253030279070882
 30
0.0
 10
10.33769947334966
 20
2.645267878247501
 30
0.0
 10
10.11070443689156
 20
3.493547025193591
 30
0.0
 10
9.454078429286637
 20
5.11516347053688
 30
0.0
 10
9.024475573501002
 20
5.888397922551842
 30
0.0
 10
7.98567006835617
 20
7.311968428625959
 30
0.0
 10
7.376520154034655
 20
7.962210940924015
 30
0.0
 10
6.012890846280005
 20
9.09860173944537
 30
0.0
 10
5.258485942720296
 20
9.58467162486498
 30
0.0
 10
3.647930124516362
 20
10.36088344135889
 30
0.0
 10
2.791871221133353
 20
10.6509671064427
 30
0.0
 10
1.028388687539149
 20
11.01480345982587
 30
0.0
 10
0.1210692278012974
 20
11.08852185133996
 30
0.0
 10
-1.690720020622607
 20
11.01205756303502
 30
0.0
 10
-2.595079658286485
 20
10.86186698023724
 30
0.0
 10
-4.346141420168412
 20
10.3434886213558
 30
0.0
 10
-5.192734041532154
 20
9.975320183472743
 30
0.0
 10
-6.776181529620858
 20
9.040194182778592
 30
0.0
 10
-7.512934221529907
 20
8.473282396304535
 30
0.0
 10
-8.830550420071983
 20
7.172200490769388
 30
0.0
 10
-9.411325403591837
 20
6.438100159515186
 30
0.0
 10
-10.37964829176655
 20
4.844750178592298
 30
0.0
 10
-10.7671269014833
 20
3.9855904043553
 30
0.0
 10
-11.32272092175098
 20
2.192397083196891
 30
0.0
 10
-11.49079074435912
 20
1.258468297966218
 30
0.0
 10
-11.59437243609394
 20
-0.6287620217117471
 30
0.0
 10
-11.52986551748524
 20
-1.5819500864597
 30
0.0
 10
-11.16901664805321
 20
-3.450270937601164
 30
0.0
 10
-10.8726842102818
 20
-4.36528833716087
 30
0.0
 10
-10.06296829296625
 20
-6.101372702814753
 30
0.0
 10
-9.549622422822008
 20
-6.92232936202307
 30
0.0
 10
-8.334015391564234
 20
-8.419342801527243
 30
0.0
 10
-7.631818017071636
 20
-9.095301133927835
 30
0.0
 10
-6.078465393914626
 20
-10.25947167158282
 30
0.0
 10
-5.227396570220989
 20
-10.74760343257582
 30
0.0
 10
-3.425811593802491
 20
-11.50408444655095
 30
0.0
 10
-2.475399540851154
 20
-11.77237638623495
 30
0.0
 10
-0.5313131922425884
 20
-12.07003656009143
 30
0.0
 10
0.4622454325378482
 20
-12.09937439630205
 30
0.0
 10
2.433086730150865
 20
-11.91420942447947
 30
0.0
 10
3.410249047153407
 20
-11.69970532748383
 30
0.0
 10
5.288974393158917
 20
-11.03664608601303
 30
0.0
 10
6.190419640049909
 20
-10.58811921076779
 30
0.0
 10
7.862203050550699
 20
-9.481105874312522
 30
0.0
 10
8.632433199204664
 20
-8.822675896030919
 30
0.0
 10
9.993509043665272
 20
-7.332971402290902
 30
0.0
 10
10.58426318069669
 20
-6.501778504892606
 30
0.0
 10
11.54835919842568
 20
-4.714601609617228
 30
0.0
 10
11.92163174733644
 20
-3.758719718420526
 30
0.0
 10
12.42542126438893
 20
-1.778381166224336
 30
0.0
 10
12.55589561747323
 20
-0.7540411498566049
 30
0.0
 10
12.56312531290949
 20
1.302140136349846
 30
0.0
 10
12.43986767647469
 20
2.333857131914179
 30
0.0
 10
11.94389358332248
 20
4.342503282841355
 30
0.0
 10
11.5711949365452
 20
5.319307991148126
 30
0.0
 10
10.59575291455211
 20
7.158385273904218
 30
0.0
 10
9.993057431850152
 20
8.020540786493761
 30
0.0
 10
8.59119962008683
 20
9.576772329150646
 30
0.0
 10
7.792112722018252
 20
10.27074588271367
 30
0.0
 10
6.043352192912473
 20
11.44658384696814
 30
0.0
 10
5.093777282230134
 20
11.92836676627679
 30
0.0
 10
3.099592591616668
 20
12.64809512661658
 30
0.0
 10
2.055099105640036
 20
12.88598526173488
 30
0.0
 10
-0.0669480201308144
 20
13.10057206145028
 30
0.0
 10
-1.144374644254995
 20
13.07724327590173
 30
0.0
 10
-3.267567903997914
 20
12.76763270587492
 30
0.0
 10
-4.31320438665368
 20
12.48135722597391
 30
0.0
 10
-6.309239558370417
 20
11.65998303580155
 30
0.0
 10
-7.259512821258552
 20
11.12492237623705
 30
0.0
 10
-9.006250650657238
 20
9.835329655601447
 30
0.0
 10
-9.802602186396198
 20
9.080865453605414
 30
0.0
 10
-11.19153906581623
 20
7.395441454562818
 30
0.0
 10
-11.78403077858561
 20
6.464575553621929
 30
0.0
 10
-12.72703045444198
 20
4.480505135585975
 30
0.0
 10
-13.07747009318757
 20
3.427415155018206
 30
0.0
 10
-13.51233923814204
 20
1.261085641988919
 30
0.0
 10
-13.59673016384416
 20
0.1479745741927809
 30
0.0
 10
-13.49128607182843
 20
-2.071848395013201
 30
0.0
 10
-13.30144489879523
 20
-3.178425538415846
 30
0.0
 10
-12.65581111772065
 20
-5.318251243894436
 30
0.0
 10
-12.2000455221776
 20
-6.351366858219206
 30
0.0
 10
-11.04701585186261
 20
-8.281006976333678
 30
0.0
 10
-10.34981069438162
 20
-9.177408427727022
 30
0.0
 10
-8.753237471603644
 20
-10.77789602417366
 30
0.0
 10
-7.853957014087799
 20
-11.48187658719956
 30
0.0
 10
-5.9052390772394
 20
-12.65279503855301
 30
0.0
 10
-4.85591290424854
 20
-13.11965141416307
 30
0.0
 10
-2.668774853069756
 20
-13.78542209261004
 30
0.0
 10
-1.531091493903388
 20
-13.98428416316267
 30
0.0
 10
0.7650482701511729
 20
-14.09901989533165
 30
0.0
 10
1.92336654554345
 20
-14.0148740965542
 30
0.0
 10
4.191052548207963
 20
-13.56548810458392
 30
0.0
 10
5.300280804430443
 20
-13.20026276378515
 30
0.0
 10
7.402249082535999
 20
-12.20762525417542
 30
0.0
 10
8.394856732445183
 20
-11.5802617260803
 30
0.0
 10
10.20234268066475
 20
-10.09831249454185
 30
0.0
 10
11.01710380764606
 20
-9.243806639819654
 30
0.0
 10
12.41772650627266
 20
-7.356655092323098
 30
0.0
 10
13.00349337411267
 20
-6.324115954681973
 30
0.0
 10
13.9082338514281
 20
-4.141282400759997
 30
0.0
 10
14.22714120663263
 20
-2.991115075925994
 30
0.0
 10
14.57598184556141
 20
-0.6411815808283025
 30
0.0
 10
14.60588164482169
 20
0.5584444434377316
 30
0.0
 10
14.37175051100511
 20
2.935405995775824
 30
0.0
 10
14.10772124193159
 20
4.112596676426743
 30
0.0
 10
13.29848412042218
 20
6.373373555220435
 30
0.0
 10
12.75331335265644
 20
7.456818931154666
 30
0.0
 10
11.4116719538688
 20
9.463685941201206
 30
0.0
 10
10.61527195531466
 20
10.38697935272129
 30
0.0
 10
8.8165522349355
 20
12.01608679237833
 30
0.0
 10
7.814332766721249
 20
12.72179309775868
 30
0.0
 10
5.662275078672329
 20
13.87080356431018
 30
0.0
 10
4.512560970111578
 20
14.31402724219686
 30
0.0
 10
2.133346099193037
 20
14.90853075310305
 30
0.0
 10
0.9039860362032821
 20
15.05976250044406
 30
0.0
 10
-1.561159447869352
 20
15.0580685653382
 30
0.0
 10
-2.796795931579182
 20
14.90513044225531
 30
0.0
 10
-5.199981870519682
 20
14.30112995421378
 30
0.0
 10
-6.367383085477833
 20
13.85009191386238
 30
0.0
 10
-8.562928020371078
 20
12.67399556398622
 30
0.0
 10
-9.590933181217924
 20
11.94899724768604
 30
0.0
 10
-11.44419446251333
 20
10.26588389254141
 30
0.0
 10
-12.2693301937069
 20
9.307861246157835
 30
0.0
 10
-13.66495676503935
 20
7.214101710506969
 30
0.0
 10
-14.23535285916804
 20
6.078484347192065
 30
0.0
 10
-15.08445511679281
 20
3.696235562620299
 30
0.0
 10
-15.36309817232102
 20
2.449743838009634
 30
0.0
 10
-15.60888981238647
 20
-0.0801728799804823
 30
0.0
 10
-15.57601106493102
 20
-1.363446260602911
 30
0.0
 10
-15.19756593840017
 20
-3.889867929748337
 30
0.0
 10
-14.85201001505623
 20
-5.132861748113814
 30
0.0
 10
-13.86588764231645
 20
-7.503315646203994
 30
0.0
 10
-13.22536917897316
 20
-8.630627719965169
 30
0.0
 10
-11.68498924284679
 20
-10.70053287268843
 30
0.0
 10
-10.78521075317613
 20
-11.64299343186842
 30
0.0
 10
-8.777992062845595
 20
-13.28447639218712
 30
0.0
 10
-7.67066516452352
 20
-13.98338993230627
 30
0.0
 10
-5.313080146655547
 20
-15.09317746752509
 30
0.0
 10
-4.062959088903159
 20
-15.50397307993241
 30
0.0
 10
-1.493782596438794
 20
-16.00987501645821
 30
0.0
 10
-0.1748799205842174
 20
-16.10493847634836
 30
0.0
 10
2.452976769403841
 20
-15.97051458062183
 30
0.0
 10
3.761771418545252
 20
-15.7410228173532
 30
0.0
 10
6.290361067620501
 20
-14.96813361408547
 30
0.0
 10
7.509999674906263
 20
-14.42477086088244
 30
0.0
 10
9.785832423046497
 20
-13.05383752094662
 30
0.0
 10
10.84188263392414
 20
-12.2263389924587
 30
0.0
 10
12.72524162827534
 20
-10.33427445243789
 30
0.0
 10
13.55242777080722
 20
-9.269813868660496
 30
0.0
 10
14.92594178533942
 20
-6.965727975886601
 30
0.0
 10
15.47217592684284
 20
-5.726235404141775
 30
0.0
 10
16.24812326346909
 20
-3.145152622942613
 30
0.0
 10
16.47777758196622
 20
-1.803714689840467
 30
0.0
 10
16.60366735456935
 20
0.9013345185906884
 30
0.0
 10
16.49988267562317
 20
2.264783004627088
 30
0.0
 10
15.96195956111465
 20
4.931834158814657
 30
0.0
 10
15.52784131728849
 20
6.235273271700029
 30
0.0
 10
14.35228221538458
 20
8.703125462257258
 30
0.0
 10
13.61090102933854
 20
9.867384102867375
 30
0.0
 10
11.86260959751941
 20
11.98534255980233
 30
0.0
 10
10.85579526256767
 20
12.9389064813643
 30
0.0
 10
8.634844790731561
 20
14.5759813409625
 30
0.0
 10
7.420835339142951
 20
15.25938331564952
 30
0.0
 10
4.856753207717494
 20
16.31238325630526
 30
0.0
 10
3.506830611000947
 20
16.68190602703029
 30
0.0
 10
0.7510499694141304
 20
17.08192713103137
 30
0.0
 10
-0.6546434543376237
 20
17.11238889334133
 30
0.0
 10
-3.437725261400789
 20
16.82929159753074
 30
0.0
 10
-4.814944305700172
 20
16.51573715637933
 30
0.0
 10
-7.457772717282041
 20
15.5603221548313
 30
0.0
 10
-8.723218222259328
 20
14.91850749454516
 30
0.0
 10
-11.06516883185162
 20
13.34223803342515
 30
0.0
 10
-12.14152550623792
 20
12.4078680145984
 30
0.0
 10
-14.03866454109138
 20
10.30013306758009
 30
0.0
 10
-14.85932301482073
 20
9.126887028549813
 30
0.0
 10
-16.19324793019472
 20
6.60994854772734
 30
0.0
 10
-16.70642273705725
 20
5.266402221802742
 30
0.0
 10
-17.39164024181716
 20
2.488311032161855
 30
0.0
 10
-17.5636293834149
 20
1.053930922549951
 30
0.0
 10
-17.55301181776691
 20
-1.820178759388864
 30
0.0
 10
-17.37039320803592
 20
-3.25973473124428
 30
0.0
 10
-16.65836632510505
 20
-6.057460458198098
 30
0.0
 10
-16.12898889117955
 20
-7.415458179807543
 30
0.0
 10
-14.75223821342033
 20
-9.96747076683795
 30
0.0
 10
-13.90493706352192
 20
-11.16132557594209
 30
0.0
 10
-11.94056816499599
 20
-13.31161659587602
 30
0.0
 10
-10.82360977029751
 20
-14.26791450470005
 30
0.0
 10
-8.384851228101578
 20
-15.88332968311052
 30
0.0
 10
-7.06319141215399
 20
-16.5423389520593
 30
0.0
 10
-4.292878533623922
 20
-17.52081510696905
 30
0.0
 10
-2.844388570379133
 20
-17.84021108290717
 30
0.0
 10
0.093397739830251
 20
-18.11720756332264
 30
0.0
 10
1.582517876950705
 20
-18.07477885396031
 30
0.0
 10
4.512167955498639
 20
-17.62749917092545
 30
0.0
 10
5.952519109573956
 20
-17.22266280413855
 30
0.0
 10
8.697391734037582
 20
-16.07179224883135
 30
0.0
 10
10.00174261867188
 20
-15.32581598170922
 30
0.0
 10
12.39481509471971
 20
-13.53464883009207
 30
0.0
 10
13.48338467734064
 20
-12.48955605274685
 30
0.0
 10
15.37741371855801
 20
-10.16054267112836
 30
0.0
 10
16.18274908602693
 20
-8.876754775425102
 30
0.0
 10
17.4593244806082
 20
-6.145655157725108
 30
0.0
 10
17.93047606667728
 20
-4.698503022788013
 30
0.0
 10
18.50741079477439
 20
-1.726479550888567
 30
0.0
 10
18.61314678885255
 20
-0.2017852669756466
 30
0.0
 10
18.44974308941523
 20
2.834105143794488
 30
0.0
 10
18.18060073591117
 20
4.345117298674666
 30
0.0
 10
17.2804561104503
 20
7.262470891346576
 30
0.0
 10
16.64949619958735
 20
8.668632491593211
 30
0.0
 10
15.06065919003072
 20
11.29065786975922
 30
0.0
 10
14.10286729053577
 20
12.50635684012127
 30
0.0
 10
11.91531143327213
 20
14.67258723237702
 30
0.0
 10
10.68567072323312
 20
15.62297895441494
 30
0.0
 10
8.026216874533711
 20
17.19908853212587
 30
0.0
 10
6.596557904035128
 20
17.82470043952256
 30
0.0
 10
3.621530392815596
 20
18.71082443432813
 30
0.0
 10
2.07633788577754
 20
18.97127100076978
 30
0.0
 10
-1.037620767030211
 20
19.10831481380705
 30
0.0
 10
-2.606199463710835
 20
18.98489125469212
 30
0.0
 10
-5.672615769421452
 20
18.35843101764535
 30
0.0
 10
-7.170265738969619
 20
17.85541987079184
 30
0.0
 10
-10.00400184197851
 20
16.49693917659375
 30
0.0
 10
-11.33991147328957
 20
15.64154033259677
 30
0.0
 10
-13.76834243893991
 20
13.62690670049695
 30
0.0
 10
-14.86070915508245
 20
12.46778388531578
 30
0.0
 10
-16.73423617565227
 20
9.913034489140138
 30
0.0
 10
-17.51527325718637
 20
8.517554723603926
 30
0.0
 10
-18.71653266118241
 20
5.572224014674984
 30
0.0
 10
-19.13667084742797
 20
4.02254614607579
 30
0.0
 10
-19.58787241650134
 20
0.8609183579998468
 30
0.0
 10
-19.61889614186097
 20
-0.7508424652373815
 30
0.0
 10
-19.28683268405641
 20
-3.940044527025626
 30
0.0
 10
-18.92375307082707
 20
-5.517291934973604
 30
0.0
 10
-17.82216018924041
 20
-8.54217187934365
 30
0.0
 10
-17.08370163643383
 20
-9.98961751336408
 30
0.0
 10
-15.27280411298143
 20
-12.66665172250212
 30
0.0
 10
-14.20046407388224
 20
-13.89607165975446
 30
0.0
 10
-11.7837139002248
 20
-16.06124228980435
 30
0.0
 10
-10.43944129037837
 20
-16.99685293188277
 30
0.0
 10
-7.557622016782346
 20
-18.51569229607926
 30
0.0
 10
-6.020243473493799
 20
-19.09881823191768
 30
0.0
 10
-2.843275965130561
 20
-19.87474973053128
 30
0.0
 10
-1.203875808896614
 20
-20.06749626638573
 30
0.0
 10
2.079198070908384
 20
-20.04795507019562
 30
0.0
 10
3.722673530909387
 20
-19.83565597381652
 30
0.0
 10
6.914939045876527
 20
-19.0156026959963
 30
0.0
 10
8.46353327413713
 20
-18.40788586849678
 30
0.0
 10
11.3720135133047
 20
-16.8304808628545
 30
0.0
 10
12.73171797066626
 20
-15.86087687935779
 30
0.0
 10
15.17903872923872
 20
-13.61525243745056
 30
0.0
 10
16.26649881569327
 20
-12.3393582944371
 30
0.0
 10
18.10170260118175
 20
-9.55560074569608
 30
0.0
 10
18.84932504495049
 20
-8.047898477116044
 30
0.0
 10
19.95717509714526
 20
-4.889521504627683
 30
0.0
 10
20.31732399349333
 20
-3.239033302748624
 30
0.0
 10
20.62552531425882
 20
0.1066225996800269
 30
0.0
 10
20.57354664298961
 20
1.801589493298616
 30
0.0
 10
20.05743240345071
 20
5.134467981249057
 30
0.0
 10
19.59331559322087
 20
6.7721764710341
 30
0.0
 10
18.27769685534625
 20
9.891467821871169
 30
0.0
 10
17.42626278444526
 20
11.37285751737859
 30
0.0
 10
15.38430841733734
 20
14.08909731675099
 30
0.0
 10
14.19390135231767
 20
15.32377592281277
 30
0.0
 10
11.54309327941125
 20
17.47035104492883
 30
0.0
 10
10.08284438632668
 20
18.3821082397476
 30
0.0
 10
6.978230168794665
 20
19.82547149369131
 30
0.0
 10
5.33404695667286
 20
20.35697905342215
 30
0.0
 10
1.959176505338332
 20
21.00494657309057
 30
0.0
 10
0.2286906133672177
 20
21.12135510135675
 30
0.0
 10
-3.215233518184997
 20
20.92897159820864
 30
0.0
 10
-4.928463178804088
 20
20.62017865446913
 30
0.0
 10
-8.23458071507266
 20
19.59277860681512
 30
0.0
 10
-9.827265308280268
 20
18.8742215382922
 30
0.0
 10
-12.79548331647204
 20
17.06748085911472
 30
0.0
 10
-14.17083104631829
 20
15.97939558861294
 30
0.0
 10
-16.6199328364786
 20
13.49634841410648
 30
0.0
 10
-17.69353013802267
 20
12.10152757780572
 30
0.0
 10
-19.47223527891234
 20
9.086705773180807
 30
0.0
 10
-20.17722495220233
 20
7.466880403928366
 30
0.0
 10
-21.17352560518718
 20
4.097908162688457
 30
0.0
 10
-21.46476441957333
 20
2.348961081714757
 30
0.0
 10
-21.61296227304475
 20
-1.173907015469587
 30
0.0
 10
-21.4698998337611
 20
-2.947615922794435
 30
0.0
 10
-20.75490247417611
 20
-6.413397380028107
 30
0.0
 10
-20.18299842429518
 20
-8.105258206239213
 30
0.0
 10
-18.64159613780289
 20
-11.30487822169978
 30
0.0
 10
-17.67217963585501
 20
-12.81243884371177
 30
0.0
 10
-15.3912038034745
 20
-15.55134231807749
 30
0.0
 10
-14.0797725080638
 20
-16.78251182880068
 30
0.0
 10
-11.1912241875486
 20
-18.89249101034212
 30
0.0
 10
-9.61427410806503
 20
-19.77116319872316
 30
0.0
 10
-6.287694821632622
 20
-21.12068206605953
 30
0.0
 10
-4.538261681150779
 20
-21.59143566782562
 30
0.0
 10
-0.9707867465857138
 20
-22.0938177019713
 30
0.0
 10
0.8470414761374262
 20
-22.1254033903806
 30
0.0
 10
4.442363792650743
 20
-21.744373770582
 30
0.0
 10
6.219639564247045
 20
-21.33176898527481
 30
0.0
 10
9.626571041405267
 20
-20.08399822364952
 30
0.0
 10
11.25601680446884
 20
-19.24889577832248
 30
0.0
 10
14.26813461315263
 20
-17.20337019253772
 30
0.0
 10
15.65061781327108
 20
-15.99306013316598
 30
0.0
 10
18.08382003851741
 20
-13.2672947328694
 30
0.0
 10
19.13438284894475
 20
-11.75199555220706
 30
0.0
 10
20.83813666196375
 20
-8.505295485837488
 30
0.0
 10
21.49121372677806
 20
-6.774084725184998
 30
0.0
 10
22.35785921924539
 20
-3.19824089809942
 30
0.0
 10
22.57136314935656
 20
-1.353820695243269
 30
0.0
 10
22.54289832262433
 20
2.338217382427913
 30
0.0
 10
22.30091873959712
 20
4.185612330574497
 30
0.0
 10
21.37283906688756
 20
7.772417633554951
 30
0.0
 10
20.68678284581396
 20
9.511608368466844
 30
0.0
 10
18.90872351228862
 20
12.77655625977158
 30
0.0
 10
17.81681669519376
 20
14.30211036539031
 30
0.0
 10
15.28993670990525
 20
17.04646086260133
 30
0.0
 10
13.85510681857682
 20
18.2650831266864
 30
0.0
 10
10.72635026329072
 20
20.32007551925291
 30
0.0
 10
9.032605542077821
 20
21.15631113784181
 30
0.0
 10
5.486164475631147
 20
22.39353508732154
 30
0.0
 10
3.633678035118108
 20
22.79443690407948
 30
0.0
 10
-0.1198474595298108
 20
23.13384306519501
 30
0.0
 10
-2.020661109646533
 20
23.07231443201889
 30
0.0
 10
-5.756768006999481
 20
22.48736563597596
 30
0.0
 10
-7.591833832494095
 20
21.96396838230325
 30
0.0
 10
-11.08554390970462
 20
20.48360146186121
 30
0.0
 10
-12.74397241608517
 20
19.52670958718139
 30
0.0
 10
-15.78337953878215
 20
17.23396800458272
 30
0.0
 10
-17.16416716828511
 20
15.89824665188827
 30
0.0
 10
-19.56328837129982
 20
12.92564388769388
 30
0.0
 10
-20.58146739346826
 20
11.28893399722825
 30
0.0
 10
-22.19161850677441
 20
7.810805179864215
 30
0.0
 10
-22.78348204016701
 20
5.969590890557701
 30
0.0
 10
-23.50248235140675
 20
2.19187345978809
 30
0.0
 10
-23.62956341386095
 20
0.2555959597586509
 30
0.0
 10
-23.40820010700204
 20
-3.596361892575641
 30
0.0
 10
-23.05975657302714
 20
-5.511809058933351
 30
0.0
 10
-21.90510110318
 20
-9.20669053879859
 30
0.0
 10
-21.09894687699713
 20
-10.98589812496718
 30
0.0
 10
-19.07430252819884
 20
-14.30030876318474
 30
0.0
 10
-17.8559238866899
 20
-15.83530525251554
 30
0.0
 10
-15.07738539494059
 20
-18.5672784405804
 30
0.0
 10
-13.51738443237832
 20
-19.7640813216304
 30
0.0
 10
-10.1471946718279
 20
-21.7453820256988
 30
0.0
 10
-8.337202903821597
 20
-22.5297494648821
 30
0.0
 10
-4.574285932561311
 20
-23.63622677604623
 30
0.0
 10
-2.621584277651834
 20
-23.95825783837687
 30
0.0
 10
1.310193263909106
 20
-24.11760973228246
 30
0.0
 10
3.289032381878179
 20
-23.95490841283005
 30
0.0
 10
7.154178990634901
 20
-23.15137393070681
 30
0.0
 10
9.040250673508817
 20
-22.51057697779853
 30
0.0
 10
12.60575460142106
 20
-20.78625309901204
 30
0.0
 10
14.28496621413397
 20
-19.70281893911323
 30
0.0
 10
17.33434219721508
 20
-17.15550090645204
 30
0.0
 10
18.70431450251892
 20
-15.69176113081181
 30
0.0
 10
21.05074584503196
 20
-12.46941388595706
 30
0.0
 10
22.02705314026
 20
-10.710993492526
 30
0.0
 10
23.52483147093669
 20
-7.003165628590115
 30
0.0
 10
24.04620048822331
 20
-5.053977216225627
 30
0.0
 10
24.59976298744128
 20
-1.080655135171433
 30
0.0
 10
24.63191063890025
 20
0.9432404870369899
 30
0.0
 10
24.2019148571077
 20
4.944683058275383
 30
0.0
 10
23.73978489972255
 20
6.921987193520494
 30
0.0
 10
22.34583625805864
 20
10.71097020346689
 30
0.0
 10
21.41408992021113
 20
12.52241609557361
 30
0.0
 10
19.13393627209397
 20
15.86961750380314
 30
0.0
 10
17.78565619244972
 20
17.40516396678771
 30
0.0
 10
14.75087556551399
 20
20.10639778723047
 30
0.0
 10
13.06454981403562
 20
21.27191276600679
 30
0.0
 10
9.452968954892496
 20
23.16058102784828
 30
0.0
 10
7.527925976876056
 20
23.88360922163848
 30
0.0
 10
3.553205831068128
 20
24.84096870795952
 30
0.0
 10
1.503765581589916
 20
25.0752300323274
 30
0.0
 10
-2.597236693947448
 20
25.03784157505304
 30
0.0
 10
-4.648551130239616
 20
24.76618150537772
 30
0.0
 10
-8.629896221233393
 20
23.73007543777882
 30
0.0
 10
-10.55968346279656
 20
22.96567982313114
 30
0.0
 10
-14.18109900623844
 20
20.98696616172272
 30
0.0
 10
-15.87250276011449
 20
19.77275651102963
 30
0.0
 10
-18.91388299596402
 20
16.96462098235983
 30
0.0
 10
-20.26366743767963
 20
15.3708553427164
 30
0.0
 10
-22.53844843732412
 20
11.89709978088522
 30
0.0
 10
-23.46329723073294
 20
10.01731260704006
 30
0.0
 10
-24.82989507749769
 20
6.082807446635106
 30
0.0
 10
-25.27154981466564
 20
4.028322767487587
 30
0.0
 10
-25.6421608161312
 20
-0.133072319379602
 30
0.0
 10
-25.57108222104817
 20
-2.239732725994461
 30
0.0
 10
-24.9172988685012
 20
-6.379068032749918
 30
0.0
 10
-24.33462117138557
 20
-8.411491193954243
 30
0.0
 10
-22.6895060683761
 20
-12.27961999753821
 30
0.0
 10
-21.62715638991745
 20
-14.11508731479187
 30
0.0
 10
-19.08362759182799
 20
-17.47766176081342
 30
0.0
 10
-17.60259195145924
 20
-19.0045584137571
 30
0.0
 10
-14.30819449597694
 20
-21.65622569767052
 30
0.0
 10
-12.49502360812982
 20
-22.78082654718893
 30
0.0
 10
-8.643380190933755
 20
-24.55776551985753
 30
0.0
 10
-6.605134824442531
 20
-25.20998502691189
 30
0.0
 10
-2.42457041423784
 20
-26.00001812972293
 30
0.0
 10
-0.2825013061500761
 20
-26.13777172636514
 30
0.0
 10
3.977490266966292
 20
-25.88742861579544
 30
0.0
 10
6.095154939062772
 20
-25.49933449158511
 30
0.0
 10
10.17880036252467
 20
-24.21742359954483
 30
0.0
 10
12.14453094165424
 20
-23.32367221570198
 30
0.0
 10
15.80513420989755
 20
-21.08112419728286
 30
0.0
 10
17.49977945871241
 20
-19.73245218476722
 30
0.0
 10
20.51462404468186
 20
-16.65842237577511
 30
0.0
 10
21.83463250523814
 20
-14.93324128695092
 30
0.0
 10
24.01852877248526
 20
-11.20768357047499
 30
0.0
 10
24.88227397756188
 20
-9.207525403714817
 30
0.0
 10
26.09892794690529
 20
-5.050663702434156
 30
0.0
 10
26.45175125718044
 20
-2.894207473588901
 30
0.0
 10
26.62225719152016
 20
1.446479512348635
 30
0.0
 10
26.43991699189902
 20
3.63044884096193
 30
0.0
 10
25.54784538723751
 20
7.894960601241704
 30
0.0
 10
24.838155531302
 20
9.975243140778074
 30
0.0
 10
22.93091006022139
 20
13.90663098114201
 30
0.0
 10
21.73345824237146
 20
15.75749358455619
 30
0.0
 10
18.91979800942957
 20
19.11734207635269
 30
0.0
 10
17.30374975355981
 20
20.62611717623717
 30
0.0
 10
13.74760358436552
 20
23.20900067972181
 30
0.0
 10
11.80771287698697
 20
24.28294308179686
 30
0.0
 10
7.718636435547602
 20
25.92898087581384
 30
0.0
 10
5.569692751300465
 20
26.50096530862099
 30
0.0
 10
1.190523523757145
 20
27.10570827291125
 30
0.0
 10
-1.039439497936873
 20
27.13841788741988
 30
0.0
 10
-5.447002323900342
 20
26.65945594363333
 30
0.0
 10
-7.624334822793948
 20
26.14780081417028
 30
0.0
 10
-11.79536936552852
 20
24.60767429246773
 30
0.0
 10
-13.78881538667838
 20
23.57928406209978
 30
0.0
 10
-17.47110039445366
 20
21.06450235165025
 30
0.0
 10
-19.15971012030435
 20
19.57825225173345
 30
0.0
 10
-22.12897553594352
 20
16.23445639815857
 30
0.0
 10
-23.40944268306885
 20
14.37710407586417
 30
0.0
 10
-25.48302539373283
 20
10.4006424239475
 30
0.0
 10
-26.27600471649891
 20
8.281767228567109
 30
0.0
 10
-27.32407819667363
 20
3.908170764036829
 30
0.0
 10
-27.57909691529821
 20
1.653710467936948
 30
0.0
 10
-27.53278482748178
 20
-2.856256005466598
 30
0.0
 10
-27.23144427115832
 20
-5.111489929904742
 30
0.0
 10
-26.08731180867007
 20
-9.487374808911834
 30
0.0
 10
-25.24457680044831
 20
-11.60775855712628
 30
0.0
 10
-23.06520881115682
 20
-15.58564175270532
 30
0.0
 10
-21.72869632686551
 20
-17.44289515483866
 30
0.0
 10
-18.63930525481439
 20
-20.78130512932672
 30
0.0
 10
-16.88660386685598
 20
-22.26225174867285
 30
0.0
 10
-13.06784929847972
 20
-24.75682135539535
 30
0.0
 10
-11.00201967200199
 20
-25.7702833236242
 30
0.0
 10
-6.679450417638736
 20
-27.26625506767392
 30
0.0
 10
-4.422967499857055
 20
-27.7486627252518
 30
0.0
 10
0.1462971792293994
 20
-28.15047856706737
 30
0.0
 10
2.458804342342396
 20
-28.06985001007746
 30
0.0
 10
7.001368058500355
 20
-27.34723210102645
 30
0.0
 10
9.231148555414393
 20
-26.70527396046789
 30
0.0
 10
13.4736960853718
 20
-24.895410674891
 30
0.0
 10
15.48620221349859
 20
-23.72760319265349
 30
0.0
 10
19.1719439828447
 20
-20.93328717907326
 30
0.0
 10
20.84494965922931
 20
-19.30693725102995
 30
0.0
 10
23.74916302404141
 20
-15.69074510425971
 30
0.0
 10
24.98018570090941
 20
-13.70111321903173
 30
0.0
 10
26.92391253294051
 20
-9.475955202003677
 30
0.0
 10
27.63648801365676
 20
-7.240678758327359
 30
0.0
 10
28.49755390803911
 20
-2.657267368687583
 30
0.0
 10
28.64598003886935
 20
-0.3094066525414939
 30
0.0
 10
28.36665712458883
 20
4.358618641356951
 30
0.0
 10
27.93891241014308
 20
6.678500819192196
 30
0.0
 10
26.52974609590964
 20
11.15091018625075
 30
0.0
 10
25.54839755440683
 20
13.30316375834129
 30
0.0
 10
23.08794586636687
 20
17.30995965661037
 30
0.0
 10
21.6089804828443
 20
19.16425366490953
 30
0.0
 10
18.23945935660934
 20
22.46196964878353
 30
0.0
 10
16.34909814152351
 20
23.90518368884588
 30
0.0
 10
12.26817246912206
 20
26.29167551927173
 30
0.0
 10
10.07784790360803
 20
27.23479849024165
 30
0.0
 10
5.527041472306994
 20
28.56162911776434
 30
0.0
 10
3.166830669525962
 20
28.94524467598399
 30
0.0
 10
-1.582765760788168
 20
29.12690465075785
 30
0.0
 10
-3.971865300045686
 20
28.92492557096797
 30
0.0
 10
-8.63574221184851
 20
27.94431684376822
 30
0.0
 10
-10.91023560804766
 20
27.16573408480534
 30
0.0
 10
-15.20750736086326
 20
25.07556702143055
 30
0.0
 10
-17.23002095497807
 20
23.76409754562992
 30
0.0
 10
-20.90034195548999
 20
20.68409511240739
 30
0.0
 10
-22.54791984995541
 20
18.91573837630781
 30
0.0
 10
-25.36725551441166
 20
15.02579328277397
 30
0.0
 10
-26.53883302333372
 20
12.90443226144793
 30
0.0
 10
-28.33313028069101
 20
8.434107242505084
 30
0.0
 10
-28.95573012901867
 20
6.085408286375297
 30
0.0
 10
-29.61165355838123
 20
1.300391912342851
 30
0.0
 10
-29.64492513593952
 20
-1.135638508836765
 30
0.0
 10
-29.11699703015897
 20
-5.949321589525312
 30
0.0
 10
-28.55581672861814
 20
-8.326682452067002
 30
0.0
 10
-26.86951232687701
 20
-12.87976852758977
 30
0.0
 10
-25.74447820398843
 20
-15.05521467778316
 30
0.0
 10
-22.99506843120651
 20
-19.0725832851042
 30
0.0
 10
-21.37084831101717
 20
-20.91425627382099
 30
0.0
 10
-17.71803723080315
 20
-24.15155328465658
 30
0.0
 10
-15.68965833769271
 20
-25.5469726001309
 30
0.0
 10
-11.34831589300249
 20
-27.80546975961737
 30
0.0
 10
-9.03560848025815
 20
-28.66840021135934
 30
0.0
 10
-4.263135697005522
 20
-29.80718768538776
 30
0.0
 10
-1.803655354283616
 20
-30.08296379826904
 30
0.0
 10
3.115275316986112
 20
-30.0277280799105
 30
0.0
 10
5.574428729569457
 20
-29.69670703693899
 30
0.0
 10
10.34485339658988
 20
-28.44454817956147
 30
0.0
 10
12.65583365145601
 20
-27.52347377776547
 30
0.0
 10
16.9901844991722
 20
-25.14345146059092
 30
0.0
 10
19.01328754956284
 20
-23.68463614270137
 30
0.0
 10
22.64872726268942
 20
-20.31398952726895
 30
0.0
 10
24.26083605966609
 20
-18.40235239099556
 30
0.0
 10
26.97519427346657
 20
-14.23859881607422
 30
0.0
 10
28.07726941651545
 20
-11.98672673696391
 30
0.0
 10
29.70261505785017
 20
-7.27609338864236
 30
0.0
 10
30.22577563583789
 20
-4.817612232226946
 30
0.0
 10
30.65879631800357
 20
0.1595220390787696
 30
0.0
 10
30.56861779910675
 20
2.677875958690335
 30
0.0
 10
29.7771653335517
 20
7.6236680842508
 30
0.0
 10
29.0759267495502
 20
10.05080591687455
 30
0.0
 10
27.10131528140588
 20
14.6677721732054
 30
0.0
 10
25.82804999538952
 20
16.8573171122053
 30
0.0
 10
22.78294676631852
 20
20.86622620487599
 30
0.0
 10
21.01128255060068
 20
22.68534090470154
 30
0.0
 10
17.07329571254248
 20
25.8421003504123
 30
0.0
 10
14.90720282993332
 20
27.17954485463007
 30
0.0
 10
10.30853021307324
 20
29.29005954602362
 30
0.0
 10
7.876222692212604
 20
30.06299100040152
 30
0.0
 10
2.88996432313776
 20
30.99508968635525
 30
0.0
 10
0.3363119989329025
 20
31.15418835137354
 30
0.0
 10
-4.739747015747619
 20
30.84588563338223
 30
0.0
 10
-7.261846699321627
 20
30.37849032870104
 30
0.0
 10
-12.12302000997684
 20
28.84206859227447
 30
0.0
 10
-14.46179657502836
 20
27.77312289311168
 30
0.0
 10
-18.8147851033232
 20
25.09476753545088
 30
0.0
 10
-20.82872787110665
 20
23.48550878092136
 30
0.0
 10
-24.40931525288521
 20
19.82049633744359
 30
0.0
 10
-25.97573487245336
 20
17.76495499609646
 30
0.0
 10
-28.564822266058
 20
13.32866136776954
 30
0.0
 10
-29.58732300292143
 20
10.94817040350124
 30
0.0
 10
-31.02433028862341
 20
6.003419242179824
 30
0.0
 10
-31.43873809478755
 20
3.439453865463017
 30
0.0
 10
-31.63155210999557
 20
-1.71905200922771
 30
0.0
 10
-31.40993415003693
 20
-4.313281759129453
 30
0.0
 10
-30.34078830029891
 20
-9.376523822455326
 30
0.0
 10
-29.49331263830869
 20
-11.84522807531725
 30
0.0
 10
-27.22022398263971
 20
-16.50838374058452
 30
0.0
 10
-25.79473684888815
 20
-18.70254832540026
 30
0.0
 10
-22.44839221538494
 20
-22.68334183462757
 30
0.0
 10
-20.52772699905581
 20
-24.46972252367367
 30
0.0
 10
-16.3039829811824
 20
-27.52551034910152
 30
0.0
 10
-14.00115164590888
 20
-28.79472296487058
 30
0.0
 10
-9.149578049462555
 20
-30.73727968556817
 30
0.0
 10
-6.601123821450122
 20
-31.41049494941635
 30
0.0
 10
-1.410260300928549
 20
-32.11759884385119
 30
0.0
 10
1.231837519736665
 20
-32.15143238445916
 30
0.0
 10
6.451640855150284
 20
-31.5745381166846
 30
0.0
 10
9.02903008134044
 20
-30.96383264306587
 30
0.0
 10
13.96416768965138
 20
-29.13135036128612
 30
0.0
 10
16.32161396888754
 20
-27.9096723458773
 30
0.0
 10
20.67406617575437
 20
-24.92563451076305
 30
0.0
 10
22.66880242733765
 20
-23.1634443703009
 30
0.0
 10
26.17413103336967
 20
-19.20161806344772
 30
0.0
 10
27.68450251719296
 20
-17.00221259952125
 30
0.0
 10
30.12791412550192
 20
-12.29598936205748
 30
0.0
 10
31.06079570621976
 20
-9.789449731949187
 30
0.0
 10
32.29029717410189
 20
-4.618100629974209
 30
0.0
 10
32.58683068123987
 20
-1.953600240630277
 30
0.0
 10
32.5226713323392
 20
3.374294628505635
 30
0.0
 10
32.1619698027196
 20
6.037367529234563
 30
0.0
 10
30.80178455045273
 20
11.20233198426831
 30
0.0
 10
29.80237075508264
 20
13.70390874578575
 30
0.0
 10
27.22169411002502
 20
18.3947272456391
 30
0.0
 10
25.64057595853723
 20
20.58367994428704
 30
0.0
 10
21.98867379972351
 20
24.51614939605213
 30
0.0
 10
19.91810091513513
 20
26.25942037065932
 30
0.0
 10
15.40934833366869
 20
29.19356719153781
 30
0.0
 10
12.97143380192583
 20
30.38425550940671
 30
0.0
 10
7.872736359645976
 20
32.13897504802641
 30
0.0
 10
5.212256964596438
 20
32.70288854642405
 30
0.0
 10
-0.1727468989285476
 20
33.16711406893975
 30
0.0
 10
-2.896947575037814
 20
33.06738558813606
 30
0.0
 10
-8.245968110000797
 20
32.20709856607705
 30
0.0
 10
-10.87046327833472
 20
31.44657953863252
 30
0.0
 10
-15.86184826103901
 20
29.30721988792076
 30
0.0
 10
-18.22843201091203
 20
27.92849679812556
 30
0.0
 10
-22.56050842690729
 20
24.63260635356378
 30
0.0
 10
-24.52573215017376
 20
22.71562785017137
 30
0.0
 10
-27.93503767678319
 20
18.45584632082523
 30
0.0
 10
-29.37890400835074
 20
16.11329244083489
 30
0.0
 10
-31.65620655910673
 20
11.14110522414279
 30
0.0
 10
-32.48949398714641
 20
8.511766626097447
 30
0.0
 10
-33.49262546467143
 20
3.122661277587524
 30
0.0
 10
-33.66239666387774
 20
0.3632173453243062
 30
0.0
 10
-33.32511414217563
 20
-5.120875390138291
 30
0.0
 10
-32.81806824725899
 20
-7.845192579451071
 30
0.0
 10
-31.15439108863928
 20
-13.09512983370294
 30
0.0
 10
-29.99784823181653
 20
-15.62042939171544
 30
0.0
 10
-27.10158920453489
 20
-20.31961055003604
 30
0.0
 10
-25.36203707899843
 20
-22.49320207730379
 30
0.0
 10
-21.40153331827782
 20
-26.3566608569869
 30
0.0
 10
-19.18081185066907
 20
-28.04628605606109
 30
0.0
 10
-14.38915026641664
 20
-30.83796901284447
 30
0.0
 10
-11.8184929033949
 20
-31.93984751560104
 30
0.0
 10
-6.479797012053127
 20
-33.48703145948237
 30
0.0
 10
-3.712077061400063
 20
-33.93223151359111
 30
0.0
 10
1.855338257667258
 20
-34.13619956923327
 30
0.0
 10
4.654698218213226
 20
-33.89494272910588
 30
0.0
 10
10.11730543306214
 20
-32.73725975682959
 30
0.0
 10
12.78022054258685
 20
-31.82089119181203
 30
0.0
 10
17.8092601203058
 20
-29.36488094384887
 30
0.0
 10
20.17507569582246
 20
-27.82537615214638
 30
0.0
 10
24.46634171376515
 20
-24.21268931836249
 30
0.0
 10
26.39152519739161
 20
-22.13971562180417
 30
0.0
 10
29.68376518379112
 20
-17.58217267959127
 30
0.0
 10
31.05061290640745
 20
-15.09787103036983
 30
0.0
 10
33.14142909044534
 20
-9.865048856420023
 30
0.0
 10
33.86525976981405
 20
-7.11683935652494
 30
0.0
 10
34.62354412932115
 20
-1.520128689514239
 30
0.0
 10
34.65793963297879
 20
1.328036530636573
 30
0.0
 10
34.03207920321022
 20
6.953960120775267
 30
0.0
 10
33.37184855751362
 20
9.731377710613883
 30
0.0
 10
31.39318839569522
 20
15.04856685171301
 30
0.0
 10
30.07486648776595
 20
17.58801325999231
 30
0.0
 10
26.85620059031933
 20
22.27554906640488
 30
0.0
 10
24.95604042958496
 20
24.42334858085394
 30
0.0
 10
20.6851988960927
 20
28.19670878208244
 30
0.0
 10
18.31476686134978
 20
29.82203243425501
 30
0.0
 10
13.24366283111245
 20
32.45035849138648
 30
0.0
 10
10.54329098364022
 20
33.4531912010802
 30
0.0
 10
4.973065562942887
 20
34.77340666281601
 30
0.0
 10
2.103545126976931
 20
35.09069756421072
 30
0.0
 10
-3.633313940025163
 20
35.01761458476793
 30
0.0
 10
-6.500306328899677
 20
34.6272325685002
 30
0.0
 10
-12.05981057194674
 20
33.159020921344
 30
0.0
 10
-14.75198384011504
 20
32.08126773240001
 30
0.0
 10
-19.79926999210558
 20
29.29993675945938
 30
0.0
 10
-22.15407233901123
 20
27.59651577437308
 30
0.0
 10
-26.38357152941485
 20
23.66335807217806
 30
0.0
 10
-28.25800468165255
 20
21.4338494392747
 30
0.0
 10
-31.41194010960905
 20
16.58009785126318
 30
0.0
 10
-32.69124160229798
 20
13.95614086688775
 30
0.0
 10
-34.57533503820265
 20
8.46937933064958
 30
0.0
 10
-35.1800014570102
 20
5.60690169696592
 30
0.0
 10
-35.67543181987592
 20
-0.1859717587783319
 30
0.0
 10
-35.56615337716536
 20
-3.116019191385734
 30
0.0
 10
-34.63703179860231
 20
-8.868268135751224
 30
0.0
 10
-33.81723232771483
 20
-11.69012063979489
 30
0.0
 10
-31.51312449443565
 20
-17.05592434887263
 30
0.0
 10
-30.0289436008616
 20
-19.59954690961877
 30
0.0
 10
-26.48226594080903
 20
-24.25479064893858
 30
0.0
 10
-24.41997314974208
 20
-26.366123395646
 30
0.0
 10
-19.83839692910799
 20
-30.02797500315409
 30
0.0
 10
-17.31938205173646
 20
-31.57826316207141
 30
0.0
 10
-11.97368023521234
 20
-34.02235357218985
 30
0.0
 10
-9.147310559982289
 20
-34.91599697389127
 30
0.0
 10
-3.355358232037282
 20
-35.99016124298762
 30
0.0
 10
-0.3901226917162149
 20
-36.17060497638193
 30
0.0
 10
5.502003764528463
 20
-35.8043426509691
 30
0.0
 10
8.428538459580516
 20
-35.25764616581695
 30
0.0
 10
14.06723965742904
 20
-33.46671358500409
 30
0.0
 10
16.77906220840251
 20
-32.22257357052136
 30
0.0
 10
21.82443599674889
 20
-29.10841087361888
 30
0.0
 10
24.15767628350093
 20
-27.23856537707551
 30
0.0
 10
28.30400646108859
 20
-22.98257029911205
 30
0.0
 10
30.11683723966882
 20
-20.59666870524167
 30
0.0
 10
33.11111575963093
 20
-15.44963916506372
 30
0.0
 10
34.29237202828081
 20
-12.68881540328813
 30
0.0
 10
35.94973263034143
 20
-6.956174781925979
 30
0.0
 10
36.42572493239467
 20
-3.984700257337102
 30
0.0
 10
36.64084702847096
 20
1.991624506106815
 30
0.0
 10
36.37995130817482
 20
4.996114677297006
 30
0.0
 10
35.1337312133603
 20
10.85808704366898
 30
0.0
 10
34.14846974531537
 20
13.71521300985645
 30
0.0
 10
31.50953790505802
 20
19.11013650002706
 30
0.0
 10
29.8560154554046
 20
21.64760306624468
 30
0.0
 10
25.97698642134002
 20
26.24934159290274
 30
0.0
 10
23.75170424455217
 20
28.31332787110984
 30
0.0
 10
18.86036237799972
 20
31.84202001848096
 30
0.0
 10
16.19459041483125
 20
33.30650284794408
 30
0.0
 10
10.58051966337798
 20
35.54557849532235
 30
0.0
 10
7.63255489159975
 20
36.32002459021174
 30
0.0
 10
1.629997078099922
 20
37.12948941479113
 30
0.0
 10
-1.424235541536486
 20
37.16444688149841
 30
0.0
 10
-7.456279386400253
 20
36.48962028973587
 30
0.0
 10
-10.43372533988733
 20
35.77986447196135
 30
0.0
 10
-16.13296601377463
 20
33.65502643010433
 30
0.0
 10
-18.85441255109708
 20
32.2400606296546
 30
0.0
 10
-23.87703195705539
 20
28.78676666987559
 30
0.0
 10
-26.17789473437057
 20
26.7486364888687
 30
0.0
 10
-30.2192865307955
 20
22.16877972873728
 30
0.0
 10
-31.95956235131708
 20
19.62732112317832
 30
0.0
 10
-34.77280285727103
 20
14.19133630016742
 30
0.0
 10
-35.84558669594064
 20
11.29713223533124
 30
0.0
 10
-37.25651615153013
 20
5.328030495911558
 30
0.0
 10
-37.59456444718155
 20
2.253490013323578
 30
0.0
 10
-37.51255783719662
 20
-3.8923332515447
 30
0.0
 10
-37.0924953342808
 20
-6.963245128564798
 30
0.0
 10
-35.51625729223526
 20
-12.91728915962518
 30
0.0
 10
-34.36016470971718
 20
-15.80005893444475
 30
0.0
 10
-31.37817940889349
 20
-21.20381273857244
 30
0.0
 10
-29.55245559020928
 20
-23.724464733735
 30
0.0
 10
-25.33804234463301
 20
-28.25099366277722
 30
0.0
 10
-22.94959796341426
 20
-30.2565889926458
 30
0.0
 10
-17.75084736885765
 20
-33.63031302768028
 30
0.0
 10
-14.94084793184964
 20
-34.99822769518925
 30
0.0
 10
-9.066022301653183
 20
-37.0116950283789
 30
0.0
 10
-6.001546429335395
 20
-37.65711436759634
 30
0.0
 10
0.1991966186281231
 20
-38.1837495708121
 30
0.0
 10
3.335090807733664
 20
-38.06492116619464
 30
0.0
 10
9.49056816150166
 20
-37.06696503112755
 30
0.0
 10
12.50977800125455
 20
-36.18788511679732
 30
0.0
 10
18.25000043670577
 20
-33.71902910095078
 30
0.0
 10
20.97066180832551
 20
-32.12939040359763
 30
0.0
 10
25.94907287096989
 20
-28.33192552805429
 30
0.0
 10
28.20651464111824
 20
-26.12431844931278
 30
0.0
 10
32.12091232952501
 20
-21.22094753739074
 30
0.0
 10
33.77762231579207
 20
-18.52547166263803
 30
0.0
 10
36.38850058527294
 20
-12.80625524628189
 30
0.0
 10
37.34249996063615
 20
-9.78285449386712
 30
0.0
 10
38.48769702130379
 20
-3.588055186487029
 30
0.0
 10
38.67881328888614
 20
-0.417028038107639
 30
0.0
 10
38.2835711597625
 20
5.883132138919119
 30
0.0
 10
37.69722408437504
 20
9.011884339709436
 30
0.0
 10
35.77903608136912
 20
15.03934948115465
 30
0.0
 10
34.44729890922619
 20
17.93769502508959
 30
0.0
 10
31.11523254270288
 20
23.32926144346172
 30
0.0
 10
29.11509367515255
 20
25.82215048969807
 30
0.0
 10
24.56360727994628
 20
30.25135206519029
 30
0.0
 10
22.01252555981426
 20
32.18738842327657
 30
0.0
 10
16.51012806371081
 20
35.38426250641741
 30
0.0
 10
13.55913790318135
 20
36.6448965409606
 30
0.0
 10
7.432552551798821
 20
38.4124338012005
 30
0.0
 10
4.257323453274686
 20
38.91921835119818
 30
0.0
 10
-2.127910754545823
 20
39.1454944877087
 30
0.0
 10
-5.337531136380791
 20
38.86495988724378
 30
0.0
 10
-11.59886865427581
 20
37.53020266989099
 30
0.0
 10
-14.65020547712606
 20
36.4760482988187
 30
0.0
 10
-20.41101287974834
 20
33.65419486626715
 30
0.0
 10
-23.12013043666689
 20
31.88665475866283
 30
0.0
 10
-28.03234147204034
 20
27.74128352431755
 30
0.0
 10
-30.23513054482808
 20
25.36369286730018
 30
0.0
 10
-34.00027485317081
 20
20.13855207640818
 30
0.0
 10
-35.56239278948094
 20
17.29130979929221
 30
0.0
 10
-37.94972790019951
 20
11.29599047033547
 30
0.0
 10
-38.77478941060942
 20
8.148270426674552
 30
0.0
 10
-39.63543470026109
 20
1.739865466685597
 30
0.0
 10
-39.67095413001805
 20
-1.520434552436409
 30
0.0
 10
-38.94716137626148
 20
-7.958598652025249
 30
0.0
 10
-38.18788038640908
 20
-11.13607296916079
 30
0.0
 10
-35.91686446451343
 20
-17.21736517583626
 30
0.0
 10
-34.40525477154326
 20
-20.12081184220186
 30
0.0
 10
-30.71733274943186
 20
-25.47851484770591
 30
0.0
 10
-28.54123254815242
 20
-27.93244088788722
 30
0.0
 10
-23.65236056138186
 20
-32.24186427950855
 30
0.0
 10
-20.93987538500732
 20
-34.09709226837887
 30
0.0
 10
-15.13900976922292
 20
-37.09524722315539
 30
0.0
 10
-12.05097348702226
 20
-38.23798219080108
 30
0.0
 10
-5.682995428880225
 20
-39.73962564024426
 30
0.0
 10
-2.403434899670217
 20
-40.09843133015238
 30
0.0
 10
4.151352563064241
 20
-40.00750108962533
 30
0.0
 10
7.426183928229928
 20
-39.55775810006138
 30
0.0
 10
13.77476774730363
 20
-37.8734936631265
 30
0.0
 10
16.84813402877448
 20
-36.63906168703435
 30
0.0
 10
22.60835548503933
 20
-33.45642205832759
 30
0.0
 10
25.29485712845918
 20
-31.50839540604514
 30
0.0
 10
30.11841579613991
 20
-27.01272661708758
 30
0.0
 10
32.25517330363905
 20
-24.46534648755381
 30
0.0
 10
35.84868594575153
 20
-18.92159688645211
 30
0.0
 10
37.3052137880805
 20
-15.92555499681155
 30
0.0
 10
39.44805501855512
 20
-9.662665272656778
 30
0.0
 10
40.13422727818251
 20
-6.396191161704865
 30
0.0
 10
40.69206732174829
 20
0.2124214784779213
 30
0.0
 10
40.56368895522393
 20
3.554162424081597
 30
0.0
 10
39.4968982636528
 20
10.1128681872521
 30
0.0
 10
38.55853790587963
 20
13.3294353627147
 30
0.0
 10
35.92493370746567
 20
19.44407652453937
 30
0.0
 10
34.22983720633396
 20
22.34177670703177
 30
0.0
 10
30.18158511529992
 20
27.64335509300077
 30
0.0
 10
27.82866374888348
 20
30.04690588659048
 30
0.0
 10
22.60349814567349
 20
34.21384965589592
 30
0.0
 10
19.73156127353959
 20
35.97698146951275
 30
0.0
 10
13.63883025735142
 20
38.75464759835608
 30
0.0
 10
10.41839842775194
 20
39.76900294738103
 30
0.0
 10
7.119575284344357
 20
40.37711787350049
 30
0.0
  0
ENDSEC
  0
SECTION
  2
OBJECTS
  0
DICTIONARY
  5
C
330
0
100
AcDbDictionary
281
     1
  3
ACAD_GROUP
350
D
  3
ACAD_LAYOUT
350
1A
  3
ACAD_MLINESTYLE
350
17
  3
ACAD_PLOTSETTINGS
350
19
  3
ACAD_PLOTSTYLENAME
350
E
  3
ACAD_SCALELIST
350
47
  0
DICTIONARY
  5
D
102
{ACAD_REACTORS
330
C
102
}
330
C
100
AcDbDictionary
281
     1
  0
DICTIONARY
  5
1A
102
{ACAD_REACTORS
330
C
102
}
330
C
100
AcDbDictionary
281
     1
  3
Layout1
350
1E
  3
Layout2
350
26
  3
Model
350
22
  0
DICTIONARY
  5
17
102
{ACAD_REACTORS
330
C
102
}
330
C
100
AcDbDictionary
281
     1
  3
Standard
350
18
  0
DICTIONARY
  5
19
102
{ACAD_REACTORS
330
C
102
}
330
C
100
AcDbDictionary
281
     1
  0
ACDBDICTIONARYWDFLT
  5
E
102
{ACAD_REACTORS
330
C
102
}
330
C
100
AcDbDictionary
281
     1
  3
Normal
350
F
100
AcDbDictionaryWithDefault
340
F
  0
DICTIONARY
  5
47
102
{ACAD_REACTORS
330
C
102
}
330
C
100
AcDbDictionary
281
     1
  3
A0
350
48
  3
A1
350
49
  3
A2
350
4A
  3
A3
350
4B
  3
A4
350
4C
  3
A5
350
4D
  3
A6
350
4E
  3
A7
350
4F
  3
A8
350
50
  3
A9
350
51
  3
B0
350
52
  3
B1
350
53
  3
B2
350
54
  3
B3
350
55
  3
B4
350
56
  3
B5
350
57
  3
B6
350
58
  3
B7
350
59
  3
B8
350
5A
  3
B9
350
5B
  3
C0
350
5C
  3
C1
350
5D
  3
C2
350
5E
  3
C3
350
5F
  3
C4
350
60
  3
C5
350
61
  3
C6
350
62
  3
C7
350
63
  3
C8
350
64
  3
C9
350
65
  3
D0
350
66
  3
D1
350
67
  3
D2
350
68
  0
LAYOUT
  5
1E
102
{ACAD_REACTORS
330
1A
102
}
330
1A
100
AcDbPlotSettings
  1

  2
none_device
  4

  6

 40
0.0
 41
0.0
 42
0.0
 43
0.0
 44
0.0
 45
0.0
 46
0.0
 47
0.0
 48
0.0
 49
0.0
140
0.0
141
0.0
142
1.0
143
1.0
 70
   688
 72
     1
 73
     0
 74
     5
  7

 75
    16
147
1.0
148
0.0
149
0.0
100
AcDbLayout
  1
Layout1
 70
     1
 71
     1
 10
0.0
 20
0.0
 11
420.0
 21
297.0
 12
0.0
 22
0.0
 32
0.0
 14
1.0000000000E+20
 24
1.0000000000E+20
 34
1.0000000000E+20
 15
-1.0000000000E+20
 25
-1.0000000000E+20
 35
-1.0000000000E+20
146
0.0
 13
0.0
 23
0.0
 33
0.0
 16
1.0
 26
0.0
 36
0.0
 17
0.0
 27
1.0
 37
0.0
 76
     0
330
1B
  0
LAYOUT
  5
26
102
{ACAD_REACTORS
330
1A
102
}
330
1A
100
AcDbPlotSettings
  1

  2
none_device
  4

  6

 40
0.0
 41
0.0
 42
0.0
 43
0.0
 44
0.0
 45
0.0
 46
0.0
 47
0.0
 48
0.0
 49
0.0
140
0.0
141
0.0
142
1.0
143
1.0
 70
   688
 72
     1
 73
     0
 74
     5
  7

 75
    16
147
1.0
148
0.0
149
0.0
100
AcDbLayout
  1
Layout2
 70
     1
 71
     2
 10
0.0
 20
0.0
 11
0.0
 21
0.0
 12
0.0
 22
0.0
 32
0.0
 14
0.0
 24
0.0
 34
0.0
 15
0.0
 25
0.0
 35
0.0
146
0.0
 13
0.0
 23
0.0
 33
0.0
 16
1.0
 26
0.0
 36
0.0
 17
0.0
 27
1.0
 37
0.0
 76
     0
330
23
  0
LAYOUT
  5
22
102
{ACAD_REACTORS
330
1A
102
}
330
1A
100
AcDbPlotSettings
  1

  2
none_device
  4
ANSI_A_(11.00_x_8.50_Inches)
  6

 40
6.35
 41
19.05
 42
6.35000508
 43
19.05000254
 44
279.4
 45
215.9
 46
132.0907305639
 47
88.4990496503
 48
0.0
 49
0.0
140
0.0
141
0.0
142
0.1021056281
143
1.0
 70
  1696
 72
     0
 73
     0
 74
     0
  7

 75
     0
147
0.0179189148
148
-1300.4909072572
149
0.0
100
AcDbLayout
  1
Model
 70
     1
 71
     0
 10
0.0
 20
0.0
 11
420.0
 21
297.0
 12
0.0
 22
0.0
 32
0.0
 14
-40.5541538785
 24
-41.052728237
 34
0.0
 15
41.5252548406
 25
41.3619256265
 35
0.0
146
0.0
 13
0.0
 23
0.0
 33
0.0
 16
1.0
 26
0.0
 36
0.0
 17
0.0
 27
1.0
 37
0.0
 76
     0
330
1F
331
29
  0
MLINESTYLE
  5
18
102
{ACAD_REACTORS
330
17
102
}
330
17
100
AcDbMlineStyle
  2
Standard
 70
     0
  3

 62
   256
 51
90.0
 52
90.0
 71
     2
 49
0.5
 62
   256
  6
BYLAYER
 49
-0.5
 62
   256
  6
BYLAYER
  0
ACDBPLACEHOLDER
  5
F
102
{ACAD_REACTORS
330
E
102
}
330
E
  0
SCALE
  5
48
102
{ACAD_REACTORS
330
47
102
}
330
47
100
AcDbScale
 70
     0
300
1:1
140
1.0
141
1.0
290
     1
  0
SCALE
  5
49
102
{ACAD_REACTORS
330
47
102
}
330
47
100
AcDbScale
 70
     0
300
1:2
140
1.0
141
2.0
290
     0
  0
SCALE
  5
4A
102
{ACAD_REACTORS
330
47
102
}
330
47
100
AcDbScale
 70
     0
300
1:4
140
1.0
141
4.0
290
     0
  0
SCALE
  5
4B
102
{ACAD_REACTORS
330
47
102
}
330
47
100
AcDbScale
 70
     0
300
1:5
140
1.0
141
5.0
290
     0
  0
SCALE
  5
4C
102
{ACAD_REACTORS
330
47
102
}
330
47
100
AcDbScale
 70
     0
300
1:8
140
1.0
141
8.0
290
     0
  0
SCALE
  5
4D
102
{ACAD_REACTORS
330
47
102
}
330
47
100
AcDbScale
 70
     0
300
1:10
140
1.0
141
10.0
290
     0
  0
SCALE
  5
4E
102
{ACAD_REACTORS
330
47
102
}
330
47
100
AcDbScale
 70
     0
300
1:16
140
1.0
141
16.0
290
     0
  0
SCALE
  5
4F
102
{ACAD_REACTORS
330
47
102
}
330
47
100
AcDbScale
 70
     0
300
1:20
140
1.0
141
20.0
290
     0
  0
SCALE
  5
50
102
{ACAD_REACTORS
330
47
102
}
330
47
100
AcDbScale
 70
     0
300
1:30
140
1.0
141
30.0
290
     0
  0
SCALE
  5
51
102
{ACAD_REACTORS
330
47
102
}
330
47
100
AcDbScale
 70
     0
300
1:40
140
1.0
141
40.0
290
     0
  0
SCALE
  5
52
102
{ACAD_REACTORS
330
47
102
}
330
47
100
AcDbScale
 70
     0
300
1:50
140
1.0
141
50.0
290
     0
  0
SCALE
  5
53
102
{ACAD_REACTORS
330
47
102
}
330
47
100
AcDbScale
 70
     0
300
1:100
140
1.0
141
100.0
290
     0
  0
SCALE
  5
54
102
{ACAD_REACTORS
330
47
102
}
330
47
100
AcDbScale
 70
     0
300
2:1
140
2.0
141
1.0
290
     0
  0
SCALE
  5
55
102
{ACAD_REACTORS
330
47
102
}
330
47
100
AcDbScale
 70
     0
300
4:1
140
4.0
141
1.0
290
     0
  0
SCALE
  5
56
102
{ACAD_REACTORS
330
47
102
}
330
47
100
AcDbScale
 70
     0
300
8:1
140
8.0
141
1.0
290
     0
  0
SCALE
  5
57
102
{ACAD_REACTORS
330
47
102
}
330
47
100
AcDbScale
 70
     0
300
10:1
140
10.0
141
1.0
290
     0
  0
SCALE
  5
58
102
{ACAD_REACTORS
330
47
102
}
330
47
100
AcDbScale
 70
     0
300
100:1
140
100.0
141
1.0
290
     0
  0
SCALE
  5
59
102
{ACAD_REACTORS
330
47
102
}
330
47
100
AcDbScale
 70
     0
300
1/128" = 1'-0"
140
0.0078125
141
12.0
290
     0
  0
SCALE
  5
5A
102
{ACAD_REACTORS
330
47
102
}
330
47
100
AcDbScale
 70
     0
300
1/64" = 1'-0"
140
0.015625
141
12.0
290
     0
  0
SCALE
  5
5B
102
{ACAD_REACTORS
330
47
102
}
330
47
100
AcDbScale
 70
     0
300
1/32" = 1'-0"
140
0.03125
141
12.0
290
     0
  0
SCALE
  5
5C
102
{ACAD_REACTORS
330
47
102
}
330
47
100
AcDbScale
 70
     0
300
1/16" = 1'-0"
140
0.0625
141
12.0
290
     0
  0
SCALE
  5
5D
102
{ACAD_REACTORS
330
47
102
}
330
47
100
AcDbScale
 70
     0
300
3/32" = 1'-0"
140
0.09375
141
12.0
290
     0
  0
SCALE
  5
5E
102
{ACAD_REACTORS
330
47
102
}
330
47
100
AcDbScale
 70
     0
300
1/8" = 1'-0"
140
0.125
141
12.0
290
     0
  0
SCALE
  5
5F
102
{ACAD_REACTORS
330
47
102
}
330
47
100
AcDbScale
 70
     0
300
3/16" = 1'-0"
140
0.1875
141
12.0
290
     0
  0
SCALE
  5
60
102
{ACAD_REACTORS
330
47
102
}
330
47
100
AcDbScale
 70
     0
300
1/4" = 1'-0"
140
0.25
141
12.0
290
     0
  0
SCALE
  5
61
102
{ACAD_REACTORS
330
47
102
}
330
47
100
AcDbScale
 70
     0
300
3/8" = 1'-0"
140
0.375
141
12.0
290
     0
  0
SCALE
  5
62
102
{ACAD_REACTORS
330
47
102
}
330
47
100
AcDbScale
 70
     0
300
1/2" = 1'-0"
140
0.5
141
12.0
290
     0
  0
SCALE
  5
63
102
{ACAD_REACTORS
330
47
102
}
330
47
100
AcDbScale
 70
     0
300
3/4" = 1'-0"
140
0.75
141
12.0
290
     0
  0
SCALE
  5
64
102
{ACAD_REACTORS
330
47
102
}
330
47
100
AcDbScale
 70
     0
300
1" = 1'-0"
140
1.0
141
12.0
290
     0
  0
SCALE
  5
65
102
{ACAD_REACTORS
330
47
102
}
330
47
100
AcDbScale
 70
     0
300
1-1/2" = 1'-0"
140
1.5
141
12.0
290
     0
  0
SCALE
  5
66
102
{ACAD_REACTORS
330
47
102
}
330
47
100
AcDbScale
 70
     0
300
3" = 1'-0"
140
3.0
141
12.0
290
     0
  0
SCALE
  5
67
102
{ACAD_REACTORS
330
47
102
}
330
47
100
AcDbScale
 70
     0
300
6" = 1'-0"
140
6.0
141
12.0
290
     0
  0
SCALE
  5
68
102
{ACAD_REACTORS
330
47
102
}
330
47
100
AcDbScale
 70
     0
300
1'-0" = 1'-0"
140
12.0
141
12.0
290
     0
  0
ENDSEC
  0
EOF
